<?xml version="1.0" encoding="UTF-8"?>
<svg width="270" height="197" viewBox="0 0 270 197" fill="none" xmlns="http://www.w3.org/2000/svg">
<path fill-rule="evenodd" clip-rule="evenodd" d="M173.072 116.671L146.783 122.61L108.515 156.108L65.543 210.001H222.264V106.439L208.218 104.977L173.072 116.671Z" fill="#6CB4C0"/>
<path fill-rule="evenodd" clip-rule="evenodd" d="M58.9375 209.442C58.9375 209.442 124.31 131.965 124.71 130.988C125.823 128.27 174.587 116.178 174.587 116.178L212.959 112.084L212.799 115.557L160.148 125.689C159.523 125.807 159.027 126.201 158.802 126.75C158.721 126.948 158.68 127.154 158.68 127.358V143.428C158.68 145.39 157.948 147.303 156.618 148.815C155.309 150.304 153.48 151.332 151.468 151.709L125.054 156.656C124.516 156.757 124.178 157.05 123.989 157.278C123.812 157.491 123.603 157.843 123.603 158.322V174.391C123.603 176.278 122.918 178.135 121.674 179.62C120.354 181.197 118.478 182.282 116.392 182.672L89.9773 187.62C89.4812 187.713 89.0461 188.004 88.7837 188.418C88.6132 188.687 88.5271 188.978 88.5271 189.285V209.607L58.9375 209.442Z" fill="#77C6C6"/>
<path fill-rule="evenodd" clip-rule="evenodd" d="M39.3867 189.286V209.518H84.9487V189.286C84.9487 188.344 85.2267 187.454 85.7117 186.689H40.1498C39.6647 187.454 39.3867 188.344 39.3867 189.286Z" fill="#6CB4C0"/>
<path fill-rule="evenodd" clip-rule="evenodd" d="M73.3025 177.529C72.531 178.45 71.4255 179.121 70.1312 179.363L43.7163 184.311C42.1795 184.599 40.9081 185.488 40.1484 186.687H85.7104C86.47 185.488 87.7414 184.599 89.2783 184.311L115.693 179.363C116.987 179.121 118.093 178.45 118.864 177.529H73.3025Z" fill="#A9D3DA"/>
<path fill-rule="evenodd" clip-rule="evenodd" d="M74.464 158.318V174.388C74.464 175.563 74.0334 176.657 73.3047 177.527H118.867C119.595 176.657 120.026 175.563 120.026 174.388V158.318C120.026 157.152 120.451 156.066 121.17 155.199H75.6073C74.8884 156.066 74.464 157.152 74.464 158.318Z" fill="#6CB4C0"/>
<path fill-rule="evenodd" clip-rule="evenodd" d="M155.101 127.356C155.101 126.717 155.231 126.102 155.464 125.533H109.902C109.669 126.102 109.539 126.717 109.539 127.356V143.426C109.539 144.644 109.079 145.776 108.301 146.661H153.863C154.641 145.776 155.101 144.644 155.101 143.426V127.356Z" fill="#6CB4C0"/>
<path fill-rule="evenodd" clip-rule="evenodd" d="M105.208 148.398L78.7928 153.346C77.4893 153.59 76.3777 154.268 75.6055 155.2H121.167C121.94 154.268 123.051 153.59 124.355 153.346L150.77 148.398C152.02 148.164 153.095 147.532 153.862 146.66H108.3C107.533 147.532 106.458 148.164 105.208 148.398Z" fill="#A9D3DA"/>
<path fill-rule="evenodd" clip-rule="evenodd" d="M226.916 92.774L199.781 69.8438H195.137C195.137 69.8438 193.314 73.3813 193.314 73.7257L184.637 101.365L172.344 114.104L180.474 120.352C188.198 120.285 188.742 120.183 189.015 120.132L215.417 115.063C217.429 114.687 218.9 113.659 220.209 112.169C221.539 110.657 222.271 108.744 222.271 106.782V99.7008C222.271 99.7008 227.467 100.003 228.655 98.282C229.855 96.5435 228.538 94.1448 226.916 92.774Z" fill="#77C6C6"/>
<path fill-rule="evenodd" clip-rule="evenodd" d="M169.983 110.02C169.216 110.892 168.14 111.524 166.891 111.758L165.25 112.084H164.893L141.098 116.888L141.096 116.888L113.871 122.385C112.018 122.732 110.551 123.952 109.902 125.535H155.465C156.113 123.952 157.58 122.732 159.433 122.385L188.327 116.824L214.719 111.758C215.969 111.524 217.044 110.892 217.812 110.02H169.983Z" fill="#A9D3DA"/>
<path fill-rule="evenodd" clip-rule="evenodd" d="M225.237 95.2855L195.13 69.8438L165.023 95.2855C163.907 96.2288 164.615 97.9726 166.114 97.9726H171.216V106.782C171.216 108 170.756 109.133 169.978 110.017H217.806C218.584 109.133 219.045 108 219.045 106.782V97.9726H224.147C225.646 97.9726 226.353 96.2288 225.237 95.2855Z" fill="#97D5D7"/>
<path fill-rule="evenodd" clip-rule="evenodd" d="M195.679 7.5571V22.0787H191.977V6.95703L195.679 7.5571Z" fill="#CE4419"/>
<mask id="mask0_114_56757" style="mask-type:luminance" maskUnits="userSpaceOnUse" x="36" y="0" width="199" height="210">
<path fill-rule="evenodd" clip-rule="evenodd" d="M36 209.605H234.487V0.796875H36V209.605Z" fill="white"/>
</mask>
<g mask="url(#mask0_114_56757)">
<path fill-rule="evenodd" clip-rule="evenodd" d="M212.855 33.4816H218.592V19.2598H212.855V33.4816Z" fill="#CE4419"/>
<path fill-rule="evenodd" clip-rule="evenodd" d="M219.684 18.6137C219.489 17.8886 219 17.2459 218.35 16.7643C216.614 15.4773 214.362 15.3299 212.202 15.2041C207 14.9009 201.799 14.598 196.597 14.2947C195.551 14.2337 194.475 14.1667 193.589 13.5941C193.209 13.3479 192.911 13.0012 192.789 12.6016C192.789 12.6016 194.064 22.1912 193.236 32.7147V32.7151C193.994 33.1871 195.066 33.4112 196.597 33.4112C201.799 33.714 207 34.0173 212.202 34.3202C213.648 34.4044 215.134 34.5004 216.479 34.9389C216.508 30.1365 216.572 25.4948 216.572 25.4941C216.363 24.6616 216.673 23.7838 217.34 23.0405C218.521 21.7256 220.211 20.5701 219.684 18.6137Z" fill="#E5796E"/>
<path fill-rule="evenodd" clip-rule="evenodd" d="M193.571 12.6022C193.134 11.0652 195.08 10.064 195.565 8.61999C195.978 7.38976 194.938 6.33097 193.827 5.5766C192.716 4.82185 191.231 4.2355 189.891 3.9707V27.0087L190.637 27.0091C191.475 27.104 192.064 27.7029 192.288 28.4291C192.513 29.1553 192.473 29.9336 192.668 30.6674C192.915 31.5929 193.318 32.2665 193.985 32.7157V32.7153C194.752 22.1918 193.571 12.6022 193.571 12.6022Z" fill="#F38574"/>
<path fill-rule="evenodd" clip-rule="evenodd" d="M234.488 27.3226L218.703 27.4239C218.199 27.4274 217.694 27.3595 217.223 27.1919C216.796 27.0403 216.334 26.7945 216.042 26.4006C215.827 26.1118 215.69 25.807 215.618 25.4961C215.618 25.4972 215.558 30.1385 215.532 34.941C215.513 38.4336 215.511 42.0111 215.563 43.9511C215.567 44.1012 215.571 44.2415 215.576 44.371C215.624 44.7653 215.772 45.1536 216.042 45.517C216.334 45.9106 216.796 46.1563 217.223 46.308C217.694 46.4756 218.199 46.5434 218.703 46.5404L234.488 46.4387L225.496 36.796L234.488 27.363V27.3226Z" fill="#F38574"/>
<path fill-rule="evenodd" clip-rule="evenodd" d="M189.895 107.559C189.694 107.559 189.531 107.406 189.531 107.217V1.13939C189.531 0.950416 189.694 0.796875 189.895 0.796875C190.096 0.796875 190.259 0.950416 190.259 1.13939V107.217C190.259 107.406 190.096 107.559 189.895 107.559Z" fill="#E9E0D1"/>
<path fill-rule="evenodd" clip-rule="evenodd" d="M197.436 111.527H182.344V106.747C182.344 105.216 183.586 103.975 185.119 103.975H194.661C196.194 103.975 197.436 105.216 197.436 106.747V111.527Z" fill="#E9E0D1"/>
<path fill-rule="evenodd" clip-rule="evenodd" d="M194.221 103.975H185.559V100.903C185.559 100.064 186.239 99.3848 187.078 99.3848H192.702C193.541 99.3848 194.221 100.064 194.221 100.903V103.975Z" fill="#E9E0D1"/>
<path fill-rule="evenodd" clip-rule="evenodd" d="M194.221 104.231H189.109C188.958 104.231 188.836 104.116 188.836 103.974C188.836 103.832 188.958 103.717 189.109 103.717H194.221C194.371 103.717 194.493 103.832 194.493 103.974C194.493 104.116 194.371 104.231 194.221 104.231Z" fill="#3B3B4F"/>
<path fill-rule="evenodd" clip-rule="evenodd" d="M188.472 34.1113C188.455 34.1167 188.436 34.1193 188.418 34.125C187.685 34.3613 186.457 34.7887 185.919 35.1617C185.127 35.7115 185.232 35.6006 184.945 36.2586C184.795 36.603 183.164 41.5994 183.164 41.5994L185.306 43.4773L186.83 38.4684C187.158 38.7431 187.651 38.7888 188.087 38.7461L188.212 38.7118C188.002 36.9955 188.247 35.2315 188.472 34.1113Z" fill="#F7A588"/>
<path fill-rule="evenodd" clip-rule="evenodd" d="M191.664 37.692C191.664 37.692 190.918 34.3286 190.591 34.2626L189.578 34.06C189.21 33.986 188.831 34.0055 188.473 34.1114C188.247 35.2315 188.003 36.9955 188.213 38.7115L191.119 37.9152L191.664 37.692Z" fill="#F17C63"/>
<path fill-rule="evenodd" clip-rule="evenodd" d="M189.413 37.9202C189.364 37.6066 189.56 37.3083 189.859 37.2436L189.886 37.2375L189.864 37.2397C189.563 37.2702 189.29 37.0527 189.242 36.7429C189.194 36.4465 189.368 36.1672 189.639 36.0815C189.342 36.1074 189.074 35.8918 189.025 35.5851C188.975 35.2715 189.172 34.9732 189.471 34.9081L189.501 34.902L189.237 34.7374C188.983 34.7339 188.774 34.5484 188.756 34.3103C188.735 34.0561 188.887 33.6809 189.156 33.6614C189.65 33.6252 189.889 33.589 190.07 33.554C190.548 33.461 191.011 33.7616 191.09 34.2154L191.651 37.404C191.732 37.868 191.379 38.2997 190.882 38.3431C190.452 38.3808 190.036 38.417 190.036 38.417C189.735 38.4471 189.462 38.23 189.413 37.9202Z" fill="#F7A588"/>
<path fill-rule="evenodd" clip-rule="evenodd" d="M183.751 90.5195L193.119 108.293L195.818 110.866L195.01 111.76L188.898 110.339L188.529 109.54L178.238 94.4152C178.238 94.4152 179.647 92.1113 179.647 91.6991L183.751 90.5195Z" fill="#F7A588"/>
<path fill-rule="evenodd" clip-rule="evenodd" d="M188.94 112.942L187.578 112.482C187.578 112.482 187.631 110.082 188.345 109.011C188.345 109.011 191.567 110.762 193.124 108.291C193.124 108.291 199.085 112.055 199.257 112.482C199.429 112.909 193.238 113.234 193.238 113.234L188.94 112.942Z" fill="#F75A23"/>
<path fill-rule="evenodd" clip-rule="evenodd" d="M187.578 114.052H199.257V112.485L196.179 111.672C194.348 111.187 192.41 111.19 190.581 111.681L187.578 112.485V114.052Z" fill="#CA523D"/>
<path fill-rule="evenodd" clip-rule="evenodd" d="M172.629 53.4656C173.021 53.9606 180.212 76.6054 180.212 76.6054C180.212 76.6054 188.384 97.8444 191.01 101.681C191.01 101.681 186.824 103.111 183.621 103.62C183.621 103.62 178.437 95.9665 174.733 87.9518C174.021 86.4118 173.798 82.7832 173.073 81.1514C169.24 72.5242 164.944 63.948 164.253 58.539C162.751 46.7834 172.629 53.4656 172.629 53.4656Z" fill="#112346"/>
<path fill-rule="evenodd" clip-rule="evenodd" d="M171.345 102.598C171.345 98.9857 166.373 103.066 166.373 103.066C166.373 103.066 166.612 104.291 166.755 105.625C166.911 107.08 166.609 108.666 166.097 108.933C160.542 111.837 170.421 110.892 170.421 110.892L171.765 109.378C171.765 109.378 171.345 107.554 171.345 102.598Z" fill="#F7A588"/>
<path fill-rule="evenodd" clip-rule="evenodd" d="M158.476 111.936C158.417 112.608 158.726 113.801 158.726 113.801C163.327 114.428 172.098 113.895 172.098 113.895C172.098 113.895 172.153 113.689 172.461 112.254C161.672 113.082 158.476 111.936 158.476 111.936Z" fill="#8E6968"/>
<path fill-rule="evenodd" clip-rule="evenodd" d="M165.793 109.902L166.754 110.235C166.754 110.235 167.081 110.661 167.637 110.776C168.194 110.89 168.226 111.436 168.226 111.436L165.277 111.831L164.117 111.299L165.793 109.902Z" fill="#FBE9DD"/>
<path fill-rule="evenodd" clip-rule="evenodd" d="M158.48 111.933C158.48 111.933 161.676 113.08 172.465 112.252C172.67 111.295 172.144 110.142 171.766 109.35C169.718 110.398 168.433 110.727 167.641 110.777C166.654 111.091 165.326 111.491 165.254 111.402C165.138 111.258 166.846 110.181 166.846 110.181C166.956 110.088 166.964 109.928 166.864 109.822C166.502 109.442 165.84 108.715 165.84 108.715C165.646 108.854 165.5 108.943 165.5 108.943C164.787 109.339 158.48 111.933 158.48 111.933Z" fill="#CA523D"/>
<path fill-rule="evenodd" clip-rule="evenodd" d="M169.682 83.9364C169.39 70.1097 167.703 63.6552 166.691 60.9902C166.696 60.989 166.7 60.9887 166.705 60.9879C166.255 59.8022 165.938 59.366 165.938 59.366L164.442 57.064L164.1 56.8686L162.183 57.4492L159.141 56.3359L159.366 64.2488C159.482 68.3232 159.819 72.3877 160.373 76.43C161.522 84.7986 164.46 95.5408 164.946 100.867C165.133 102.918 165.239 104.168 165.239 104.168L168.986 104.053L172.29 103.953C172.481 102.904 172.494 101.772 172.689 100.631C174.188 91.8481 169.682 83.9364 169.682 83.9364Z" fill="#112346"/>
<path fill-rule="evenodd" clip-rule="evenodd" d="M165.158 36.1221C166.815 36.6277 169.181 35.9183 170.339 34.0445C169.984 33.9592 169.541 33.7664 169.541 33.7664C169.015 33.5397 168.651 33.3313 168.508 33.1298C168.315 32.8596 168.286 32.4447 168.355 31.6526C166.04 31.5951 164.506 30.8301 164.506 30.8301L164.296 33.3092L161.836 33.7561C161.888 33.9405 163.3 35.5552 165.158 36.1221Z" fill="#F7A588"/>
<path fill-rule="evenodd" clip-rule="evenodd" d="M172.344 34.6204C171.918 34.4931 171.515 34.3735 171.138 34.2592C170.488 34.0618 169.92 33.8816 169.465 33.7106C168.962 34.9503 167.661 35.8083 166.173 35.7523C164.659 35.6952 163.417 34.7095 163.044 33.4023C162.405 33.5448 158.292 34.3605 158.292 34.3605C157.278 36.7021 158.752 56.03 159.105 58.1305C159.142 58.3507 159.301 58.5343 159.522 58.6147C162.904 59.8438 174.961 59.2914 175.099 58.7831C175.188 58.4562 172.095 50.6058 172.108 49.6994C172.568 46.1501 174.64 39.1565 174.64 39.1565C175.64 36.6389 175.063 35.4327 172.344 34.6204Z" fill="#EBE2D3"/>
<path fill-rule="evenodd" clip-rule="evenodd" d="M170.498 28.0167C170.498 28.0167 170.056 31.2453 167.52 30.3111C164.984 29.3765 170.74 24.5508 170.74 24.5508L170.498 28.0167Z" fill="#112346"/>
<path fill-rule="evenodd" clip-rule="evenodd" d="M168.338 31.8037C168.454 30.455 168.784 28.8693 168.763 28.8145L164.559 30.1517L164.469 31.3454C164.469 31.3454 166.023 31.7462 168.338 31.8037Z" fill="#F17C63"/>
<path fill-rule="evenodd" clip-rule="evenodd" d="M163.909 23.7045C163.909 23.7045 162.246 27.9355 162.344 29.2594C162.442 30.5834 164.161 31.4033 166.314 31.161C168.467 30.9183 169.363 29.0507 169.363 29.0507L170.849 26.3589L170.482 22.5135L164.663 21.9824L163.909 23.7045Z" fill="#F7A588"/>
<path fill-rule="evenodd" clip-rule="evenodd" d="M170.141 27.4116C170.141 27.4116 171.276 26.8911 171.844 27.8158C172.412 28.7405 169.948 30.5971 169.062 29.0159L170.141 27.4116Z" fill="#F7A588"/>
<path fill-rule="evenodd" clip-rule="evenodd" d="M174.016 22.5381C174.001 22.5068 173.928 22.3967 173.486 22.4013C173.695 22.1598 173.683 21.8371 173.472 21.6294C173.226 21.386 172.753 21.3459 172.422 21.5688C172.484 21.0709 172.228 20.5935 171.757 20.3382C171.257 20.0673 170.721 20.1588 170.609 20.1801C170.526 19.9031 170.385 19.7168 170.254 19.5915C169.592 18.9567 168.168 18.8927 166.69 19.4196C166.681 19.4033 166.645 19.3937 166.598 19.3884C166.596 19.3876 166.595 19.3869 166.594 19.3861C165.261 18.5673 164.633 18.8523 164.201 19.361C163.65 20.0098 162.838 21.5467 163.667 22.3221C164.102 22.7293 165.181 22.9659 165.745 23.0661C165.719 23.1347 165.706 23.2136 165.71 23.3046C165.745 24.0575 166.893 24.3383 168.036 24.4309C168.162 24.5974 168.34 24.6953 168.34 24.6953L168.789 24.4686C168.857 24.4701 168.924 24.4713 168.99 24.4716C169.936 24.9806 170.112 25.2835 170.059 25.4683C169.954 25.8364 168.989 25.7243 168.612 26.3038C168.254 26.8529 168.721 27.568 168.759 27.6236C169.044 28.048 169.481 28.245 169.659 28.3151C170.089 27.9661 170.428 27.68 170.718 27.4148L171.205 27.2704C171.205 27.2704 172.022 26.2223 172.731 24.906C173.202 24.2255 173.677 23.5344 173.706 23.4742C173.707 23.4715 174.193 22.8756 174.016 22.5381Z" fill="#3A4E6C"/>
<path fill-rule="evenodd" clip-rule="evenodd" d="M146.249 55.9961C146.206 56.0433 143.55 59.2761 143.55 59.2761C143.55 59.2761 143.33 59.1549 142.926 59.2669C142.523 59.379 140.04 61.8882 139.979 62.1183C139.918 62.3484 140.11 63.0567 140.797 63.1935C140.797 63.1935 140.861 64.1109 141.715 64.1963C141.715 64.1963 141.965 64.9682 142.677 64.9129C142.677 64.9129 142.745 65.2619 143.076 65.4642C143.397 65.6608 143.826 65.5275 143.976 65.207L143.981 65.196C143.981 65.196 144.212 65.4356 144.477 65.3758C144.742 65.316 145.883 64.2702 146.093 63.976C146.303 63.6815 146.556 62.1602 146.364 61.5506C146.21 61.0637 146.007 60.8911 146.007 60.8911L148.668 57.7174L146.249 55.9961Z" fill="#F7A588"/>
<path fill-rule="evenodd" clip-rule="evenodd" d="M160.121 35.5124L158.289 34.3652L157.986 34.5146C156.679 35.1596 155.653 36.2146 155.084 37.4974L150.442 47.9691L143.43 57.2128L146.638 60.545L152.276 55.5318C154 54.1793 155.373 52.1242 156.189 50.8223L159.624 45.3371L160.121 35.5124Z" fill="#EBE2D3"/>
<path fill-rule="evenodd" clip-rule="evenodd" d="M185.062 35.9787L185.607 36.6657C185.607 36.6657 186.977 35.5612 186.959 34.7287C186.959 34.7287 188.565 33.7152 187.941 33.1498C187.913 33.1243 187.153 33.4527 186.612 33.6912C186.269 33.8425 186.004 34.1138 185.873 34.4483C185.601 35.1424 185.133 35.8096 185.062 35.9787Z" fill="#F7A588"/>
<path fill-rule="evenodd" clip-rule="evenodd" d="M185.135 48.9639L187.682 39.7377L183.35 38.0816L180.542 43.8521L175.781 36.8163C175.146 35.8786 174.165 35.1906 173.026 34.898C169.841 34.0796 170.123 35.6394 169.648 36.8029C169.12 38.0976 168.431 41.9852 169.72 42.6543C171.413 43.5328 177.738 51.7543 179.622 52.0649C180.871 52.2706 182.155 52.013 183.208 51.3474C184.113 50.7759 184.79 49.9378 185.135 48.9639Z" fill="#EBE2D3"/>
<path fill-rule="evenodd" clip-rule="evenodd" d="M142.881 59.3459C142.237 60.5983 142.293 64.1046 142.293 64.1046C142.293 64.1046 143.588 63.1925 143.87 63.0347C144.151 62.8762 144.635 63.3776 144.635 63.3776C144.635 63.3776 142.804 65.0235 141.743 65.8758C140.682 66.7281 139.554 66.4401 139.554 66.4401C139.554 66.4401 137.288 72.861 137.196 72.9235L135.746 70.6146C135.746 70.6146 137.735 65.0933 137.829 64.897C137.924 64.7008 138.94 61.9942 139.159 61.5489C139.258 61.3492 139.59 60.9621 139.926 60.596C140.498 59.9734 141.335 59.3067 142.208 59.272C142.452 59.2625 142.689 59.2789 142.881 59.3459Z" fill="#F3826F"/>
<path fill-rule="evenodd" clip-rule="evenodd" d="M128.622 108.19L134.903 107.584C134.903 107.584 129.252 119.968 129.323 120.074C129.513 120.358 130.588 120.953 131.413 121.382C131.389 123.297 125.008 122.599 124.016 122.478C124.02 122.049 128.622 108.19 128.622 108.19Z" fill="#F38574"/>
<path fill-rule="evenodd" clip-rule="evenodd" d="M123.52 124.485C123.519 124.4 123.519 124.312 123.52 124.221C123.524 123.424 123.662 123.11 123.882 122.464C123.925 122.475 123.971 122.487 124.016 122.499C124.016 122.492 124.016 122.487 124.016 122.481C125.008 122.602 131.389 123.301 131.414 121.385C131.957 121.667 132.393 121.878 132.393 121.878C134.026 122.614 135.778 123.542 136.247 123.851C136.6 124.009 136.904 124.194 137.106 124.418C137.277 124.608 137.368 125.644 137.092 125.666C134.572 125.865 130.393 126.009 124.684 125.781C124.032 125.754 123.524 125.164 123.52 124.485Z" fill="#ECC478"/>
<path fill-rule="evenodd" clip-rule="evenodd" d="M95.875 133.857C95.777 133.99 95.4357 134.187 95.0017 134.446C94.5055 134.742 93.8878 135.12 93.3699 135.578C92.7422 136.133 92.6175 137.039 93.077 137.718C99.444 147.123 105.146 144.543 105.146 144.543C105.146 144.543 105.575 143.462 104.784 142.948C104.383 142.687 102.335 141.875 102.335 141.875C102.335 141.875 101.829 139.847 101.474 138.597C100.755 141.702 95.875 133.857 95.875 133.857Z" fill="#ECC478"/>
<path fill-rule="evenodd" clip-rule="evenodd" d="M100.996 137.26C100.893 136.994 100.624 136.436 100.576 136.116C100.548 135.933 105.372 130.653 106.73 127.853C106.998 127.299 107.36 126.537 107.655 125.934C104.458 124.878 103.683 123.823 102.403 123.619C102.403 123.619 96.0252 133.65 95.8711 133.858C95.8711 133.858 100.751 141.702 101.47 138.597C101.338 138.131 101.226 137.773 101.17 137.668C101.17 137.668 101.09 137.5 100.996 137.26Z" fill="#F38574"/>
<path fill-rule="evenodd" clip-rule="evenodd" d="M124.511 85.1896L111.526 84.918C111.432 85.0704 111.34 85.2216 111.253 85.3714C109.762 87.924 109.052 90.8173 109.089 93.7308L108.944 109.862C108.551 110.326 108.153 111.196 107.355 112.068C106.184 113.35 105.179 114.759 104.362 116.265L98.5156 128.621L105.087 132.156L115.383 115.928C117.203 113.803 117.956 112.132 118.344 109.923L124.511 85.1896Z" fill="#CA523D"/>
<path fill-rule="evenodd" clip-rule="evenodd" d="M117.589 84.498L116.466 87.4012C116.466 87.4012 112.307 94.6401 118.094 96.7394C123.882 98.8383 130.662 100.045 130.662 100.045C130.662 100.045 127.999 103.898 125.453 114.517L133.073 115.583L139.894 99.1942C140.904 96.6491 139.713 93.7955 137.134 92.5812L125.006 86.8713L124.904 84.6874L117.589 84.498Z" fill="#CA523D"/>
<path fill-rule="evenodd" clip-rule="evenodd" d="M112.022 72.1988C111.29 72.1988 110.627 71.9865 110.127 71.4467C110.061 71.3754 110.069 71.2672 110.144 71.2047C110.219 71.1426 110.334 71.1495 110.401 71.2211C111.59 72.5039 113.949 71.609 115.72 70.6332C116.703 70.0907 117.918 70.0336 118.969 70.4805C120.498 71.1316 122.349 70.8432 122.367 70.8405C122.471 70.8237 122.561 70.8874 122.577 70.9803C122.594 71.0737 122.528 71.1621 122.429 71.1781C122.349 71.191 120.453 71.4882 118.819 70.7929C117.875 70.3917 116.786 70.4424 115.903 70.9289C114.714 71.585 113.268 72.1988 112.022 72.1988Z" fill="#38659A"/>
<path fill-rule="evenodd" clip-rule="evenodd" d="M108.305 63.2993C108.357 63.3188 111.085 62.3304 112.281 62.0215C114.342 64.6812 117.175 65.1578 118.637 64.3044C119.879 63.5801 119.977 61.7064 119.993 61.1932C120.008 61.181 120.014 61.1749 120.029 61.1623C120.096 61.16 120.883 61.0572 121.05 61.0404C121.06 61.0396 121.07 61.0385 121.079 61.0377C122.58 60.8941 124.048 61.5277 124.995 62.6356L131.969 72.0211L137.095 65.5571L141.16 68.5163C141.16 68.5163 135.968 78.8592 131.882 79.4154C127.765 79.9763 125.066 73.894 125.066 73.894C125.262 76.2577 125.177 85.0004 125.177 85.0004C123.935 85.5597 122.903 85.8832 121.544 86.0787C117.491 86.6612 111.307 84.8412 111.307 84.8412C111.307 84.8412 112.108 83.3145 112.281 82.3693C112.394 81.7536 112.208 76.6113 109.883 72.4093C109.009 70.8297 108.305 63.2993 108.305 63.2993Z" fill="#002D6B"/>
<path fill-rule="evenodd" clip-rule="evenodd" d="M94.587 90.6068L90.6091 91.4157C90.2365 91.4915 89.8796 91.6287 89.5524 91.8215L87.5942 93.0902C87.3589 93.2273 87.3028 93.5455 87.476 93.7607C87.6171 93.936 87.8634 93.9813 88.0537 93.867L89.5162 92.8711L88.9075 93.5603C88.7889 93.6944 88.6997 93.8518 88.6448 94.0229L88.4309 94.6881C88.3492 94.9414 88.498 95.2142 88.7554 95.2832L88.9994 95.3487L88.9926 95.3841C88.9396 95.6608 89.1226 95.9301 89.3983 95.9823C89.6455 96.0292 89.8865 95.8848 89.9627 95.6451C90.1252 95.1319 90.3849 94.3174 90.4268 94.2073C90.4886 94.045 92.1273 93.2727 92.5895 93.2799C93.052 93.2871 92.9449 93.7314 92.9449 93.7314L92.0453 94.5421C91.8008 94.7624 91.8458 95.1727 92.1421 95.322C92.1482 95.3251 92.154 95.3278 92.1597 95.3304C92.3157 95.4051 92.4983 95.3864 92.6367 95.2859L93.8288 94.4198L95.935 93.8842C97.1984 93.4803 97.0714 92.1769 97.0772 92.039L99.1708 89.5694L96.6451 87.9258L94.587 90.6068Z" fill="#E2796F"/>
<path fill-rule="evenodd" clip-rule="evenodd" d="M110.946 65.8824C110.946 65.8824 110.639 77.7378 108.314 80.9675C105.988 84.1972 98.8047 91.4114 98.8047 91.4114L94.9531 88.968L103.148 78.6861C103.687 76.9286 104.635 70.8993 105.193 67.1739C105.473 65.3052 106.846 63.7446 108.743 63.1403L109.796 62.8047L110.946 65.8824Z" fill="#002D6B"/>
<path fill-rule="evenodd" clip-rule="evenodd" d="M118.626 60.6523C116.406 61.6071 113.974 60.7274 113.974 60.7274C113.962 61.1716 113.954 61.4681 113.953 61.4902C113.953 61.4902 113.243 61.7538 112.281 62.0213C114.342 64.681 117.175 65.1576 118.638 64.3042C119.879 63.5803 119.995 61.7428 120.011 61.2292C120.023 61.2189 120.036 61.2086 120.048 61.1979C119.785 61.2075 118.606 61.3092 118.606 61.3092L118.626 60.6523Z" fill="#F7A588"/>
<path fill-rule="evenodd" clip-rule="evenodd" d="M118.625 60.6548L118.764 56.0391L114.127 55.8535C114.111 55.8931 114.016 59.1987 113.973 60.7299C113.973 60.7299 116.405 61.6096 118.625 60.6548Z" fill="#F17C63"/>
<path fill-rule="evenodd" clip-rule="evenodd" d="M118.013 57.1504C118.013 57.1504 119.518 57.6179 120.28 56.7317C120.335 56.6685 120.415 56.6289 120.503 56.617C120.849 56.5706 121.691 56.3572 121.498 55.3876C121.478 55.2862 121.517 55.1826 121.598 55.1083C121.795 54.9273 122.117 54.554 122.15 54.0156C122.175 53.6159 122.03 53.2997 121.904 53.1039C121.827 52.9843 121.845 52.8326 121.951 52.7305C122.78 51.9323 122.979 50.9452 122.553 50.352C122.485 50.2571 122.298 50.0293 121.878 49.8715C121.731 49.8159 121.653 49.6745 121.676 49.5309C121.781 48.8729 121.443 48.2816 120.914 48.0835C120.644 47.9822 120.37 48.0005 120.153 48.0492C119.944 48.0961 119.746 47.9734 119.715 47.7825C119.595 47.0304 119.017 46.4997 118.41 46.4601C118.03 46.4353 117.704 46.6064 117.488 46.7634C117.341 46.8704 117.13 46.8533 117.007 46.7272C116.584 46.2944 115.958 46.1229 115.435 46.2845C115.119 46.3824 114.905 46.5824 114.77 46.7573C114.66 46.9001 114.442 46.936 114.286 46.8373C113.659 46.438 112.875 46.4273 112.375 46.7714C112.056 46.9908 111.92 47.3082 111.862 47.5524C111.824 47.7132 111.657 47.8225 111.477 47.8035C111.183 47.7722 110.889 47.8637 110.695 48.0572C110.529 48.2237 110.453 48.4496 110.476 48.676C110.488 48.7906 110.443 48.9061 110.337 48.972C110.129 49.1027 109.857 49.3195 109.67 49.6528C109.276 50.3546 109.538 51.0682 109.71 51.4046C109.767 51.5174 109.752 51.6519 109.661 51.7472C109.486 51.9297 109.24 52.271 109.268 52.729C109.293 53.1408 109.531 53.5154 109.904 53.7501C110.019 53.8228 110.077 53.947 110.051 54.0731C109.961 54.5105 110.092 54.9582 110.418 55.279C110.895 55.7491 111.563 55.7232 111.657 55.7179L118.013 57.1504Z" fill="#ECC478"/>
<path fill-rule="evenodd" clip-rule="evenodd" d="M120.719 46.7047C120.292 48.2511 118.629 49.0093 116.941 48.5982C115.255 48.1814 114.194 46.7557 114.622 45.2089C115.047 43.6681 116.798 42.5914 118.485 43.0082C120.172 43.4193 121.145 45.1643 120.719 46.7047Z" fill="#ECC478"/>
<path fill-rule="evenodd" clip-rule="evenodd" d="M110.81 53.6259C110.81 53.6259 111.785 58.0172 112.6 59.2086C113.415 60.3996 115.253 60.7055 117.134 59.4334C119.016 58.1616 118.833 55.9796 118.833 55.9796L118.753 52.74L116.188 50.9551L110.574 51.6489L110.81 53.6259Z" fill="#F7A588"/>
<path fill-rule="evenodd" clip-rule="evenodd" d="M118.459 53.6527C118.459 53.6527 119.149 52.64 120.083 53.2248C121.017 53.8093 119.881 56.6759 118.355 55.6365L118.459 53.6527Z" fill="#F7A588"/>
<path fill-rule="evenodd" clip-rule="evenodd" d="M120.72 43.7319C120.251 43.0377 119.498 42.5523 118.597 42.3645C117.639 42.1648 116.628 42.3283 115.824 42.8125C114.27 43.7475 113.897 45.6349 114.956 47.2035C115.653 48.2272 116.739 48.7839 117.842 48.7839C118.424 48.7839 119.011 48.6288 119.547 48.3053C120.351 47.8215 120.933 47.026 121.143 46.1222C121.341 45.2734 121.191 44.4241 120.72 43.7319Z" fill="#ECC478"/>
<path fill-rule="evenodd" clip-rule="evenodd" d="M110.01 50.7672L109.906 53.4524C110.128 53.4974 110.519 53.5412 110.926 53.3812C111.61 53.1126 112.054 52.3814 112.051 51.5322C112.123 51.6404 113.716 53.9108 116.36 53.7812C117.744 53.7134 118.71 53.023 119.081 52.7251C118.309 51.387 117.537 50.049 116.765 48.7109C114.513 49.3963 112.261 50.0818 110.01 50.7672Z" fill="#ECC478"/>
<path fill-rule="evenodd" clip-rule="evenodd" d="M130.772 100.284C130.715 100.284 130.658 100.267 130.609 100.232C130.489 100.147 130.464 99.9859 130.555 99.8724C130.598 99.8175 131.641 98.5183 132.8 97.9724C132.935 97.9091 133.098 97.9605 133.165 98.0874C133.233 98.2143 133.178 98.3686 133.043 98.4322C131.999 98.9245 131.001 100.168 130.991 100.181C130.937 100.248 130.855 100.284 130.772 100.284Z" fill="#DD4719"/>
<path fill-rule="evenodd" clip-rule="evenodd" d="M45.5304 166.625C46.3735 165.633 50.6572 169.214 49.3259 170.203C47.6743 171.43 45.0667 175.169 45.1265 175.823C45.7763 182.933 40.1953 173.098 40.1953 173.098L40.9858 170.776C40.9858 170.776 41.8141 170.996 45.5304 166.625Z" fill="#F7A588"/>
<path fill-rule="evenodd" clip-rule="evenodd" d="M42.9141 180.268C43.3095 180.79 43.6779 181.256 44.0188 181.673C43.6779 181.256 43.3095 180.79 42.9141 180.268ZM46.7952 183.185C46.357 180.888 45.6264 176.992 45.5852 176.346C45.5852 176.346 45.5821 176.149 45.5982 175.876C45.5982 175.876 44.3954 175.743 43.7555 175.658C43.5785 175.635 43.4157 175.75 43.3909 175.914C43.3909 175.914 43.3909 175.96 43.3905 176.033C43.3905 176.033 43.349 176.032 43.2788 176.023C42.6869 175.948 42.1969 175.563 41.9597 175.046C41.5745 174.207 41.2016 172.878 40.9884 170.775C39.9069 170.95 38.3476 171.227 37.4804 172.056C36.18 173.298 36 173.485 36 173.485C36 173.485 41.2779 182.014 44.9964 185.884L45.4872 185.651C46.4547 185.192 46.9866 184.19 46.7952 183.185Z" fill="#112346"/>
<path fill-rule="evenodd" clip-rule="evenodd" d="M81.2141 125.941C81.1897 126.501 81.2431 127.062 81.3723 127.609L82.1293 130.81C82.2185 131.188 82.2372 131.578 82.1846 131.966L81.7514 134.339C81.7152 134.618 81.4108 134.812 81.1096 134.749C80.8648 134.699 80.7069 134.492 80.7397 134.266L81.1134 132.471L80.6733 133.342C80.5879 133.511 80.4651 133.664 80.3126 133.792L79.7192 134.288C79.4934 134.477 79.1441 134.463 78.9569 134.257L78.7792 134.062L78.7452 134.084C78.4825 134.258 78.1213 134.21 77.9433 133.98C77.7835 133.773 77.8243 133.487 78.0386 133.309C78.497 132.928 79.2242 132.323 79.3195 132.234C79.4599 132.105 79.5224 130.249 79.307 129.826C79.0911 129.404 78.6793 129.702 78.6793 129.702L78.2441 130.895C78.1259 131.22 77.6805 131.363 77.3926 131.157C77.3872 131.153 77.3823 131.149 77.3769 131.146C77.2305 131.037 77.1661 130.857 77.2076 130.686L77.568 129.199L77.1752 127.019C77.0253 125.674 78.4329 125.204 78.5729 125.137L78.7304 122.873H81.449L81.2141 125.941Z" fill="#F7A588"/>
<path fill-rule="evenodd" clip-rule="evenodd" d="M73.2098 96.4505C73.179 96.6692 71.9766 95.3224 71.9766 95.3224C71.9766 95.3224 75.7782 95.2035 76.6603 96.7569C77.3532 97.9768 82.0022 106.619 82.4663 109.134C82.9308 111.649 82.2135 124.235 82.2135 124.235L77.164 123.47L75.5925 108.002L73.2098 96.4505Z" fill="#ECC478"/>
<path fill-rule="evenodd" clip-rule="evenodd" d="M95.9779 96.6749C96.0191 96.4733 95.8639 96.2813 95.6507 96.2394L93.0922 95.7353L94.7671 95.4294L96.6083 95.6405C96.8302 95.666 97.0522 95.5448 97.1136 95.3422C97.1845 95.1067 97.0354 94.8731 96.7955 94.8145L95.343 94.5181L96.8828 94.5824C97.1784 94.5946 97.3881 94.3146 97.2775 94.0563C97.1898 93.8517 96.9275 93.6734 96.6937 93.6597L96.5663 93.6521C96.5618 93.2897 96.275 92.9735 95.8788 92.9263L94.7877 92.7963C94.5818 92.7716 94.3732 92.7773 94.1692 92.8135C94.1692 92.8135 90.9975 93.1042 90.538 93.156C90.2085 93.1933 89.6777 93.257 88.5698 93.4429C87.5253 93.6178 85.7658 95.5338 85.3684 97.1279L80.7305 102.413L85.005 103.618C87.4658 99.1814 88.2407 98.1729 88.2407 98.1729C88.9348 98.179 89.6071 97.9428 90.1276 97.51L90.9639 96.6623L95.5607 96.9785C95.7563 96.9919 95.9386 96.8673 95.9779 96.6749Z" fill="#F7A588"/>
<path fill-rule="evenodd" clip-rule="evenodd" d="M63.0627 120.184C63.0627 120.184 59.7385 125.536 57.8566 133.45C57.2117 136.162 56.1962 150.334 56.1962 150.334C51.236 153.031 42.9688 166.801 42.9688 166.801L48.5929 171.742C51.2345 169.747 58.8294 161.678 62.5422 157.419C64.0489 155.69 65.156 153.276 65.7486 151.109L70.0929 137.657L66.991 118.244L63.0627 120.184Z" fill="#CAC4BC"/>
<path fill-rule="evenodd" clip-rule="evenodd" d="M69.4608 176.582C69.6301 175.322 69.7823 173.605 69.8197 171.378C69.8914 167.074 75.7454 171.936 75.7454 171.936C75.7454 171.936 75.4598 173.396 75.2897 174.986C75.1036 176.72 75.0548 178.609 75.6646 178.928C82.2844 182.39 70.5122 181.262 70.5122 181.262L68.9102 179.347C68.9102 179.347 69.2053 178.484 69.4608 176.582Z" fill="#F7A588"/>
<path fill-rule="evenodd" clip-rule="evenodd" d="M78.3398 183.142C79.0202 183.124 79.6364 183.097 80.1936 183.063C79.6364 183.097 79.0202 183.124 78.3398 183.142ZM83.0711 181.739C80.8048 180.799 76.9676 179.195 76.3754 178.866C76.3754 178.866 76.2011 178.759 75.9696 178.594C75.9696 178.594 75.1806 179.46 74.749 179.913C74.63 180.038 74.6399 180.23 74.7707 180.341C74.7707 180.341 74.8107 180.367 74.8752 180.408C74.8752 180.408 74.8508 180.44 74.8039 180.489C74.4073 180.91 73.7952 181.079 73.2079 180.976C72.2538 180.808 70.8767 180.358 68.9067 179.35C68.4563 180.294 67.8294 181.668 68.0746 182.808H68.0742C68.4418 184.519 68.5063 184.765 68.5063 184.765C68.5063 184.765 78.959 185.399 84.4421 184.652L84.5111 184.138C84.6468 183.126 84.0622 182.15 83.0711 181.739Z" fill="#112346"/>
<path fill-rule="evenodd" clip-rule="evenodd" d="M74.5018 117.51C74.5018 117.51 74.2631 118.52 73.9035 120.029L74.8676 119.828L77.3616 118.216C77.3616 118.216 79.0628 141.584 77.3196 151.609L77.6468 157.907C77.675 159.896 77.5782 161.885 77.357 163.863L76.0463 175.58L68.7904 175.353C68.7904 175.353 66.6426 158.397 68.6752 150.938L68.0414 138.861L67.0469 118.243L74.5018 117.51Z" fill="#CAC4BC"/>
<path fill-rule="evenodd" clip-rule="evenodd" d="M64.9122 93.7045L65.427 91.8281C67.7418 93.0431 70.8948 92.9433 70.8948 92.9433C70.4535 94.1202 70.2606 95.3615 70.2606 95.3615L70.2564 95.3165C70.2564 95.3165 71.4332 100.679 64.4652 94.7965H64.4648C64.6567 94.4517 64.8077 94.0855 64.9122 93.7045Z" fill="#F7A588"/>
<path fill-rule="evenodd" clip-rule="evenodd" d="M60.4776 116.569C59.4502 110.92 57.1865 103.754 57.9397 101.377C58.9388 98.2269 61.1842 97.8669 63.1234 96.3574C63.6805 95.9238 64.1351 95.3912 64.4665 94.7949C66.3179 96.1311 67.5809 96.73 68.4428 96.9094C70.3339 97.3034 70.2881 95.6739 70.2626 95.3653C70.2599 95.3333 70.2576 95.315 70.2576 95.315C70.2576 95.315 70.2733 95.3298 70.2965 95.3523C73.0014 95.2548 74.0391 95.2605 75.0393 96.7647C75.0393 96.7647 77.8422 113.064 77.0918 112.294C77.5124 116.615 77.7873 120.884 77.7976 121.556C71.3204 123.561 60.2465 123.466 60.2465 123.466C60.2465 123.466 61.3257 121.234 60.4776 116.569Z" fill="#ECC478"/>
<path fill-rule="evenodd" clip-rule="evenodd" d="M65.4258 91.8274L65.5551 91.3561L65.8487 89.3242C65.8487 89.3242 71.7932 90.889 71.4511 91.5633C71.3344 91.7935 71.1224 92.3326 70.8936 92.9425C70.8936 92.9425 67.7409 93.0424 65.4258 91.8274Z" fill="#F17C63"/>
<path fill-rule="evenodd" clip-rule="evenodd" d="M72.9421 83.2441C73.0725 83.7573 73.1797 84.2747 73.264 84.7966C73.5313 86.4494 74.0686 90.0791 73.8428 91.264C73.5469 92.817 71.7397 93.0459 69.4852 92.383C67.231 91.7197 66.5488 89.3491 66.5488 89.3491L65.3594 85.8977L66.3074 81.4023L72.5722 81.7875L72.9421 83.2441Z" fill="#F7A588"/>
<path fill-rule="evenodd" clip-rule="evenodd" d="M73.2091 87.9014C73.8094 87.9417 74.2372 87.696 74.4805 87.4975C74.614 87.3889 74.5995 87.2297 74.4668 87.118C73.6336 86.4155 73.4406 85.8836 73.4406 85.8836L72.2188 85.8066L73.2091 87.9014Z" fill="#F38574"/>
<path fill-rule="evenodd" clip-rule="evenodd" d="M76.465 113.65C71.8778 112.214 64.8915 108.917 61.2698 107.016C60.2077 106.458 59.339 105.628 58.7621 104.62C58.7293 104.562 58.7003 104.503 58.6694 104.445C58.2995 103.404 58.4375 102.285 59.2952 101.046C60.3035 99.5903 62.2693 99.388 63.9137 100.171L76.6667 106.242L83.4845 97.9551L87.9398 100.61C87.9398 100.61 81.6559 112.81 79.7823 113.539C78.7253 113.951 77.5492 113.989 76.465 113.65Z" fill="#ECC478"/>
<path fill-rule="evenodd" clip-rule="evenodd" d="M76.7206 106.456L65.7812 101.247L65.9456 100.941L76.6169 106.022L78.6106 103.599L78.8981 103.809L76.7206 106.456Z" fill="#E0B373"/>
<path fill-rule="evenodd" clip-rule="evenodd" d="M77.9681 114.049C77.4426 114.049 76.916 113.97 76.4092 113.811C71.7518 112.354 64.7517 109.037 61.1827 107.164C60.0898 106.59 59.1978 105.738 58.6033 104.7C58.5804 104.66 58.5594 104.619 58.5384 104.579L58.5083 104.52C58.0854 103.336 58.2967 102.175 59.1444 100.951L59.4487 101.139C58.6658 102.269 58.4679 103.333 58.8431 104.389L58.8653 104.429C58.8843 104.465 58.903 104.502 58.9232 104.537C59.4849 105.518 60.3273 106.323 61.3597 106.865C64.9165 108.731 71.8902 112.035 76.5236 113.486C77.5677 113.812 78.7003 113.775 79.7143 113.38C80.0446 113.251 80.763 112.593 82.3105 110.189L82.6217 110.367C81.3198 112.389 80.4145 113.478 79.8535 113.696C79.251 113.931 78.6103 114.049 77.9681 114.049Z" fill="#E0B373"/>
<path fill-rule="evenodd" clip-rule="evenodd" d="M72.9111 79.1475C72.4676 78.9273 71.9596 79.1674 71.5375 79.4954C70.8675 80.0158 70.0521 80.2589 69.2383 80.1408C67.3461 79.8657 64.1702 79.751 63.7549 81.9761C63.7549 81.9761 63.6699 82.2694 63.4872 82.3106C63.4872 82.3106 61.2987 82.6569 61.4146 84.291C61.4249 84.4373 61.4585 84.5977 61.5008 84.7627L61.4958 84.7592C61.5877 85.3563 61.9801 86.2684 62.3481 87.0284C62.7871 87.9348 63.3339 88.7886 63.9754 89.5803C64.4242 90.1343 64.989 90.7938 65.5568 91.3573C65.7818 91.2674 66.3351 91.0129 66.7153 90.433C66.7657 90.3572 67.3884 89.3796 66.9781 88.5943C66.6158 87.9009 65.7204 87.8621 65.3722 87.5641C65.4615 87.5302 65.4767 87.4963 65.4748 87.4902C65.1739 86.5023 65.3829 85.6283 66.2917 85.6599L67.4136 86.3579C67.4136 86.3579 67.8315 86.1243 67.9475 85.7258C69.2147 85.6961 70.4076 85.4096 70.5395 84.459C70.557 84.3321 70.5521 84.2205 70.5292 84.1211C71.2278 84.0555 72.5709 83.8662 73.1555 83.3541C74.2676 82.3803 73.8881 79.6326 72.9111 79.1475Z" fill="#CA523D"/>
<path fill-rule="evenodd" clip-rule="evenodd" d="M67.4157 86.3589C67.4157 86.3589 66.7213 84.8841 65.4552 85.456C64.1892 86.0279 65.3332 89.549 67.4104 88.515L67.4157 86.3589Z" fill="#F7A588"/>
<path fill-rule="evenodd" clip-rule="evenodd" d="M77.4558 118.86L77.1484 113.848L77.5111 113.828L77.8188 118.84L77.4558 118.86Z" fill="#E0B373"/>
</g>
</svg>
