<?xml version="1.0" encoding="UTF-8"?>
<svg width="272" height="198" viewBox="0 0 272 198" fill="none" xmlns="http://www.w3.org/2000/svg">
<path fill-rule="evenodd" clip-rule="evenodd" d="M105.086 5.40565C99.6683 5.95291 92.7446 7.71189 91.2142 13.0369C91.2142 13.0369 60.6647 11.0546 64.6184 39.7119C64.6184 39.7119 54.7069 53.6578 68.7141 69.3995C74.7998 76.2395 85.7018 80.4046 85.7018 80.4046C85.7018 80.4046 100.106 76.5227 102.5 62.8731L103.595 56.0109L103.564 48.7732L102.726 38.107C102.726 38.107 112.934 30.9523 115.048 28.1591C116.712 25.9586 121.655 19.7919 117.481 11.9186C115.096 7.41713 110.151 4.89413 105.086 5.40565Z" fill="#CA523E"/>
<path d="M61.8604 30.6431C61.8604 30.6431 63.3915 39.7835 65.6428 40.4453" stroke="#CA523E" stroke-width="3.10207" stroke-linecap="round" stroke-linejoin="round"/>
<path fill-rule="evenodd" clip-rule="evenodd" d="M168.127 150.868C177.106 152.892 185.673 154.515 192.191 154.221C195.868 154.056 199.221 152.1 201.206 148.997C210.91 133.825 225.636 89.4934 225.636 89.4934L190.925 79.3384L180.724 118.248C169.188 114.598 138.296 98.5528 117.28 98.4179C117.28 98.4179 114.703 102.665 106.43 103.237C91.0421 104.302 83.0947 98.057 83.0947 98.057C77.3112 98.8141 69.3451 101.007 62.7949 104.282C47.8133 111.77 42.2103 126.7 37.2748 138.807C24.199 170.885 22.4214 183.263 25.2107 191.166C27.6409 198.051 35.4136 200.62 44.8866 202.237C54.9471 203.955 95.2085 209.929 95.2085 209.929L96.4435 199.453L143.73 199.381L168.127 150.868Z" fill="#6DB4C0"/>
<path fill-rule="evenodd" clip-rule="evenodd" d="M143.747 136.626C143.747 136.626 154.608 152.96 164.783 157.515L168.126 150.867C177.105 152.891 185.672 154.514 192.19 154.22C195.867 154.055 199.22 152.099 201.204 148.997C201.501 148.534 201.801 148.043 202.106 147.528C192.33 150.427 165.589 146.493 143.747 136.626Z" fill="#6DB4C0"/>
<path fill-rule="evenodd" clip-rule="evenodd" d="M34.6131 189.101C31.7927 181.153 32.6274 166.61 39.9316 145.462C42.057 139.308 50.143 115.898 54.666 109.756C53.3131 111.003 52.4097 111.887 51.5781 112.785C47.9599 116.693 47.4973 117.972 45.9332 120.356C42.2271 126.389 39.6709 132.929 37.2752 138.806C24.1994 170.884 22.4218 183.261 25.2111 191.164C27.6409 198.05 35.4139 200.618 44.887 202.236C54.9474 203.953 95.2088 209.927 95.2088 209.927L95.6646 206.063C95.6646 206.063 39.057 201.623 34.6131 189.101Z" fill="#6DB4C0"/>
<path fill-rule="evenodd" clip-rule="evenodd" d="M154.978 147.701C154.891 147.701 154.808 147.648 154.776 147.561C154.735 147.449 154.791 147.326 154.903 147.284C166.256 143.045 177.712 127.129 180.307 118.462C180.341 118.349 180.461 118.284 180.575 118.318C180.689 118.352 180.754 118.472 180.719 118.586C179.42 122.925 175.789 129.176 171.47 134.512C166.198 141.024 160.368 145.703 155.053 147.687C155.028 147.697 155.003 147.701 154.978 147.701Z" fill="#FEFEFE"/>
<path fill-rule="evenodd" clip-rule="evenodd" d="M194.442 154.103H194.437C194.319 154.101 194.224 154.002 194.227 153.883C194.349 147.997 192.924 139.986 190.416 132.453C187.772 124.513 184.443 118.698 181.28 116.502C181.183 116.434 181.158 116.3 181.226 116.202C181.294 116.104 181.428 116.08 181.526 116.148C184.762 118.396 188.152 124.29 190.824 132.317C193.347 139.895 194.78 147.96 194.657 153.892C194.655 154.01 194.559 154.103 194.442 154.103Z" fill="#FEFEFE"/>
<path fill-rule="evenodd" clip-rule="evenodd" d="M213.739 125.129C213.661 125.129 213.585 125.086 213.547 125.012C206.596 111.431 186.66 104.335 184.409 103.571C184.297 103.533 184.236 103.411 184.275 103.298C184.313 103.186 184.435 103.125 184.547 103.163C186.974 103.988 193.334 106.367 199.96 110.646C206.619 114.947 211.319 119.715 213.93 124.815C213.984 124.921 213.942 125.051 213.837 125.105C213.805 125.121 213.772 125.129 213.739 125.129Z" fill="#FEFEFE"/>
<path fill-rule="evenodd" clip-rule="evenodd" d="M220.22 103.582C220.163 103.582 220.106 103.559 220.063 103.514C213.88 96.9155 199.58 90.3199 188.649 87.2147C188.535 87.1824 188.469 87.0633 188.501 86.9488C188.533 86.8346 188.653 86.7681 188.767 86.8008C194.319 88.378 200.632 90.8353 206.087 93.5428C212.474 96.7126 217.415 100.059 220.377 103.22C220.458 103.306 220.454 103.443 220.367 103.524C220.326 103.563 220.273 103.582 220.22 103.582Z" fill="#FEFEFE"/>
<path fill-rule="evenodd" clip-rule="evenodd" d="M98.5544 120.958C81.779 120.958 64.895 117.531 52.5763 111.535C52.4692 111.483 52.425 111.354 52.4769 111.247C52.5287 111.14 52.6573 111.095 52.7644 111.147C66.2246 117.7 85.1695 121.17 103.443 120.429C123.271 119.625 139.124 114.193 148.083 105.134C148.166 105.049 148.303 105.048 148.387 105.132C148.472 105.216 148.472 105.352 148.389 105.437C143.726 110.152 137.22 113.896 129.052 116.564C121.498 119.032 112.887 120.477 103.46 120.859C101.829 120.925 100.192 120.958 98.5544 120.958Z" fill="#FEFEFE"/>
<path fill-rule="evenodd" clip-rule="evenodd" d="M96.6769 140.739C77.0597 140.739 56.8877 136.751 40.8365 129.51C40.7282 129.461 40.6798 129.334 40.7286 129.225C40.7773 129.117 40.9052 129.069 41.0131 129.117C60.3561 137.843 85.7077 141.829 108.828 139.78C134.836 137.475 155.549 127.907 167.153 112.838C167.226 112.744 167.361 112.727 167.455 112.799C167.549 112.872 167.567 113.007 167.494 113.101C161.386 121.034 152.897 127.425 142.263 132.099C132.523 136.38 121.287 139.108 108.866 140.209C104.856 140.564 100.778 140.739 96.6769 140.739Z" fill="#FEFEFE"/>
<path fill-rule="evenodd" clip-rule="evenodd" d="M95.6221 159.554C73.6982 159.554 51.7007 154.888 34.5107 145.653C34.4063 145.596 34.3667 145.466 34.4232 145.361C34.4792 145.256 34.6097 145.217 34.7142 145.273C51.8447 154.477 73.7719 159.128 95.6201 159.128C115.458 159.128 135.231 155.296 151.309 147.56C151.416 147.508 151.544 147.553 151.596 147.66C151.647 147.767 151.602 147.896 151.495 147.948C135.366 155.709 115.524 159.554 95.6221 159.554Z" fill="#FEFEFE"/>
<path fill-rule="evenodd" clip-rule="evenodd" d="M63.1199 172.573C63.1057 172.573 63.0911 172.571 63.0765 172.568C56.6876 171.263 50.552 169.501 44.8403 167.332C38.9608 165.1 33.5075 162.426 28.6328 159.387C28.5318 159.324 28.5011 159.191 28.5641 159.09C28.6266 158.989 28.7595 158.958 28.8605 159.021C38.4038 164.972 50.2652 169.51 63.1629 172.146C63.2792 172.17 63.3541 172.284 63.3307 172.4C63.3096 172.502 63.2201 172.573 63.1199 172.573Z" fill="#FEFEFE"/>
<path fill-rule="evenodd" clip-rule="evenodd" d="M219.825 71.5636C221.183 70.3865 222.434 69.4034 228.765 65.2732C235.095 61.143 241.976 54.4891 242.602 51.1867C242.72 50.5599 242.703 49.9538 242.546 49.528C243.957 47.7129 245.063 46.1668 245.434 45.1538C246.129 43.2526 245.88 40.6339 243.052 40.2873C243.052 40.2873 244.174 37.8065 242.872 36.6601C241.592 35.5333 239.312 34.3016 236.766 38.2062C235.349 40.3795 234.216 42.1492 233.069 43.4198C233.075 43.2987 234.393 39.9667 234.145 36.5948C233.97 34.2121 229.702 34.0038 228.8 36.8123C227.934 39.506 227.333 42.919 224.536 46.284C222.203 49.0918 220.687 50.7835 216.165 52.9814C214.802 53.644 213.356 52.2447 213.968 50.857C214.213 50.2997 210.507 54.27 210.645 53.913C212.06 50.2501 210.832 38.5541 207.276 37.9085C204.53 37.4096 207.034 43.0404 203.275 50.242C201.859 52.9563 200.051 55.9446 199.263 57.8589C198.324 60.1409 197.075 61.9429 196.271 65.2732C195.344 69.1105 192.462 77.0116 191.531 79.5154C199.205 81.782 206.793 84.0952 212.198 85.5613C212.274 84.9049 212.268 83.2105 212.694 80.9569C213.534 76.5066 217.169 73.866 219.825 71.5636Z" fill="#F7A588"/>
<path fill-rule="evenodd" clip-rule="evenodd" d="M115.443 79.121C116.099 79.0849 116.705 79.0365 117.161 78.9865C123.4 78.3032 127.817 76.3413 128.978 75.1419C131.944 72.0762 133.875 66.6763 129.691 53.7396C132.886 51.7005 133.878 50.2128 133.258 48.4738C132.79 47.1633 131.156 46.2533 128.849 45.3982C127.011 44.7168 124.535 42.723 123.016 39.3745C123.016 39.3745 119.269 31.1141 118.044 28.3502C117.629 27.4147 117.828 27.5358 116.817 25.6377C114.199 29.2748 103.013 29.515 98.9721 35.5433C95.4377 40.8157 97.78 49.4307 92.1378 51.1213C91.1719 51.0821 90.1817 51.2359 89.2223 51.6071C85.4732 53.0571 83.6081 57.2749 85.0567 61.0277C86.0065 63.4881 88.0471 65.1817 90.4374 65.5895C90.5219 65.6037 90.6067 65.6168 90.692 65.6279C89.2288 72.1912 87.2305 78.9616 85.7009 80.4046C86.048 86.009 85.0713 92.384 83.084 98.0291C82.8687 98.6413 93.1353 104.942 109.109 102.995C116.339 102.114 117.279 98.4165 117.279 98.4165C115.258 93.7041 114.844 84.8784 115.443 79.121Z" fill="#F7A588"/>
<path fill-rule="evenodd" clip-rule="evenodd" d="M88.0013 58.6962C87.6423 58.6962 87.3474 58.4083 87.3398 58.0475C87.3114 56.6582 87.8481 55.3884 88.8125 54.5637C89.7746 53.7409 91.065 53.4242 92.4464 53.6721C92.8061 53.7367 93.0457 54.081 92.9812 54.4411C92.9163 54.8016 92.5723 55.041 92.213 54.9765C91.2293 54.8001 90.3271 55.011 89.6721 55.571C89.0106 56.1367 88.6428 57.0294 88.6632 58.0202C88.6708 58.3857 88.3806 58.6885 88.0151 58.6962C88.0105 58.6962 88.0059 58.6962 88.0013 58.6962Z" fill="#CD5649"/>
<path fill-rule="evenodd" clip-rule="evenodd" d="M120.563 66.1945C119.252 66.1945 117.966 65.9397 116.834 65.3371C116.511 65.1653 116.389 64.7645 116.561 64.4413C116.732 64.1181 117.133 63.9955 117.456 64.1673C120.037 65.5408 123.765 64.688 126.138 63.3141C126.454 63.1312 126.859 63.2392 127.042 63.5558C127.225 63.8725 127.117 64.278 126.801 64.4613C125.062 65.4678 122.776 66.1945 120.563 66.1945Z" fill="#CD5649"/>
<path fill-rule="evenodd" clip-rule="evenodd" d="M115.443 79.1202C113.3 79.3327 107.945 78.8412 106.121 78.3823C107.687 80.1986 113.041 82.5705 115.224 82.4184C115.237 82.064 115.443 79.1202 115.443 79.1202Z" fill="#E0876F"/>
<path fill-rule="evenodd" clip-rule="evenodd" d="M71.0026 148.859C71.1251 148.514 71.5037 148.334 71.848 148.456C72.1924 148.579 72.3721 148.958 72.2496 149.303L63.3594 174.332C63.263 174.603 63.0081 174.772 62.7359 174.772C62.6622 174.772 62.5873 174.76 62.5144 174.734C62.17 174.611 61.9899 174.233 62.1124 173.888" fill="#63A0A7"/>
<path fill-rule="evenodd" clip-rule="evenodd" d="M155.234 201.556H110.062C109.874 201.556 109.737 201.38 109.782 201.198L124.737 140.715C124.768 140.586 124.884 140.495 125.017 140.495H170.189C170.376 140.495 170.513 140.671 170.469 140.853L155.514 201.336C155.482 201.465 155.366 201.556 155.234 201.556Z" fill="#394D6B"/>
<path fill-rule="evenodd" clip-rule="evenodd" d="M159.078 140.495L160.133 136.22C160.166 136.085 160.064 135.954 159.925 135.954H137.914C137.74 135.954 137.588 136.073 137.546 136.242L136.497 140.495H159.078Z" fill="#EBC378"/>
<path fill-rule="evenodd" clip-rule="evenodd" d="M99.4806 176.822C101.416 176.751 107.522 170.127 111.871 168.684C113.939 167.997 116.253 167.496 118.227 167.094L116.467 174.225C121.289 174.319 132.764 173.818 136.994 174.404C139.299 174.724 142.902 175.243 143.589 176.726C144.641 179 143.311 180.818 141.328 180.919C146.402 181.558 145.591 184.445 145.317 185.214C144.785 186.705 143.011 186.853 141.287 186.888C142.596 188.089 142.518 189.897 141.981 190.687C140.794 192.436 137.632 192.155 136.285 192.266C137.614 193.185 137.811 194.309 137.692 195.172C137.479 196.711 135.437 197.287 131.923 197.409C126.44 197.598 123.272 197.991 116.145 197.648C111.325 197.416 97.1797 195.988 97.1797 195.988L99.4806 176.822Z" fill="#F7A588"/>
<path fill-rule="evenodd" clip-rule="evenodd" d="M141.001 181.581C140.976 181.581 140.951 181.58 140.925 181.577C138.866 181.342 128.91 180.911 128.81 180.907C128.445 180.891 128.162 180.582 128.178 180.216C128.193 179.851 128.502 179.566 128.867 179.583C129.279 179.6 138.97 180.02 141.075 180.26C141.438 180.302 141.699 180.63 141.658 180.994C141.619 181.332 141.333 181.581 141.001 181.581Z" fill="#CD5649"/>
<path fill-rule="evenodd" clip-rule="evenodd" d="M141.107 187.533C141.094 187.533 141.082 187.533 141.07 187.532C137.715 187.348 128.902 186.871 128.413 186.871C128.047 186.871 127.751 186.574 127.751 186.208C127.751 185.842 128.047 185.545 128.413 185.545C129.038 185.545 140.648 186.182 141.142 186.209C141.507 186.229 141.787 186.542 141.767 186.907C141.747 187.26 141.456 187.533 141.107 187.533Z" fill="#CD5649"/>
<path fill-rule="evenodd" clip-rule="evenodd" d="M136.615 192.914C136.608 192.914 136.6 192.914 136.592 192.914C135.61 192.88 126.633 192.505 126.543 192.501C126.177 192.486 125.894 192.177 125.909 191.812C125.924 191.456 126.217 191.177 126.57 191.177C126.579 191.177 126.589 191.177 126.598 191.177C126.689 191.181 135.66 191.556 136.638 191.59C137.003 191.602 137.289 191.909 137.276 192.275C137.264 192.633 136.97 192.914 136.615 192.914Z" fill="#CD5649"/>
<path fill-rule="evenodd" clip-rule="evenodd" d="M202.59 71.571C202.547 71.571 202.503 71.5667 202.459 71.5579C202.1 71.4853 201.869 71.1359 201.941 70.7774C203.116 64.9416 207.831 62.9524 212.751 61.6723C213.724 61.4194 214.734 61.1692 215.711 60.9271C220.023 59.8591 224.481 58.755 227.088 57.0748C230.229 55.0506 234.306 51.4846 236.766 49.0277C238.46 47.3348 241.058 47.0105 242.44 48.319C242.705 48.5704 242.717 48.9897 242.465 49.2556C242.214 49.5212 241.795 49.5327 241.53 49.2813C240.768 48.5596 238.969 48.6987 237.701 49.9654C235.193 52.4704 231.027 56.1125 227.805 58.1889C225.013 59.9882 220.446 61.1193 216.029 62.2134C215.056 62.4544 214.049 62.7038 213.084 62.9547C207.879 64.309 204.213 66.2022 203.238 71.0395C203.175 71.3538 202.899 71.571 202.59 71.571Z" fill="#CD5649"/>
<path fill-rule="evenodd" clip-rule="evenodd" d="M224.314 52.9557C224.126 52.9557 223.938 52.8758 223.808 52.7201C223.572 52.4403 223.607 52.0226 223.887 51.7866C226.55 49.5392 230.722 45.5016 233.72 41.5186C233.94 41.2265 234.355 41.1681 234.647 41.3883C234.939 41.6085 234.997 42.0236 234.777 42.3161C231.717 46.3828 227.586 50.3981 224.74 52.7997C224.616 52.9046 224.464 52.9557 224.314 52.9557Z" fill="#CD5649"/>
<path fill-rule="evenodd" clip-rule="evenodd" d="M226.586 56.0297C227.398 55.7707 233.682 50.5721 236.393 47.488C237.133 46.6464 237.753 45.7982 238.352 44.9781C239.842 42.937 241.019 41.3252 243.169 40.9398C243.529 40.8752 243.768 40.5308 243.704 40.1707C243.639 39.8106 243.295 39.5712 242.936 39.6354C240.263 40.1146 238.815 42.0969 237.283 44.196C236.702 44.9927 236.1 45.8163 235.4 46.6129C232.664 49.7251 226.81 54.4417 226.152 54.7788C225.824 54.9021 225.647 55.2622 225.755 55.6C225.844 55.8817 226.105 56.0612 226.385 56.0612C226.452 56.0612 226.519 56.0512 226.586 56.0297Z" fill="#CD5649"/>
<path fill-rule="evenodd" clip-rule="evenodd" d="M96.5008 199.633C96.4751 199.633 96.449 199.631 96.4225 199.628C96.0593 199.585 95.7998 199.256 95.8428 198.893L96.2052 195.818C96.2482 195.454 96.5768 195.195 96.94 195.237C97.3032 195.28 97.5628 195.61 97.5198 195.973L97.1573 199.048C97.1174 199.385 96.8318 199.633 96.5008 199.633Z" fill="#3F449B"/>
<mask id="mask0_636_6246" style="mask-type:luminance" maskUnits="userSpaceOnUse" x="24" y="174" width="36" height="8">
<path fill-rule="evenodd" clip-rule="evenodd" d="M59.9319 174.884H24.0005V181.337H59.9319V174.884Z" fill="white"/>
</mask>
<g mask="url(#mask0_636_6246)">
<path fill-rule="evenodd" clip-rule="evenodd" d="M28.6572 181.337C26.9764 181.337 25.4718 181.277 24.1975 181.168C24.0789 181.158 23.991 181.054 24.0013 180.936C24.0113 180.818 24.115 180.73 24.2336 180.74C31.7655 181.378 47.4067 180.351 59.6291 174.903C59.7377 174.855 59.8648 174.903 59.9132 175.012C59.9616 175.121 59.9128 175.248 59.8042 175.296C49.5759 179.855 36.9689 181.337 28.6572 181.337Z" fill="#FEFEFE"/>
</g>
<path fill-rule="evenodd" clip-rule="evenodd" d="M51.5594 203.531C51.4891 203.531 51.4204 203.497 51.3793 203.434C51.3141 203.334 51.3421 203.201 51.4415 203.136C54.3747 201.216 57.7368 196.939 60.908 191.093C63.7602 185.835 66.1878 179.757 67.4022 174.834C67.4306 174.718 67.5473 174.648 67.6625 174.676C67.7777 174.705 67.8483 174.822 67.8199 174.937C65.3163 185.087 58.0708 199.312 51.6769 203.496C51.6404 203.52 51.5997 203.531 51.5594 203.531Z" fill="#FEFEFE"/>
<path fill-rule="evenodd" clip-rule="evenodd" d="M77.2411 207.456C77.2054 207.456 77.1689 207.447 77.1355 207.429C77.0322 207.37 76.9954 207.239 77.0537 207.135C81.2309 199.714 84.0378 187.401 84.0378 176.494C84.0378 176.376 84.1338 176.279 84.2528 176.279C84.3714 176.279 84.4678 176.376 84.4678 176.494C84.4678 187.468 81.639 199.866 77.4288 207.346C77.3893 207.417 77.3163 207.456 77.2411 207.456Z" fill="#FEFEFE"/>
<path fill-rule="evenodd" clip-rule="evenodd" d="M99.1503 177.159C99.1365 177.159 99.123 177.158 99.1092 177.157C98.7679 177.136 64.7883 175.057 47.9704 174.363C47.6049 174.348 47.3212 174.039 47.3361 173.674C47.3511 173.308 47.6621 173.025 48.0249 173.039C64.8559 173.733 98.8489 175.814 99.1902 175.835C99.555 175.857 99.8325 176.171 99.8103 176.536C99.7888 176.888 99.4974 177.159 99.1503 177.159Z" fill="#63A0A7"/>
<path fill-rule="evenodd" clip-rule="evenodd" d="M215.661 14.509C215.823 13.7598 216.004 11.832 216.004 11.832L214.056 11.9635L213.822 14.4049L214.997 15.4892L215.661 14.509Z" fill="#E7A89E"/>
<path fill-rule="evenodd" clip-rule="evenodd" d="M216.235 14.8252C216.447 14.8023 216.336 14.9874 216.372 15.3072C216.454 16.0395 218.975 15.5915 219.373 15.6182C219.578 15.6323 220.005 16.6481 218.999 16.7406C218.129 16.8206 215.164 17.0435 214.218 16.9109C214.02 16.8835 213.864 16.7266 213.842 16.5281C213.759 15.8203 213.944 14.7623 214.212 14.7742C214.628 14.6979 215.352 14.9185 216.235 14.8252Z" fill="#191B28"/>
<path fill-rule="evenodd" clip-rule="evenodd" d="M218.981 72.5424C204.391 72.5424 192.013 71.1456 192.003 69.8676C191.998 69.1804 195.57 68.6629 201.145 68.3102C201.038 68.7027 201.19 69.0645 201.56 69.3962C203.468 71.1037 211.163 71.99 218.943 71.99H218.945C218.946 71.99 218.946 71.99 218.947 71.99C228.162 71.9893 237.491 70.7462 237.445 68.1538C243.868 68.5505 247.997 69.2035 248.003 69.9675C248.014 71.2881 235.682 72.439 220.46 72.5382C219.964 72.541 219.472 72.5424 218.981 72.5424Z" fill="#EFC778"/>
<path fill-rule="evenodd" clip-rule="evenodd" d="M242.399 11.9558C241.924 16.9702 236 21.9824 234.885 22.8866C234.524 23.0739 234.675 17.3952 234.728 14.1765C234.75 12.7734 235.409 11.4867 236.457 10.8233C239.195 9.08573 242.858 7.53779 242.399 11.9558ZM206.009 22.7648C204.788 22.5398 198.876 16.8438 198.321 11.9395C197.829 7.16872 202.14 9.35827 204.9 11.2304C205.586 11.6955 206.011 12.5557 206.011 13.4914C206.01 16.4314 206.009 22.7648 206.009 22.7648ZM246.864 5.2602C246.821 5.16639 246.771 5.07849 246.723 4.99507C246.674 4.91614 246.619 4.84169 246.562 4.77016C244.636 2.35287 239.247 5.98553 235.762 7.88768C235.381 8.09465 234.954 7.78616 234.916 7.29196C234.84 6.35044 234.141 5.28105 233.309 4.86404C233.18 4.80148 233.05 4.7508 232.917 4.72105C232.885 4.71208 232.851 4.7046 232.818 4.70169C232.783 4.69571 232.751 4.69272 232.719 4.69123C232.62 4.68225 232.517 4.67336 232.406 4.66589C232.395 4.66297 232.386 4.66297 232.376 4.66297C232.217 4.654 232.046 4.64354 231.861 4.63165C231.534 4.61528 231.17 4.60191 230.77 4.58845C230.69 4.58546 230.609 4.58255 230.526 4.57948C230.372 4.57657 230.215 4.57059 230.055 4.5661C229.956 4.5661 229.853 4.56311 229.748 4.5602C229.659 4.55721 229.566 4.55721 229.473 4.55422C229.293 4.54824 229.102 4.54674 228.909 4.54383H228.774C224.61 4.47599 218.573 4.52384 213.994 4.57169C210.521 4.60797 207.887 4.64424 207.546 4.63016C206.701 4.59294 206.012 5.43592 206.012 6.43685C205.935 9.07598 203.368 7.44227 200.575 5.80807C196.973 3.70116 192.997 1.59424 193.499 8.64709C194.039 14.6036 200.775 22.6927 204.145 25.2157C205.227 26.0286 206.008 27.3097 206.31 28.7845C207.413 34.1744 211.426 38.2256 216.277 38.4955C216.401 38.5018 216.523 38.5223 216.642 38.5569C216.76 38.5923 216.876 38.6388 216.985 38.6994C217.206 38.8205 217.401 38.9976 217.554 39.225C218.054 39.9671 217.901 40.8713 217.803 42.3178C217.801 42.3784 217.793 42.4398 217.783 42.4996C217.779 42.5381 217.773 42.5798 217.765 42.6152C217.76 42.6617 217.748 42.7089 217.735 42.7553C217.702 42.9017 217.656 43.0426 217.598 43.174C217.582 43.2188 217.56 43.2605 217.539 43.3023C217.43 43.5242 217.288 43.7233 217.12 43.8885C217.082 43.9247 217.046 43.957 217.008 43.9901H217.005C216.97 44.02 216.934 44.0483 216.899 44.075C216.85 44.1105 216.798 44.1467 216.746 44.175C216.611 44.2537 216.464 44.3151 216.308 44.3536C212.345 45.3413 209.133 49.1344 209.166 54.3078C210.4 68.3188 205.583 60.5688 201.41 67.6318C201.288 68.0866 201.438 68.5045 201.819 68.8878C206.804 73.8967 251.185 72.6305 233.863 63.819C233.847 63.8103 233.829 63.8009 233.813 63.7922C232.732 63.2217 231.936 62.1136 231.665 60.7908C231.633 60.6357 231.61 60.4783 231.593 60.3186C231.576 60.1581 231.567 59.9959 231.565 59.8307C231.564 59.5545 231.562 59.2806 231.562 59.0122C231.561 58.566 231.561 58.1324 231.561 57.7201C231.561 56.2335 231.569 55.0255 231.551 54.4833C231.544 54.3015 231.537 54.1945 231.526 54.1748C231.526 53.9828 231.521 53.7939 231.513 53.6043C231.486 53.0369 231.419 52.4813 231.315 51.9422C230.921 49.9237 230.005 48.1444 228.746 46.805C227.596 45.5836 226.162 44.7322 224.574 44.4056C224.519 44.3922 224.462 44.382 224.404 44.3733C224.307 44.3568 224.209 44.3403 224.11 44.3253C224.071 44.3206 224.03 44.3119 223.988 44.3017C223.95 44.2891 223.908 44.2789 223.872 44.2655C223.796 44.2372 223.722 44.2017 223.654 44.1569C223.582 44.1168 223.517 44.0648 223.456 44.0097C223.145 43.7248 222.947 43.2873 222.924 42.7986C222.893 41.9857 222.907 41.0083 222.921 40.2024C222.923 40.0569 222.926 39.9168 222.926 39.7838C222.926 39.7436 222.929 39.7051 222.934 39.6634C222.939 39.5863 222.952 39.5083 222.975 39.4336C223.1 38.9606 223.46 38.6104 223.9 38.5168L223.916 38.5121C229.054 38.5136 233.355 34.2719 234.441 28.5956C234.7 27.231 235.416 26.0569 236.425 25.3306C239.747 22.9398 246.672 14.7004 247.224 8.66677C247.233 8.56368 247.242 8.46216 247.246 8.363C247.339 6.96112 247.196 5.95429 246.864 5.2602Z" fill="#EFC778"/>
<path fill-rule="evenodd" clip-rule="evenodd" d="M213.092 33.7758C213.036 33.7758 212.979 33.7677 212.923 33.7506C212.291 33.5624 211.686 33.1136 211.127 32.4163C210.841 32.0603 210.839 31.4804 211.122 31.1212C211.406 30.7619 211.867 30.7595 212.153 31.1155C212.52 31.5716 212.892 31.8591 213.26 31.9683C213.651 32.0856 213.893 32.5784 213.8 33.0712C213.721 33.4924 213.421 33.7758 213.092 33.7758Z" fill="#FFFFFE"/>
<path fill-rule="evenodd" clip-rule="evenodd" d="M210.125 30.1183C209.822 30.1183 209.532 29.917 209.405 29.5801C208.981 28.4689 208.729 27.3386 208.729 26.557L208.734 13.4549C208.734 12.9627 209.086 12.564 209.519 12.564C209.954 12.564 210.305 12.9634 210.305 13.4557L210.3 26.557C210.3 26.9629 210.443 27.8134 210.847 28.8739C211.019 29.3257 210.835 29.8496 210.436 30.0454C210.335 30.0945 210.23 30.1183 210.125 30.1183Z" fill="#FFFFFE"/>
<path fill-rule="evenodd" clip-rule="evenodd" d="M224.519 44.017C224.479 44.0084 224.437 44.0013 224.395 43.9951C224.298 43.9786 224.2 43.9622 224.101 43.9473C224.061 43.9426 224.02 43.934 223.979 43.9238C223.967 43.9199 223.955 43.9168 223.943 43.9129C223.955 43.9168 223.967 43.9199 223.979 43.923C224.019 43.9317 224.06 43.9395 224.101 43.945C224.199 43.9591 224.297 43.9755 224.396 43.9943C224.437 44.0006 224.479 44.0084 224.519 44.017ZM223.928 43.9077C223.905 43.9014 223.882 43.8944 223.86 43.8866C223.792 43.8615 223.727 43.831 223.665 43.7926C223.727 43.8286 223.792 43.8592 223.86 43.8866C223.882 43.8944 223.905 43.9014 223.928 43.9077ZM216.732 43.7966L216.733 43.7958C216.736 43.795 216.739 43.7935 216.742 43.7919C216.739 43.7935 216.736 43.795 216.733 43.7966C216.733 43.7966 216.733 43.7966 216.732 43.7966ZM223.624 43.7676C223.559 43.7292 223.5 43.6823 223.444 43.6321C223.42 43.6094 223.396 43.5867 223.373 43.5624C223.396 43.5867 223.42 43.6094 223.444 43.6314C223.5 43.6815 223.56 43.7269 223.624 43.7676ZM216.99 43.6133C216.991 43.6133 216.991 43.6125 216.991 43.6125H216.994C217.01 43.5985 217.027 43.5836 217.044 43.5688C217.027 43.5836 217.011 43.5985 216.994 43.6125H216.991C216.991 43.6125 216.991 43.6133 216.99 43.6133ZM217.08 43.5354C217.088 43.5268 217.097 43.519 217.105 43.5103C217.274 43.3459 217.416 43.1486 217.525 42.927C217.544 42.8894 217.562 42.8494 217.579 42.8118C217.564 42.8518 217.543 42.8894 217.525 42.9277C217.416 43.1486 217.274 43.3467 217.106 43.5111C217.097 43.5197 217.088 43.5276 217.08 43.5354ZM222.92 42.5218C222.917 42.4905 222.915 42.4584 222.913 42.4263C222.907 42.2571 222.903 42.0817 222.899 41.9016C222.903 42.0817 222.907 42.2579 222.913 42.4263C222.915 42.4584 222.917 42.4905 222.92 42.5218ZM217.728 42.3601C217.736 42.325 217.743 42.2892 217.749 42.2541C217.746 42.2892 217.737 42.325 217.728 42.3601ZM217.759 42.198C217.761 42.1878 217.762 42.1785 217.764 42.1684C217.762 42.1785 217.761 42.1878 217.759 42.198ZM217.775 42.0948C217.781 42.0488 217.784 42.0028 217.789 41.9576C217.787 42.0036 217.781 42.0496 217.775 42.0948ZM222.913 39.6418C222.913 39.5682 222.914 39.4962 222.914 39.4265C222.914 39.3866 222.917 39.3482 222.922 39.3067C222.927 39.2299 222.941 39.1524 222.963 39.078C223.088 38.6074 223.448 38.2589 223.888 38.1658L223.903 38.1611L223.889 38.1665C223.448 38.2589 223.088 38.6074 222.963 39.0788C222.944 39.1532 222.93 39.2299 222.922 39.3067C222.92 39.3474 222.916 39.3858 222.916 39.4273C222.915 39.4962 222.913 39.5682 222.913 39.6418ZM217.807 39.4812C217.753 39.2627 217.667 39.0615 217.538 38.8712C217.504 38.8203 217.468 38.7725 217.43 38.7271C217.468 38.7725 217.504 38.8203 217.538 38.8704C217.667 39.0615 217.753 39.2627 217.807 39.4812ZM227.795 37.3132C227.799 37.3117 227.803 37.3093 227.807 37.3078C227.803 37.3093 227.799 37.3117 227.795 37.3132ZM227.808 37.308C230.786 35.9517 233.124 33.0904 234.144 29.5188C233.125 33.0904 230.786 35.9525 227.808 37.308ZM234.659 27.4619C235.01 26.4627 235.625 25.6155 236.421 25.0446C239.745 22.6656 246.673 14.4669 247.226 8.46317C247.229 8.43263 247.231 8.40209 247.233 8.37155C247.231 8.4013 247.229 8.43184 247.226 8.46238C246.674 14.4669 239.745 22.6656 236.422 25.0446C235.625 25.6155 235.01 26.4627 234.659 27.4619ZM234.866 22.6185C234.859 22.6185 234.852 22.6162 234.845 22.6115C234.852 22.6154 234.859 22.6177 234.866 22.6177C234.871 22.6177 234.877 22.6169 234.883 22.6138C235.017 22.505 235.223 22.3366 235.479 22.1166C235.223 22.3366 235.018 22.505 234.883 22.6138C234.877 22.6169 234.872 22.6185 234.866 22.6185ZM247.248 8.20213C247.249 8.18804 247.25 8.17394 247.25 8.16063C247.273 7.8153 247.281 7.49424 247.276 7.19589C247.281 7.49424 247.274 7.8153 247.25 8.16063C247.25 8.17472 247.249 8.18804 247.248 8.20213ZM235.394 7.74002C235.307 7.71966 235.226 7.67581 235.156 7.61473C235.226 7.67581 235.307 7.71888 235.394 7.74002ZM234.866 6.78912C234.708 6.05343 234.212 5.29174 233.601 4.85909C234.212 5.29127 234.708 6.0528 234.866 6.78912ZM237.698 6.59855C240.059 5.26123 242.764 3.78711 244.697 3.78711C245.464 3.78711 246.11 4.01992 246.564 4.58599C246.566 4.58842 246.568 4.59077 246.569 4.5932C246.568 4.59093 246.566 4.58873 246.564 4.58646C246.11 4.02023 245.465 3.78758 244.697 3.78758C242.765 3.78758 240.059 5.2617 237.698 6.59855ZM246.88 5.10155C246.876 5.09235 246.871 5.08323 246.867 5.07411C246.865 5.0706 246.863 5.06717 246.862 5.06367C246.863 5.06717 246.866 5.07068 246.867 5.07411C246.871 5.08323 246.876 5.09243 246.88 5.10155ZM233.294 4.67525C233.179 4.61933 233.06 4.57337 232.94 4.54393C233.06 4.57337 233.179 4.61644 233.294 4.67525ZM232.925 4.54084C232.921 4.53991 232.916 4.53897 232.913 4.53804C232.913 4.53796 232.913 4.53788 232.912 4.53788H232.913C232.916 4.53889 232.921 4.53983 232.925 4.54084ZM232.849 4.52356C232.837 4.52153 232.825 4.51996 232.814 4.51894C232.779 4.51299 232.746 4.51002 232.714 4.50853C232.615 4.4996 232.512 4.49075 232.401 4.48331C232.39 4.48042 232.381 4.48042 232.371 4.48042C232.223 4.47219 232.066 4.46264 231.897 4.45183C232.066 4.4599 232.224 4.47016 232.37 4.48034C232.381 4.48034 232.389 4.48034 232.4 4.48308C232.512 4.48864 232.615 4.49686 232.713 4.50516C232.746 4.50782 232.779 4.51338 232.815 4.51887C232.825 4.5198 232.837 4.52145 232.849 4.52356ZM230.13 4.3852C230.102 4.38442 230.075 4.38356 230.047 4.38278C229.948 4.38278 229.845 4.3798 229.74 4.3769C229.708 4.37581 229.674 4.3751 229.641 4.37455C229.674 4.3751 229.708 4.37573 229.741 4.37675C229.845 4.37949 229.948 4.38231 230.046 4.38231C230.074 4.38332 230.102 4.38426 230.13 4.3852ZM229.21 4.36509C229.109 4.36345 229.005 4.36227 228.902 4.36071H228.768C228.768 4.36 228.768 4.36 228.768 4.36V4.35734C228.814 4.35734 228.857 4.36008 228.901 4.36008C229.005 4.36157 229.109 4.36314 229.21 4.36509Z" fill="#EFC778"/>
<path fill-rule="evenodd" clip-rule="evenodd" d="M220.586 44.7473C220.346 44.7473 220.157 44.7433 220.018 44.7433C219.683 44.7433 218.197 44.5378 216.454 44.1774L216.464 44.1695C216.464 44.1695 216.464 44.1695 216.464 44.1695C216.467 44.1679 216.47 44.1663 216.473 44.1648C216.521 44.1379 216.569 44.1039 216.615 44.0691C216.65 44.0446 216.686 44.017 216.719 43.9846C216.719 43.9846 216.719 43.9838 216.719 43.9838H216.722C216.739 43.9695 216.755 43.9545 216.771 43.9395C216.784 43.9284 216.796 43.9174 216.807 43.9063C216.816 43.8984 216.824 43.8905 216.833 43.8818C216.998 43.7158 217.138 43.5159 217.246 43.293C217.264 43.2543 217.284 43.2163 217.299 43.176C217.301 43.1721 217.303 43.1681 217.305 43.1649C217.36 43.0322 217.406 42.8907 217.439 42.7445C217.441 42.7358 217.443 42.7279 217.445 42.7192C217.455 42.6836 217.463 42.6472 217.467 42.6117C217.467 42.6085 217.468 42.6061 217.468 42.603C217.471 42.588 217.475 42.5722 217.477 42.5564C217.478 42.5461 217.48 42.5366 217.481 42.5263C217.483 42.5129 217.485 42.4994 217.487 42.4868C217.488 42.4757 217.49 42.4639 217.491 42.4528C217.498 42.407 217.503 42.3603 217.505 42.3137C217.505 42.3105 217.505 42.3074 217.506 42.3042C217.578 41.2262 217.679 40.4484 217.525 39.8145C217.471 39.594 217.387 39.3909 217.26 39.198C217.226 39.1475 217.191 39.0993 217.154 39.0534C217.023 38.893 216.869 38.7649 216.699 38.6701C216.592 38.6068 216.477 38.5594 216.362 38.5262C216.244 38.493 216.123 38.4709 216.002 38.4654C230.249 35.5892 228.652 16.5838 228.318 4.36543L228.45 4.36614C228.552 4.36772 228.654 4.3689 228.754 4.37056C228.84 4.37222 228.924 4.3742 229.007 4.37681C229.064 4.37855 229.122 4.37926 229.179 4.38021C229.212 4.38076 229.245 4.38147 229.277 4.38258C229.381 4.3855 229.482 4.38851 229.579 4.38851C229.607 4.3893 229.633 4.39017 229.661 4.39096C229.79 4.39554 229.918 4.39973 230.042 4.4021C230.058 4.40257 230.074 4.40313 230.089 4.40368C230.156 4.40613 230.22 4.4085 230.284 4.41095C230.426 4.41585 230.564 4.42067 230.697 4.42573C230.932 4.43482 231.154 4.44439 231.359 4.45506C231.373 4.45569 231.386 4.45632 231.4 4.45695C231.567 4.46786 231.721 4.4775 231.867 4.4858C231.877 4.4858 231.885 4.4858 231.896 4.48873C232.006 4.49623 232.107 4.50517 232.205 4.51418C232.236 4.51568 232.268 4.51868 232.303 4.52469C232.314 4.52571 232.326 4.5273 232.337 4.52935C232.358 4.53322 232.379 4.5386 232.399 4.54397C232.4 4.54397 232.4 4.54405 232.4 4.54413C232.404 4.54508 232.408 4.54603 232.412 4.54698C232.417 4.54808 232.421 4.54927 232.427 4.55045C232.545 4.58017 232.662 4.62657 232.776 4.683C232.779 4.68466 232.783 4.6864 232.786 4.68806C232.886 4.73904 232.984 4.79966 233.079 4.86866C233.681 5.30534 234.169 6.07414 234.325 6.8167C234.347 6.92087 234.362 7.02456 234.37 7.127C234.387 7.34751 234.479 7.53167 234.61 7.64944C234.679 7.71108 234.759 7.75535 234.844 7.7759C234.882 7.78538 234.92 7.79012 234.96 7.79012C235.04 7.79012 235.123 7.76957 235.204 7.72452C235.795 7.39652 236.44 7.01611 237.115 6.62432C239.44 5.27499 242.105 3.78711 244.008 3.78711C244.764 3.78711 245.4 4.02193 245.847 4.59345C245.849 4.59574 245.85 4.59796 245.852 4.60025C245.904 4.66759 245.956 4.74244 246.005 4.81997C246.051 4.89988 246.098 4.98492 246.139 5.07503C246.141 5.07858 246.142 5.08206 246.144 5.08562C246.148 5.09486 246.153 5.10411 246.157 5.11344C246.393 5.63343 246.53 6.32777 246.546 7.22817C246.552 7.5293 246.543 7.85335 246.521 8.20191C246.52 8.21534 246.52 8.22957 246.519 8.2438C246.515 8.29991 246.511 8.35682 246.507 8.41452C246.504 8.44534 246.502 8.47617 246.499 8.50699C245.955 14.5668 239.131 22.842 235.857 25.2432C235.073 25.8194 234.468 26.6746 234.122 27.6831C234.03 27.9526 233.956 28.2332 233.902 28.5225C233.823 28.9429 233.727 29.3555 233.614 29.7594C232.61 33.3643 230.307 36.2523 227.374 37.6213C227.37 37.6228 227.366 37.6252 227.362 37.6268C226.174 38.1793 224.883 38.482 223.534 38.482C223.533 38.482 223.531 38.482 223.531 38.482H223.528L223.514 38.4867C223.08 38.5808 222.726 38.9325 222.602 39.4075C222.58 39.4826 222.567 39.5608 222.562 39.6383C222.557 39.6802 222.554 39.7189 222.554 39.7592C222.554 39.8296 222.553 39.9023 222.553 39.9766C222.551 40.043 222.55 40.1109 222.548 40.1805C222.537 40.8199 222.527 41.5684 222.539 42.2576C222.542 42.4394 222.546 42.6164 222.553 42.7871C222.554 42.8195 222.556 42.852 222.559 42.8836C222.597 43.2969 222.759 43.6692 223.006 43.9332C223.029 43.9577 223.052 43.9806 223.076 44.0035C223.132 44.0541 223.19 44.1015 223.253 44.1403C223.26 44.1442 223.265 44.1482 223.271 44.1521C223.279 44.1569 223.286 44.1616 223.294 44.1656C223.354 44.2043 223.419 44.2351 223.486 44.2604C223.508 44.2683 223.53 44.2754 223.553 44.2817C223.557 44.2833 223.562 44.2849 223.566 44.2857C223.578 44.2896 223.59 44.2928 223.601 44.2968C223.642 44.307 223.682 44.3157 223.721 44.3205C223.819 44.3355 223.915 44.3521 224.011 44.3687C224.052 44.375 224.094 44.3821 224.133 44.3908C224.148 44.394 224.163 44.3979 224.178 44.4019C222.52 44.7093 221.319 44.7473 220.586 44.7473ZM234.304 22.7866C234.31 22.7913 234.317 22.7937 234.324 22.7937C234.33 22.7937 234.336 22.7921 234.341 22.7889C234.474 22.6791 234.676 22.5091 234.928 22.287C236.771 20.666 241.335 16.2391 241.747 11.8098C241.965 9.66555 241.234 8.92102 240.116 8.92102C238.921 8.92102 237.284 9.77146 235.89 10.6733C234.857 11.3396 234.208 12.6318 234.186 14.0403C234.136 17.1559 233.995 22.5661 234.304 22.7866Z" fill="#EFC778"/>
<path fill-rule="evenodd" clip-rule="evenodd" d="M218.913 71.809C211.101 71.809 203.374 70.8094 201.458 68.8833C203.373 70.8094 211.102 71.8082 218.913 71.809Z" fill="#D0A883"/>
<path fill-rule="evenodd" clip-rule="evenodd" d="M219.45 71.8102H219.449C211.723 71.8094 204.08 70.8203 202.186 68.913C219.51 68.1478 226.143 63.1539 231.343 52.0615C231.348 52.0795 231.352 52.0982 231.355 52.1161C231.457 52.6505 231.524 53.2012 231.551 53.7636C231.56 53.9516 231.564 54.1388 231.564 54.3291C231.576 54.3486 231.583 54.4547 231.589 54.6349C231.605 55.1693 231.599 56.3526 231.599 57.8082C231.599 57.8199 231.599 57.8316 231.599 57.8433C231.599 57.862 231.599 57.8815 231.599 57.901C231.599 57.9073 231.599 57.9135 231.599 57.9197C231.599 57.926 231.599 57.933 231.599 57.9392C231.599 58.3191 231.599 58.7162 231.601 59.1241C231.601 59.3901 231.602 59.6616 231.604 59.9354C231.605 60.0992 231.614 60.2599 231.631 60.419C231.647 60.5774 231.671 60.7334 231.702 60.8871C231.963 62.2085 232.741 63.3294 233.826 63.8622C233.843 63.8708 233.86 63.8801 233.876 63.8887C233.885 63.8934 233.896 63.8989 233.905 63.9035C233.915 63.909 233.923 63.9129 233.932 63.9176C233.937 63.9199 233.942 63.9223 233.947 63.9254C233.95 63.9269 233.953 63.9285 233.956 63.9301C233.966 63.9347 233.976 63.9402 233.986 63.9449C244.337 69.2851 231.791 71.8094 219.452 71.8102C219.451 71.8102 219.451 71.8102 219.45 71.8102Z" fill="#EFC778"/>
<path fill-rule="evenodd" clip-rule="evenodd" d="M218.912 7.15288C222.482 6.59122 222.962 5.18864 223.527 0.861328C224.086 4.94344 224.714 6.48231 228.367 6.86985C225.217 8.10593 224.11 8.55318 223.654 13.2957C222.76 8.5218 222.052 8.11378 218.912 7.15288Z" fill="#FFFFFE"/>
</svg>
