<?xml version="1.0" encoding="UTF-8"?>
<svg width="271" height="197" viewBox="0 0 271 197" fill="none" xmlns="http://www.w3.org/2000/svg">
<mask id="path-1-inside-1_636_1608" fill="white">
<path fill-rule="evenodd" clip-rule="evenodd" d="M106.974 18.6016H79.2262C75.411 18.6016 72.2891 21.7272 72.2891 25.5468V33.939C72.2891 37.7587 75.411 40.8836 79.2262 40.8836H80.9923C80.1547 42.282 78.648 44.3562 78.648 44.3562C81.6651 43.8529 83.8182 41.7926 84.6397 40.8836H106.974C110.789 40.8836 113.911 37.7587 113.911 33.939V25.5468C113.911 21.7272 110.789 18.6016 106.974 18.6016Z"/>
</mask>
<path fill-rule="evenodd" clip-rule="evenodd" d="M106.974 18.6016H79.2262C75.411 18.6016 72.2891 21.7272 72.2891 25.5468V33.939C72.2891 37.7587 75.411 40.8836 79.2262 40.8836H80.9923C80.1547 42.282 78.648 44.3562 78.648 44.3562C81.6651 43.8529 83.8182 41.7926 84.6397 40.8836H106.974C110.789 40.8836 113.911 37.7587 113.911 33.939V25.5468C113.911 21.7272 110.789 18.6016 106.974 18.6016Z" fill="#FAECD0"/>
<path d="M80.9923 40.8836L83.566 42.4251C84.1211 41.4983 84.135 40.3445 83.6024 39.4045C83.0697 38.4645 82.0727 37.8836 80.9923 37.8836V40.8836ZM78.648 44.3562L76.2208 42.5931C75.505 43.5784 75.4559 44.8986 76.0966 45.9343C76.7372 46.97 77.9404 47.5157 79.1416 47.3153L78.648 44.3562ZM84.6397 40.8836V37.8836C83.7914 37.8836 82.9827 38.2427 82.4139 38.8721L84.6397 40.8836ZM106.974 15.6016H79.2262V21.6016H106.974V15.6016ZM79.2262 15.6016C73.7508 15.6016 69.2891 20.0736 69.2891 25.5468H75.2891C75.2891 23.3807 77.0712 21.6016 79.2262 21.6016V15.6016ZM69.2891 25.5468V33.939H75.2891V25.5468H69.2891ZM69.2891 33.939C69.2891 39.4126 73.7512 43.8836 79.2262 43.8836V37.8836C77.0708 37.8836 75.2891 36.1048 75.2891 33.939H69.2891ZM79.2262 43.8836H80.9923V37.8836H79.2262V43.8836ZM78.4187 39.342C78.0543 39.9503 77.5162 40.75 77.0417 41.4334C76.81 41.7672 76.6031 42.0594 76.4544 42.2677C76.3802 42.3718 76.3208 42.4545 76.2804 42.5105C76.2602 42.5386 76.2448 42.5599 76.2347 42.5739C76.2296 42.5809 76.2259 42.586 76.2235 42.5892C76.2224 42.5908 76.2215 42.592 76.2211 42.5926C76.2208 42.5929 76.2207 42.5931 76.2206 42.5932C76.2206 42.5932 76.2206 42.5932 76.2206 42.5932C76.2206 42.5932 76.2207 42.5932 76.2207 42.5932C76.2207 42.5931 76.2208 42.5931 78.648 44.3562C81.0752 46.1194 81.0752 46.1193 81.0753 46.1192C81.0753 46.1192 81.0754 46.1191 81.0754 46.119C81.0755 46.1188 81.0757 46.1187 81.0758 46.1184C81.0761 46.118 81.0765 46.1175 81.077 46.1168C81.078 46.1154 81.0794 46.1135 81.0811 46.1112C81.0845 46.1065 81.0893 46.0998 81.0955 46.0913C81.1079 46.0742 81.1256 46.0496 81.1483 46.0182C81.1936 45.9553 81.2584 45.8651 81.3385 45.7528C81.4985 45.5285 81.7207 45.2148 81.9703 44.8552C82.4586 44.1519 83.0927 43.2152 83.566 42.4251L78.4187 39.342ZM79.1416 47.3153C83.172 46.6429 85.9001 43.9632 86.8655 42.895L82.4139 38.8721C81.7362 39.622 80.1581 41.0628 78.1543 41.3971L79.1416 47.3153ZM84.6397 43.8836H106.974V37.8836H84.6397V43.8836ZM106.974 43.8836C112.449 43.8836 116.911 39.4126 116.911 33.939H110.911C110.911 36.1048 109.129 37.8836 106.974 37.8836V43.8836ZM116.911 33.939V25.5468H110.911V33.939H116.911ZM116.911 25.5468C116.911 20.0736 112.449 15.6016 106.974 15.6016V21.6016C109.129 21.6016 110.911 23.3807 110.911 25.5468H116.911Z" fill="#EFC778" mask="url(#path-1-inside-1_636_1608)"/>
<path d="M174.421 56.8761H173.715L174.077 57.4817C174.504 58.193 175.096 59.0703 175.578 59.765C175.665 59.8897 175.748 60.0087 175.826 60.1202C173.468 59.4133 171.776 57.789 171.07 57.0079L170.951 56.8761H170.773H148.439C144.845 56.8761 141.902 53.9308 141.902 50.3316V41.9394C141.902 38.3402 144.845 35.3941 148.439 35.3941H176.187C179.781 35.3941 182.724 38.3402 182.724 41.9394V50.3316C182.724 53.9308 179.781 56.8761 176.187 56.8761H174.421Z" fill="white" stroke="#7C8A9D" stroke-width="0.8"/>
<path fill-rule="evenodd" clip-rule="evenodd" d="M88.3999 30.3275C88.3999 31.8309 87.1826 33.0496 85.681 33.0496C84.1801 33.0496 82.9629 31.8309 82.9629 30.3275C82.9629 28.8242 84.1801 27.6055 85.681 27.6055C87.1826 27.6055 88.3999 28.8242 88.3999 30.3275Z" fill="#ECC478"/>
<path fill-rule="evenodd" clip-rule="evenodd" d="M95.8178 30.3275C95.8178 31.8309 94.6006 33.0496 93.099 33.0496C91.5981 33.0496 90.3809 31.8309 90.3809 30.3275C90.3809 28.8242 91.5981 27.6055 93.099 27.6055C94.6006 27.6055 95.8178 28.8242 95.8178 30.3275Z" fill="#ECC478"/>
<path fill-rule="evenodd" clip-rule="evenodd" d="M103.24 30.3275C103.24 31.8309 102.022 33.0496 100.521 33.0496C99.02 33.0496 97.8027 31.8309 97.8027 30.3275C97.8027 28.8242 99.02 27.6055 100.521 27.6055C102.022 27.6055 103.24 28.8242 103.24 30.3275Z" fill="#ECC478"/>
<path fill-rule="evenodd" clip-rule="evenodd" d="M157.13 46.5853C157.13 48.0887 155.913 49.3074 154.411 49.3074C152.911 49.3074 151.693 48.0887 151.693 46.5853C151.693 45.082 152.911 43.8633 154.411 43.8633C155.913 43.8633 157.13 45.082 157.13 46.5853Z" fill="#394D6B"/>
<path fill-rule="evenodd" clip-rule="evenodd" d="M164.55 46.5853C164.55 48.0887 163.333 49.3074 161.831 49.3074C160.331 49.3074 159.113 48.0887 159.113 46.5853C159.113 45.082 160.331 43.8633 161.831 43.8633C163.333 43.8633 164.55 45.082 164.55 46.5853Z" fill="#394D6B"/>
<path fill-rule="evenodd" clip-rule="evenodd" d="M171.97 46.5853C171.97 48.0887 170.753 49.3074 169.251 49.3074C167.75 49.3074 166.533 48.0887 166.533 46.5853C166.533 45.082 167.75 43.8633 169.251 43.8633C170.753 43.8633 171.97 45.082 171.97 46.5853Z" fill="#394D6B"/>
<path fill-rule="evenodd" clip-rule="evenodd" d="M158.579 72.9405L161.821 74.3441C162.358 74.5495 162.92 74.6581 163.486 74.6677L169.532 74.7689C171.353 75.5774 173.175 76.3867 174.996 77.196C175.976 76.3867 176.956 75.5774 177.936 74.7689C176.198 73.7843 174.459 72.7996 172.721 71.8157C172.67 71.603 172.456 69.5376 170.49 69.2771L167.256 69.057L165.253 68.0562C165.021 67.9403 164.748 67.9645 164.545 68.1252C164.537 68.1318 164.529 68.1376 164.522 68.1442C164.136 68.4627 164.196 69.1142 164.619 69.3857L166.18 70.385C166.18 70.385 166.472 71.0453 165.801 71.1913C165.129 71.3373 162.504 70.6124 162.364 70.3784C162.269 70.2192 161.641 69.0269 161.246 68.2763C161.062 67.9249 160.666 67.7708 160.32 67.9153C159.934 68.0767 159.751 68.5493 159.913 68.9638L159.933 69.0174L159.598 69.1905C159.244 69.3725 159.111 69.8398 159.308 70.2104L159.824 71.184C159.956 71.4342 160.134 71.6528 160.348 71.8267L161.447 72.7219L159.01 71.5978C158.698 71.4753 158.353 71.6176 158.201 71.9317C158.015 72.3168 158.194 72.7952 158.579 72.9405Z" fill="#F7A588"/>
<path fill-rule="evenodd" clip-rule="evenodd" d="M228.372 65.8086L209.371 66.2033L210.574 124.202L232.017 123.756L234.838 85.3612L228.372 65.8086Z" fill="#A9D3DA"/>
<path fill-rule="evenodd" clip-rule="evenodd" d="M188.274 131.562L184.962 131.596L186.288 132.857L163.064 175.908C162.755 176.481 162.925 177.223 163.445 177.567C163.628 177.688 163.831 177.744 164.028 177.739C164.393 177.732 164.745 177.524 164.945 177.153L187.975 134.462L233.076 177.367C233.289 177.57 233.552 177.667 233.812 177.661C234.112 177.655 234.408 177.513 234.618 177.243C235.011 176.738 234.958 175.974 234.499 175.537L188.274 131.562Z" fill="#3A4E6C"/>
<path fill-rule="evenodd" clip-rule="evenodd" d="M226.421 67.9373C227.276 82.7523 227.723 96.8667 227.792 111.699C227.807 114.879 225.411 117.474 222.4 117.593C209.719 118.096 197.03 118.201 184.332 117.909C182.478 117.866 180.96 119.448 180.993 121.404C181.029 123.523 181.012 125.57 181.093 127.7C181.161 129.464 182.496 130.89 184.166 130.995C198.542 131.904 213.384 132.386 227.653 131.385C228.345 131.337 229.037 131.286 229.729 131.233C235.966 130.757 240.838 125.382 241.011 118.785C241.03 118.045 241.048 117.306 241.063 116.568C241.411 100.151 240.851 83.7531 239.383 67.3745C239.294 66.3855 238.531 65.6063 237.59 65.5483C234.512 65.3561 231.449 65.9159 228.373 65.8095C227.255 65.7707 226.353 66.759 226.421 67.9373Z" fill="#6CB4C0"/>
<path fill-rule="evenodd" clip-rule="evenodd" d="M214.751 34.8268C218.438 34.0073 224.637 35.9472 224.894 41.3378C224.942 42.3415 225.823 43.0796 226.822 42.982C229.823 42.6893 233.621 43.8184 234.165 47.7658C234.29 48.6771 235.094 49.2662 236.012 49.275C245.391 49.3623 239.393 63.5713 233.465 56.4045C232.874 55.6906 231.823 55.6135 231.082 56.169C228.307 58.249 223.487 56.9746 221.944 52.8284C221.577 51.8415 220.491 51.3654 219.535 51.8034C213.728 54.4638 207.133 47.3395 209.292 38.714L209.228 40.1484C209.473 37.2928 210.251 37.0984 214.315 34.9905C214.452 34.92 214.6 34.8606 214.751 34.8268Z" fill="#394D6B"/>
<path fill-rule="evenodd" clip-rule="evenodd" d="M200.745 27.1543C201.387 26.8153 202.338 26.4059 203.537 26.2137C206.367 25.7595 210.254 27.3106 212.262 29.7017C215.683 33.7738 211.658 45.9226 205.803 46.6534C200.057 47.3695 197.194 44.2798 195.782 40.4843C194.827 37.9186 194.629 35.8326 194.502 33.1949C194.509 32.8457 194.443 30.0282 196.185 28.4698C198.094 26.7618 200.439 27.1044 200.745 27.1543Z" fill="#394D6B"/>
<path fill-rule="evenodd" clip-rule="evenodd" d="M210.211 54.781C208.615 54.1133 205.569 51.8901 205.569 51.8901L206.527 46.1797C204.533 49.0089 200.738 47.3903 200.738 47.3903L199.825 51.0889C199.825 51.0889 196.001 52.731 195.436 53.2842C194.871 53.8367 200.589 74.0291 200.884 74.0115C201.178 73.9931 211.503 56.8251 211.706 56.5162C211.716 56.5022 211.722 56.4927 211.728 56.4861C211.642 56.5859 212.998 55.9468 210.211 54.781Z" fill="#F7A588"/>
<path fill-rule="evenodd" clip-rule="evenodd" d="M206.419 46.8941L207.058 42.668C207.058 42.6687 207.058 42.6687 207.058 42.6694C206.795 43.1676 206.507 43.6629 206.186 44.1574C205.06 45.7657 202.689 46.8083 200.781 46.9873L200.738 47.3901C200.738 47.3901 203.988 48.815 206.419 46.8941Z" fill="#F38574"/>
<path fill-rule="evenodd" clip-rule="evenodd" d="M206.859 42.3503C206.873 42.3716 206.889 42.3878 206.903 42.4083C206.848 42.4473 206.824 42.4407 206.859 42.3503ZM209.667 37.2663C209.191 36.9295 208.406 37.4284 207.936 37.7931C207.933 37.7813 207.93 37.7674 207.927 37.7542C199.909 38.1687 199.589 32.6131 199.254 30.5C199.247 30.5139 197.994 33.1135 196.203 34.2272C194.786 44.6092 198.075 47.4399 201.468 47.1295C203.505 46.9431 205.599 45.4816 206.774 43.5226C206.918 43.2629 207.053 43.0024 207.185 42.7419C207.36 42.907 207.549 43.0185 207.744 43.0457C208.58 43.1601 209.162 41.8424 209.456 41.1762C210.037 39.8599 210.373 37.7667 209.667 37.2663Z" fill="#F7A588"/>
<path fill-rule="evenodd" clip-rule="evenodd" d="M175.704 158.901C176.241 147.065 176.439 137.708 176.5 131.148C176.394 130.962 176.29 130.776 176.186 130.59C169.882 131.866 166.679 132.355 165.068 132.535C166.123 144.358 168.347 156.612 168.849 159.299C168.861 159.491 168.892 159.676 168.953 159.848C169.797 162.221 168.556 166.837 168.556 166.837L173.462 167.088C173.462 167.088 177.111 164.203 176.394 163.272C175.677 162.342 175.704 158.901 175.704 158.901Z" fill="#F7A588"/>
<path fill-rule="evenodd" clip-rule="evenodd" d="M200.41 156.08C199.938 155.505 199.362 154.383 198.84 153.246C195.797 141.348 191.849 133.129 188.694 127.908C183.716 129.021 179.719 129.873 176.506 130.525C176.504 130.731 176.502 130.938 176.5 131.149C183.562 143.561 194.391 156.175 194.393 156.177C195.843 159.412 196.875 165.095 196.875 165.095L200.175 162.114C200.175 162.114 201.146 156.976 200.41 156.08Z" fill="#F7A588"/>
<path fill-rule="evenodd" clip-rule="evenodd" d="M270.109 177.976H0.889678C0.398082 177.976 0 177.727 0 177.42C0 177.113 0.398082 176.863 0.889678 176.863H270.109C270.6 176.863 270.998 177.113 270.998 177.42C270.998 177.727 270.6 177.976 270.109 177.976Z" fill="#002D6B"/>
<path fill-rule="evenodd" clip-rule="evenodd" d="M196.177 53.8164L193.678 54.264C193.678 54.264 189.373 73.0498 188.608 75.4197C188.608 75.4197 175.287 74.0858 173.357 72.5781L171.553 77.1329C171.553 77.1329 185.923 86.8157 193.447 83.4905C200.972 80.1653 201.179 68.459 201.179 68.459L196.177 53.8164Z" fill="#CAC4BC"/>
<path fill-rule="evenodd" clip-rule="evenodd" d="M225.169 104.98C224.825 102.67 224.1 100.438 223.079 98.3422C222.586 97.3319 221.964 96.3928 221.287 95.4969C220.571 94.5497 219.557 93.1314 218.868 91.8526C218.431 91.0389 218.124 90.2817 218.112 89.7402L213.667 89.8327L200.185 90.113L202.306 97.2417C199.926 97.6907 197.277 98.252 194.548 98.9329C182.966 100.792 167.124 104.896 165.261 112.914C164.197 117.491 164.391 124.92 165.07 132.531C166.681 132.351 169.883 131.862 176.187 130.586C176.29 130.565 176.402 130.542 176.506 130.521C179.719 129.868 183.717 129.016 188.694 127.904C185.624 122.826 183.304 120.588 183.304 120.588C183.304 120.588 205.864 121.19 218.105 117.846C225.245 115.896 225.88 109.757 225.169 104.98Z" fill="#394D6B"/>
<path fill-rule="evenodd" clip-rule="evenodd" d="M196.557 176.23C196.277 175.965 196.082 175.631 195.951 175.255C195.797 174.81 195.767 174.242 195.808 173.62C195.925 171.853 196.312 169.471 196.465 168.343C196.584 167.461 197.068 165.65 196.722 164.572C197.492 163.993 198.362 163.181 199.129 162.055C200.984 159.333 200.48 157.607 200.411 156.077C202.127 155.932 203.846 156.086 205.661 156.978C205.782 157.037 205.9 157.096 206.013 157.154C206.912 157.612 207.313 158.738 206.908 159.72C204.903 164.595 199.135 173.72 197.621 176.063C197.377 176.441 196.872 176.53 196.557 176.23Z" fill="#CA523D"/>
<path fill-rule="evenodd" clip-rule="evenodd" d="M161.531 176.323C161.451 175.923 161.478 175.524 161.579 175.13C161.699 174.665 161.985 174.181 162.359 173.698C163.421 172.328 165.246 170.361 165.986 169.537C166.565 168.893 168.346 166.057 168.658 164.95C169.594 164.977 171.03 165.849 172.263 165.427C175.243 164.407 175.398 163.389 176.18 162.092C177.637 163.091 178.932 164.335 179.902 166.248C179.966 166.376 180.029 166.501 180.088 166.622C180.559 167.582 180.264 168.764 179.401 169.306C175.122 171.99 164.975 175.947 162.477 176.879C162.074 177.029 161.621 176.773 161.531 176.323Z" fill="#CA523D"/>
<path fill-rule="evenodd" clip-rule="evenodd" d="M195.601 71.3019C195.601 71.3019 193.676 70.8653 192.091 68.7478C190.422 66.5181 190.052 63.5701 191.047 60.9676C191.732 59.1737 192.666 56.6989 193.336 54.8096C193.916 53.1734 195.217 52.1132 196.901 51.6957L198.097 51.4448C198.28 51.4066 198.437 51.5798 198.38 51.7588C198.136 52.5373 197.784 54.26 199.014 55.285C200.544 56.5602 204.52 57.8559 208.47 53.2226C208.47 53.2226 215.03 57.2205 215.709 59.0526C215.709 59.0526 214.093 80.2348 213.703 86.428C213.657 87.1786 213.732 87.8639 213.906 88.5L200.281 90.4994L195.601 71.3019Z" fill="#CAC4BC"/>
<path fill-rule="evenodd" clip-rule="evenodd" d="M216.018 59.5119C215.104 57.7796 212.597 57.7715 211.72 59.5222C209.775 63.3991 212.074 73.401 213.037 77.1737C213.367 78.4665 214.15 81.8298 213.433 82.4601C212.877 82.9473 201.926 85.3817 196.998 86.4588L197.634 90.8992C204.595 91.74 223.275 91.0049 225.233 85.5116C227.282 79.7645 218.69 64.5774 216.018 59.5119Z" fill="#BCB7B1"/>
<path fill-rule="evenodd" clip-rule="evenodd" d="M205.248 131.389L201.936 131.422L203.076 132.508L179.853 175.558C179.544 176.131 179.715 176.873 180.234 177.218C180.418 177.338 180.619 177.394 180.818 177.389C181.182 177.382 181.535 177.174 181.735 176.803L204.763 134.112L249.864 177.017C250.077 177.22 250.341 177.317 250.601 177.312C250.9 177.305 251.197 177.163 251.407 176.893C251.8 176.388 251.747 175.624 251.288 175.187L205.248 131.389Z" fill="#3A4E6C"/>
<path fill-rule="evenodd" clip-rule="evenodd" d="M25.7324 112.578V61.543H56.3499C59.6302 61.543 62.2896 64.1124 62.2896 67.2813V120.232H33.6545C29.2794 120.232 25.7324 116.805 25.7324 112.578Z" fill="#A9D3DA"/>
<path fill-rule="evenodd" clip-rule="evenodd" d="M62.5968 171.49H50.7357V132.291H47.3704V171.49H35.5093C33.1085 171.49 31.1621 173.439 31.1621 175.843V177.928H66.9447V175.843C66.9447 173.439 64.9983 171.49 62.5968 171.49Z" fill="#3A4E6C"/>
<path fill-rule="evenodd" clip-rule="evenodd" d="M40.5894 55.9648C40.6019 55.6537 46.4962 52.9581 46.4962 52.9581L45.6893 47.8984C48.0432 51.1833 52.4593 49.258 52.4593 49.258L52.8323 52.5281C52.8323 52.5281 57.9219 53.3448 58.5866 53.9853C59.2506 54.6258 52.8814 80.365 52.537 80.3467C52.1926 80.3284 39.8837 58.3545 39.6441 57.9965C39.6331 57.9796 39.625 57.9693 39.6191 57.9613C39.7188 58.0764 40.4451 59.4932 40.5894 55.9648Z" fill="#F7A588"/>
<path fill-rule="evenodd" clip-rule="evenodd" d="M45.8213 48.7318L45.0349 43.8027C45.0356 43.8035 45.0356 43.8035 45.0364 43.8042C45.3471 44.3831 45.6893 44.9598 46.0675 45.5336C47.3976 47.4016 50.1751 48.5968 52.4051 48.7883L52.4586 49.2586C52.4586 49.2586 48.6779 50.9527 45.8213 48.7318Z" fill="#F38574"/>
<path fill-rule="evenodd" clip-rule="evenodd" d="M111.43 157.99L107.18 160.087C107.18 160.087 110.849 166.92 110.89 168.197C110.931 169.474 116.887 169.686 116.887 169.686L119.809 163.953C119.809 163.953 116.598 163.069 115.655 160.514C114.423 157.171 106.41 146.623 106.41 146.623L111.43 157.99Z" fill="#F7A588"/>
<path fill-rule="evenodd" clip-rule="evenodd" d="M117.472 165.482L116.059 164.237C116.059 164.237 116.289 162.973 118.285 161.344C118.285 161.344 122.53 163.436 124.862 163.067C126.125 162.868 128.603 162.008 130.579 161.838C128.378 164.288 124.187 167.222 117.472 165.482Z" fill="#112346"/>
<path fill-rule="evenodd" clip-rule="evenodd" d="M111.487 173.84C111.554 173.979 111.619 174.114 111.683 174.244C112.193 175.277 113.452 175.718 114.552 175.23C120.011 172.812 130.68 165.691 133.305 163.892C133.728 163.601 133.829 163.016 133.495 162.656C133.198 162.337 132.826 162.119 132.404 161.974C131.908 161.804 131.273 161.78 130.576 161.841C128.375 164.29 124.183 167.224 117.469 165.484C112.997 168.23 110.516 167.488 110.516 167.488C110.308 169.575 110.445 171.654 111.487 173.84Z" fill="#112346"/>
<path fill-rule="evenodd" clip-rule="evenodd" d="M70.5901 161.156L65.8765 160.668C65.8765 160.668 65.3517 168.408 64.7083 169.511C64.0649 170.613 68.9947 173.966 68.9947 173.966L74.5152 170.668C74.5152 170.668 72.2654 168.21 72.826 165.543C73.5589 162.057 72.3797 148.857 72.3797 148.857L70.5901 161.156Z" fill="#F7A588"/>
<path fill-rule="evenodd" clip-rule="evenodd" d="M71.7232 170.719L71.1875 168.913C71.1875 168.913 72.0545 167.965 74.6106 167.648C74.6106 167.648 77.0928 171.68 79.2634 172.611C80.4382 173.115 82.9929 173.707 84.7576 174.616C81.5917 175.517 76.4838 175.769 71.7232 170.719Z" fill="#112346"/>
<path fill-rule="evenodd" clip-rule="evenodd" d="M78.0078 175.858C78.3878 175.858 78.7553 175.858 79.1081 175.857C78.7553 175.858 78.3878 175.858 78.0078 175.858ZM62.2164 174.606C62.1988 174.759 62.1819 174.909 62.1673 175.053C62.05 176.198 62.8818 177.243 64.0727 177.416C69.9809 178.276 82.7983 177.93 85.9767 177.805C86.4889 177.785 86.8854 177.342 86.7945 176.86C86.7132 176.431 86.5131 176.049 86.2332 175.702C85.9034 175.293 85.3779 174.935 84.7565 174.614C81.5906 175.516 76.4826 175.768 71.7221 170.718C66.4764 170.66 64.7696 168.711 64.7696 168.711C63.4849 170.368 62.4963 172.2 62.2164 174.606Z" fill="#112346"/>
<path fill-rule="evenodd" clip-rule="evenodd" d="M44.7079 95.5901L44.0557 100.704C44.0557 100.704 38.8488 118.386 52.9605 120.117C67.0722 121.85 90.8948 118.312 90.8948 118.312C90.8948 118.312 89.1037 133.053 105.837 160.871L114.829 157.219C114.829 157.219 108.199 119.392 103.05 106.329C98.4548 94.6649 55.5562 94.4727 55.5562 94.4727L44.7079 95.5901Z" fill="#CA523D"/>
<path fill-rule="evenodd" clip-rule="evenodd" d="M36.328 95.7461L35.5775 102.202C35.5775 102.202 31.0859 118.924 43.257 120.562C55.4281 122.199 70.7695 120.391 70.7695 120.391C70.7695 120.391 63.7364 138.22 63.9995 161.12H77.1782C77.1782 161.12 90.8238 120.993 86.3842 108.639C82.4203 97.609 48.6632 96.4695 48.6632 96.4695L36.328 95.7461Z" fill="#CA523D"/>
<path fill-rule="evenodd" clip-rule="evenodd" d="M63.0543 67.8854C62.8096 63.9821 62.5648 60.0787 62.3193 56.1754C61.2889 55.0095 60.7188 54.6405 58.4667 53.8708C58.1311 53.7556 55.1865 52.9896 54.867 52.9141C54.2749 55.4204 54.2778 56.5621 51.8631 56.9517C49.0467 57.4066 46.3697 56.2224 45.2843 53.3675C43.9102 53.6126 36.3531 57.5071 35.0699 58.8564C34.0571 63.4281 35.4789 89.9942 35.229 98.6219C37.0442 99.2632 53.3713 98.9411 60.3062 94.4699C60.2424 92.987 60.504 80.3731 61.6128 68.8847C62.1024 68.5545 62.5824 68.2214 63.0543 67.8854Z" fill="#ECC478"/>
<path fill-rule="evenodd" clip-rule="evenodd" d="M57.9579 36.7684C57.9161 36.2343 57.9469 34.695 57.8787 34.1183C57.5687 34.1065 57.1298 34.7867 56.811 34.6231C55.9242 34.1682 46.1422 33.2363 45.3383 33.827C43.866 34.9092 44.22 39.5624 44.1745 38.9285C44.1548 38.9351 44.1364 38.9424 44.1159 38.949C44.113 38.9644 44.1093 38.9806 44.1057 38.9945C43.5538 38.5733 42.6319 37.9981 42.0801 38.3951C41.26 38.9857 41.5268 40.55 42.2171 42.0812C42.5674 42.8567 43.2592 44.3902 44.2332 44.2486C44.4611 44.2156 44.6809 44.0828 44.8847 43.8883C45.0408 44.1921 45.2005 44.4951 45.3713 44.7967C45.4094 44.8598 45.4512 44.9199 45.4915 44.9823C46.9 47.1636 49.2854 48.766 51.6012 48.9597C55.2251 49.2613 58.7208 46.4952 57.9579 36.7684Z" fill="#F7A588"/>
<path fill-rule="evenodd" clip-rule="evenodd" d="M41.9268 30.5005C42.6238 30.2928 44.4339 31.2723 44.4339 31.2723L44.4478 31.2694C45.3331 29.5078 46.524 26.0975 48.968 25.9566C49.514 25.9251 50.6081 26.4739 50.9987 26.5803C51.5835 25.7783 52.4754 24.8605 53.6296 24.9316C55.3408 25.0373 55.5497 26.5619 55.5497 26.5619C55.5497 26.5619 56.4782 24.4327 58.5001 25.4159C60.5228 26.3998 58.835 29.0749 58.835 29.0749L58.4965 29.4608C60.8987 30.5452 60.7551 33.8205 57.192 34.7699C55.9762 35.0935 54.6322 35.2894 53.305 35.4017C53.5307 38.7569 45.6783 35.3444 45.6783 35.3444C45.9919 38.4583 44.0264 39.0907 44.0264 39.0907C44.0264 39.0907 37.99 31.6737 41.9268 30.5005Z" fill="#3A4E6C"/>
<path fill-rule="evenodd" clip-rule="evenodd" d="M16.8858 61.543H26.7894V112.578C26.7894 116.805 30.1466 120.232 34.2879 120.232H61.3936H69.6293C72.0067 120.232 73.9341 122.199 73.9341 124.625V127.897C73.9341 130.323 72.0067 132.289 69.6293 132.289H61.3936H46.1915H31.1916C22.5734 132.289 15.5879 125.159 15.5879 116.363V62.868C15.5879 62.1358 16.169 61.543 16.8858 61.543Z" fill="#6CB4C0"/>
<path fill-rule="evenodd" clip-rule="evenodd" d="M56.315 84.5795C56.315 84.5795 39.4266 85.7469 37.7924 83.2412C35.8372 80.2433 42.3785 64.7599 38.7744 59.9753C37.6465 58.4778 35.7067 57.637 34.7335 59.2394C31.4166 64.6968 21.1693 83.2471 27.7231 92.866C31.0319 97.721 56.658 89.918 56.658 89.918L56.315 84.5795Z" fill="#E2B66F"/>
<path fill-rule="evenodd" clip-rule="evenodd" d="M83.9737 60.3737L90.0189 60.2731C90.5854 60.2636 91.1475 60.1543 91.6832 59.9496L94.926 58.5452C95.3108 58.4007 95.4903 57.9223 95.3042 57.5364C95.1525 57.2231 94.8073 57.0808 94.4951 57.2033L92.0577 58.3266L93.1569 57.4315C93.3702 57.2576 93.549 57.0389 93.6817 56.7888L94.1976 55.8159C94.3933 55.4453 94.2606 54.9772 93.9074 54.7953L93.5717 54.6228L93.5923 54.5693C93.7542 54.1547 93.5703 53.6822 93.1841 53.5208C92.8389 53.3763 92.4432 53.5304 92.2592 53.8811C91.8642 54.6316 91.2362 55.8239 91.1409 55.9831C91.0009 56.2179 88.3759 56.9421 87.7046 56.7961C87.0333 56.6501 87.3257 55.9905 87.3257 55.9905L88.8852 54.9912C89.3088 54.7197 89.3696 54.0682 88.9834 53.749C88.9761 53.7424 88.968 53.7365 88.9607 53.7307C88.7562 53.5692 88.4843 53.5458 88.252 53.6617L86.2492 54.6617L83.0151 54.8818C81.0496 55.143 80.8349 57.2077 80.7843 57.4205L76.7148 63.8089L81.408 67.4855L83.9737 60.3737Z" fill="#F7A588"/>
<path fill-rule="evenodd" clip-rule="evenodd" d="M79.5491 76.3683L84.9355 61.6471L77.0867 59.4761L72.4559 71.9242L62.8226 54.6593C61.0623 52.6401 58.6286 52.0216 56.5385 53.9704C54.7437 55.6432 54.3378 58.8481 55.5462 60.9883C57.0573 63.6641 59.1606 67.1808 61.5277 70.5536C63.6434 73.5677 65.9695 76.4673 68.2772 78.5489C69.8074 79.9282 71.8806 81.1719 73.9333 81.1036C73.9509 81.1036 73.9685 81.1029 73.9861 81.1022C76.5327 81.0002 78.6682 78.7756 79.5491 76.3683Z" fill="#ECC478"/>
<path fill-rule="evenodd" clip-rule="evenodd" d="M72.4136 86.5885C72.3395 86.2334 72.0274 86.0015 71.6822 86.0455L68.9406 86.5577L70.2744 85.9348C70.5338 85.8137 70.7691 85.6383 70.9655 85.4204L71.7313 84.5701C72.0222 84.2465 72.0061 83.741 71.6954 83.4673L71.4008 83.2076L71.4345 83.1584C71.7027 82.782 71.6367 82.2581 71.2879 81.9969C70.9757 81.7629 70.5375 81.8172 70.2634 82.1246C69.6764 82.7813 68.742 83.8231 68.6064 83.9596C68.4064 84.1599 65.5761 84.2215 64.9356 83.9024C64.2951 83.584 64.7561 82.9933 64.7561 82.9933L66.5808 82.3836C67.077 82.2178 67.302 81.5758 66.9927 81.1554C66.9868 81.1473 66.9802 81.1392 66.9744 81.1312C66.8095 80.9162 66.5405 80.823 66.2774 80.881L64.0049 81.3784L60.6873 80.7753C58.6397 80.5369 57.9032 82.5648 57.7984 82.7666C57.3214 82.8304 56.8443 82.8943 56.3672 82.9581C56.4647 84.38 56.5629 85.802 56.6611 87.2246C57.8644 87.0023 59.0677 86.7807 60.2711 86.5591L66.3932 88.0001C66.9671 88.1344 67.5614 88.1682 68.1543 88.0985L71.7782 87.5093C72.2032 87.4616 72.5044 87.025 72.4136 86.5885Z" fill="#F7A588"/>
<path fill-rule="evenodd" clip-rule="evenodd" d="M170.299 74.7617H167.614C167.189 74.7617 166.886 75.1777 167.014 75.5857L173.436 95.9703C173.519 96.233 173.761 96.4113 174.035 96.4113H189.824C185.354 95.5044 181.217 93.4588 177.897 90.3435C172.529 85.3066 170.827 78.9152 170.299 74.7617Z" fill="white"/>
<path fill-rule="evenodd" clip-rule="evenodd" d="M191.06 95.588L184.638 75.2034C184.556 74.9407 184.313 74.7617 184.039 74.7617H170.299C170.828 78.9152 172.53 85.3066 177.897 90.3442C181.217 93.4596 185.354 95.5051 189.824 96.412H190.461C190.886 96.412 191.188 95.996 191.06 95.588Z" fill="#F6F5F0"/>
<path fill-rule="evenodd" clip-rule="evenodd" d="M192.732 86.618L193.228 86.3435C193.228 86.3435 192.21 85.5343 191.352 85.3795C190.495 85.2254 187.703 84.9297 187.703 84.9297L188.402 87.1477L192.732 86.618Z" fill="#F38574"/>
<path fill-rule="evenodd" clip-rule="evenodd" d="M193.229 86.3438C193.145 86.3394 192.265 85.5588 191.303 85.8449C190.34 86.1303 187.515 87.6696 187.223 87.6183C187.223 87.6183 183.685 85.412 182.445 85.1325C181.205 84.8529 180.789 85.8691 180.84 85.963C180.891 86.0577 181.408 86.2991 181.408 86.2991C181.149 86.3218 180.933 86.5309 180.88 86.8105L180.859 86.9249C180.8 87.236 180.957 87.5442 181.228 87.6498L181.964 87.9374L181.831 87.9008C181.5 87.8098 181.161 88.0306 181.075 88.3945C180.995 88.7262 181.152 89.0681 181.441 89.1936L186.487 91.3888C187.414 91.7916 188.438 91.8591 189.408 91.5796L192.944 90.5612C192.944 90.5612 194.049 90.4328 197.772 90.5832L197.184 86.3908L193.229 86.3438Z" fill="#F7A588"/>
</svg>
