<?xml version="1.0" encoding="UTF-8"?>
<svg width="272" height="197" viewBox="0 0 272 197" fill="none" xmlns="http://www.w3.org/2000/svg">
<path fill-rule="evenodd" clip-rule="evenodd" d="M87.5398 85.9488C87.5398 85.9488 118.678 107.049 139.515 103.956C152.52 102.026 140.087 46.9458 140.087 46.9458L131.039 47.0802C131.039 47.0802 132.912 85.9719 129.786 85.4027C127.819 85.0448 103.784 70.3064 103.784 70.3064L87.5398 85.9488Z" fill="#F38574"/>
<mask id="mask0_636_1832" style="mask-type:luminance" maskUnits="userSpaceOnUse" x="23" y="9" width="103" height="108">
<path fill-rule="evenodd" clip-rule="evenodd" d="M23 9.22559H125.319V116.531H23V9.22559Z" fill="white"/>
</mask>
<g mask="url(#mask0_636_1832)">
<path fill-rule="evenodd" clip-rule="evenodd" d="M76.182 14.2857C75.612 14.7716 75.0685 15.2891 74.5555 15.8356C70.3429 20.3245 70.6139 28.1309 64.7703 31.1594C60.5901 33.3258 55.5773 31.5046 50.8821 31.1624C47.4201 30.9103 43.8193 31.5454 40.9022 33.4297C37.9851 35.314 35.849 38.5473 35.7457 42.021C35.6439 45.432 37.415 48.6349 37.7023 52.0351C37.9639 55.134 36.9192 58.3231 34.8747 60.6652C32.6894 63.1684 29.5578 64.611 26.9752 66.7021C24.393 68.7927 22.2476 72.1373 23.2529 75.3061C24.3305 78.7029 28.4596 80.2617 29.9267 83.5094C31.5046 87.0022 29.5096 90.9524 28.069 94.5043C26.6289 98.0562 26.1366 102.962 29.4059 104.958C30.8568 105.844 32.6678 105.852 34.3597 105.693C35.4772 105.588 36.6645 105.434 37.6708 105.932C38.2777 106.231 38.7528 106.741 39.1802 107.267C41.73 110.404 43.3939 114.73 47.1992 116.087C49.1651 116.789 51.3273 116.518 53.3935 116.225C57.7128 115.612 62.257 114.834 65.6079 112.039C71.4225 107.189 71.6457 98.0902 76.6817 92.4349C80.6932 87.9298 87.0507 86.3922 93.0507 85.8058C99.0512 85.2198 127.652 89.6491 125.167 70.7375C124.498 65.6519 117.92 61.8159 116.892 56.7903C116.06 52.7195 117.591 48.7771 117.649 44.724C117.706 40.7511 115.868 36.8482 114.298 33.2667C111.122 26.0226 105.983 15.4093 98.8476 11.4137C91.7719 7.45267 82.213 9.14296 76.182 14.2857Z" fill="#CA523D"/>
</g>
<path fill-rule="evenodd" clip-rule="evenodd" d="M122.325 198.116C112.87 198.073 103.17 198.022 93.4748 197.967C93.4393 195.386 93.131 174.901 92.0927 174.641C91.0578 174.382 85.4484 195.099 84.691 197.917C74.2629 197.854 63.9318 197.789 54.0138 197.722C53.2057 193.135 47.9499 158.707 68.0396 138.142L88.2106 139.391L108.45 138.142C108.45 138.142 117.055 148.577 120.937 160.79C124.665 172.517 122.502 196.254 122.325 198.116Z" fill="#112346"/>
<path fill-rule="evenodd" clip-rule="evenodd" d="M108.449 132.731V138.143C108.449 138.143 98.1911 148.135 68.0392 138.143L67.9698 132.731L94.4477 131.065L108.449 132.731Z" fill="#3A4E6C"/>
<path fill-rule="evenodd" clip-rule="evenodd" d="M98.2037 67.4485C98.2037 67.4485 108.359 69.7379 113.781 73.4853C117.66 76.1657 126.096 82.4232 126.096 82.4232L116.922 96.9616C116.922 96.9616 119.267 106.083 110.113 110.661L108.454 132.727C108.454 132.727 91.2643 142.719 67.9746 132.727C67.9746 132.727 65.242 121.937 62.1552 108.997C59.666 98.5603 56.0848 86.8313 60.1735 77.4203C65.4594 65.2525 83.4937 66.5026 83.4937 66.5026L98.2037 67.4485Z" fill="#ECC478"/>
<path fill-rule="evenodd" clip-rule="evenodd" d="M107.357 36.553C107.357 36.553 108.801 34.4018 109.925 35.2886C112.79 37.549 109.654 40.5032 107.73 41.1314L107.357 36.553Z" fill="#EC806E"/>
<path fill-rule="evenodd" clip-rule="evenodd" d="M89.3935 10.2158C80.5738 10.7338 73.4189 17.9065 72.8956 26.7351C72.723 29.638 73.2616 32.3987 74.3436 34.8674C76.73 41.0165 78.7038 45.9712 81.1748 49.5851C83.6793 53.2483 84.8071 57.6796 84.1514 62.07L83.4894 66.5037C93.6932 71.6942 98.1994 67.45 98.1994 67.45L98.2712 56.3517C109.352 55.102 108.01 34.6375 108.049 28.5918L108.032 28.5947C108.042 28.3682 108.052 28.1413 108.053 27.9128C108.119 17.7943 99.6489 9.61366 89.3935 10.2158Z" fill="#F38574"/>
<path fill-rule="evenodd" clip-rule="evenodd" d="M87.8922 28.0214C84.7749 31.6614 81.4614 35.2296 79.1241 39.3999C78.8654 39.8578 77.0323 43.3082 77.5532 43.7095C74.7123 41.519 72.9053 38.2665 71.386 35.0149C68.7532 29.3798 69.5755 22.6359 72.8738 17.4577C76.1352 12.3382 81.5691 9.70205 87.5332 9.25548C93.9291 8.77641 100.89 10.9689 104.763 16.3361C108.399 21.373 108.524 27.7141 108.906 33.6624C108.477 26.985 99.5444 21.9476 94.1878 19.5552C94.3437 19.6251 90.1532 25.2962 89.9309 25.5734C89.2694 26.3981 88.5857 27.2114 87.8922 28.0214Z" fill="#CA523D"/>
<path fill-rule="evenodd" clip-rule="evenodd" d="M79.679 39.8405C79.3982 39.2689 78.9058 38.8312 78.3171 38.5889C77.1052 38.0907 74.9667 37.5412 73.4838 39.0065C71.3088 41.1556 75.6188 46.9187 79.9348 44.0965C79.9348 44.0965 81.1703 42.8754 79.679 39.8405Z" fill="#F38574"/>
<path fill-rule="evenodd" clip-rule="evenodd" d="M104.444 36.7024C104.531 35.858 103.918 35.1027 103.075 35.0151C102.231 34.9279 101.476 35.5414 101.389 36.3863C101.302 37.2307 101.915 37.986 102.758 38.0731C103.602 38.1608 104.357 37.5468 104.444 36.7024Z" fill="#080435"/>
<path fill-rule="evenodd" clip-rule="evenodd" d="M89.9399 38.2361C90.027 37.3917 89.4141 36.6364 88.5706 36.5488C87.7271 36.4616 86.9721 37.0751 86.8851 37.92C86.798 38.7644 87.4108 39.5197 88.2544 39.6068C89.0979 39.6945 89.8528 39.0805 89.9399 38.2361Z" fill="#080435"/>
<path fill-rule="evenodd" clip-rule="evenodd" d="M100.549 31.6785C100.388 31.5914 100.266 31.4363 100.226 31.2433C100.155 30.8971 100.379 30.5599 100.724 30.4895C100.828 30.4683 103.277 29.9868 105.753 31.4648C106.056 31.6455 106.155 32.0374 105.975 32.3407C105.795 32.645 105.391 32.7405 105.1 32.5633C103.052 31.3408 101 31.7381 100.979 31.742C100.827 31.7726 100.676 31.747 100.549 31.6785Z" fill="#100259"/>
<path fill-rule="evenodd" clip-rule="evenodd" d="M96.8139 44.1334C98.6303 43.8695 99.2431 42.5071 99.3041 41.7213C99.3149 41.5834 99.2721 41.4475 99.1856 41.3402C97.5694 39.3412 97.7563 36.4299 97.7587 36.4013C97.7799 36.1049 97.5576 35.8474 97.2615 35.8257C96.9698 35.8036 96.7087 36.0261 96.6865 36.322C96.6772 36.4545 96.4731 39.5047 98.198 41.8212C98.0893 42.2452 97.6466 43.1915 95.9222 43.095C95.6202 43.0807 95.3718 43.3057 95.3556 43.6021C95.3389 43.8985 95.5656 44.1536 95.8617 44.1698C96.2109 44.189 96.5277 44.1747 96.8139 44.1334Z" fill="#EC806E"/>
<path fill-rule="evenodd" clip-rule="evenodd" d="M102.109 47.9237C102.109 47.9237 99.999 46.7268 99.2263 46.9813C98.4541 47.2359 98.069 48.2048 98.069 48.2048C98.069 48.2048 97.5555 47.2817 96.6009 47.3137C95.6467 47.3462 92.5505 49.2994 92.5505 49.2994C92.5505 49.2994 95.746 53.2181 98.6081 52.5509C101.523 51.872 102.109 47.9237 102.109 47.9237Z" fill="#FF6760"/>
<path fill-rule="evenodd" clip-rule="evenodd" d="M92.5505 49.299C92.5505 49.299 98.3936 48.7732 102.109 47.9233C102.109 47.9233 100.523 50.9784 98.2879 51.101C96.0525 51.2232 92.5505 49.299 92.5505 49.299Z" fill="white"/>
<path fill-rule="evenodd" clip-rule="evenodd" d="M116.919 97.2529C116.775 97.2529 116.65 97.1451 116.632 96.9984C116.626 96.9462 115.956 91.7316 111.927 87.9374C111.81 87.8277 111.805 87.645 111.914 87.5288C112.023 87.4121 112.206 87.4067 112.322 87.516C116.509 91.4588 117.179 96.7079 117.206 96.9295C117.225 97.088 117.112 97.2313 116.954 97.251C116.942 97.2525 116.931 97.2529 116.919 97.2529Z" fill="#100259"/>
<path fill-rule="evenodd" clip-rule="evenodd" d="M94.2244 136.956C92.6943 136.956 91.4484 138.203 91.4484 139.735C91.4484 141.267 92.6943 142.513 94.2244 142.513C95.7545 142.513 97.0003 141.267 97.0003 139.735C97.0003 138.203 95.7545 136.956 94.2244 136.956ZM94.2211 144.824C91.4167 144.824 89.135 142.54 89.135 139.733C89.135 136.925 91.4167 134.641 94.2211 134.641C97.0261 134.641 99.3073 136.925 99.3073 139.733C99.3073 142.54 97.0261 144.824 94.2211 144.824Z" fill="#E9E0D1"/>
<path fill-rule="evenodd" clip-rule="evenodd" d="M151.741 26.2578L136.954 28.4277V44.3241L151.741 46.1296V26.2578Z" fill="#100259"/>
<path fill-rule="evenodd" clip-rule="evenodd" d="M144.345 36.3847C144.345 40.8071 141.367 44.392 137.692 44.392C134.018 44.392 131.039 40.8071 131.039 36.3847C131.039 31.9623 134.018 28.3774 137.692 28.3774C141.367 28.3774 144.345 31.9623 144.345 36.3847Z" fill="#100259"/>
<path fill-rule="evenodd" clip-rule="evenodd" d="M154.565 25.1753L141.001 27.5815V45.2085L154.565 47.211V25.1753Z" fill="#6887D5"/>
<path fill-rule="evenodd" clip-rule="evenodd" d="M147.784 36.4032C147.784 41.3071 145.052 45.282 141.682 45.282C138.311 45.282 135.579 41.3071 135.579 36.4032C135.579 31.4993 138.311 27.5244 141.682 27.5244C145.052 27.5244 147.784 31.4993 147.784 36.4032Z" fill="#6887D5"/>
<path fill-rule="evenodd" clip-rule="evenodd" d="M181.531 17.5049L158.523 21.5861V51.4872L181.531 54.8841V17.5049Z" fill="#2F61C6"/>
<path fill-rule="evenodd" clip-rule="evenodd" d="M170.025 36.554C170.025 44.8725 165.39 51.6154 159.673 51.6154C153.956 51.6154 149.321 44.8725 149.321 36.554C149.321 28.2356 153.956 21.4927 159.673 21.4927C165.39 21.4927 170.025 28.2356 170.025 36.554Z" fill="#2F61C6"/>
<path fill-rule="evenodd" clip-rule="evenodd" d="M216.245 9.78711L184.351 15.4448V56.8944L216.245 61.6028V9.78711Z" fill="#ECC478"/>
<path fill-rule="evenodd" clip-rule="evenodd" d="M200.294 36.1931C200.294 47.7242 193.87 57.0717 185.944 57.0717C178.019 57.0717 171.594 47.7242 171.594 36.1931C171.594 24.662 178.019 15.3145 185.944 15.3145C193.87 15.3145 200.294 24.662 200.294 36.1931Z" fill="#7797F7"/>
<path fill-rule="evenodd" clip-rule="evenodd" d="M240.686 36.01C240.686 51.4795 231.814 64.02 220.871 64.02C209.927 64.02 201.055 51.4795 201.055 36.01C201.055 20.5405 209.927 8 220.871 8C231.814 8 240.686 20.5405 240.686 36.01Z" fill="#3A4E6C"/>
<path fill-rule="evenodd" clip-rule="evenodd" d="M230.05 8L220.601 8.00246L219.548 64.0205H230.05V8Z" fill="#3A4E6C"/>
<path fill-rule="evenodd" clip-rule="evenodd" d="M249.866 36.01C249.866 51.4795 240.995 64.02 230.051 64.02C219.107 64.02 210.235 51.4795 210.235 36.01C210.235 20.5405 219.107 8 230.051 8C240.995 8 249.866 20.5405 249.866 36.01Z" fill="#112346"/>
<path fill-rule="evenodd" clip-rule="evenodd" d="M245.009 36.0101C245.009 40.8076 244.004 45.2512 242.292 48.8971H242.291C239.585 54.6617 235.112 58.4298 230.051 58.4298C221.79 58.4298 215.092 48.392 215.092 36.0101C215.092 26.8216 218.781 18.9226 224.061 15.4608C224.061 15.4608 224.059 15.4593 224.062 15.4593C225.895 14.2575 227.921 13.5903 230.051 13.5903C238.312 13.5903 245.009 23.6281 245.009 36.0101Z" fill="#6CB4C0"/>
<path fill-rule="evenodd" clip-rule="evenodd" d="M245.012 36.0101C245.012 40.8076 244.008 45.2512 242.295 48.8972H242.294C240.46 50.099 238.435 50.7662 236.305 50.7662C228.044 50.7662 221.347 40.7279 221.347 28.3459C221.347 23.5498 222.352 19.1063 224.064 15.4608C224.064 15.4608 224.063 15.4593 224.066 15.4593C225.898 14.2575 227.925 13.5903 230.054 13.5903C238.316 13.5903 245.012 23.6281 245.012 36.0101Z" fill="#A9D3DA"/>
<path fill-rule="evenodd" clip-rule="evenodd" d="M242.445 41.7638C242.371 41.7638 242.297 41.7569 242.222 41.7426C241.581 41.62 241.16 41.0007 241.283 40.3586C241.445 39.5063 241.547 34.2996 240.036 29.0003C239.19 26.0323 237.996 23.5582 236.486 21.6459C234.69 19.3712 232.433 17.897 229.778 17.2644C229.143 17.1132 228.751 16.4751 228.902 15.8395C229.053 15.2038 229.69 14.8114 230.325 14.9626C236.057 16.3284 240.202 20.9581 242.309 28.3509C243.875 33.8432 243.87 39.4074 243.605 40.8022C243.497 41.3689 243.001 41.7638 242.445 41.7638Z" fill="white"/>
<path fill-rule="evenodd" clip-rule="evenodd" d="M105.307 26.2578L90.5201 28.4277V44.3241L105.307 46.1296V26.2578Z" fill="#100259"/>
<path fill-rule="evenodd" clip-rule="evenodd" d="M97.9148 36.3847C97.9148 40.8071 94.9362 44.392 91.2617 44.392C87.5876 44.392 84.609 40.8071 84.609 36.3847C84.609 31.9623 87.5876 28.3774 91.2617 28.3774C94.9362 28.3774 97.9148 31.9623 97.9148 36.3847Z" fill="#112346"/>
<path fill-rule="evenodd" clip-rule="evenodd" d="M108.137 25.1753L94.573 27.5815V45.2085L108.137 47.211V25.1753Z" fill="#ECC478"/>
<path fill-rule="evenodd" clip-rule="evenodd" d="M101.358 36.4032C101.358 41.3071 98.6256 45.282 95.2555 45.282C91.8849 45.282 89.1527 41.3071 89.1527 36.4032C89.1527 31.4993 91.8849 27.5244 95.2555 27.5244C98.6256 27.5244 101.358 31.4993 101.358 36.4032Z" fill="#ECC478"/>
<path fill-rule="evenodd" clip-rule="evenodd" d="M135.099 17.5049L112.091 21.5861V51.4872L135.099 54.8841V17.5049Z" fill="#3A4E6C"/>
<path fill-rule="evenodd" clip-rule="evenodd" d="M123.596 36.554C123.596 44.8725 118.962 51.6154 113.244 51.6154C107.527 51.6154 102.893 44.8725 102.893 36.554C102.893 28.2356 107.527 21.4927 113.244 21.4927C118.962 21.4927 123.596 28.2356 123.596 36.554Z" fill="#3A4E6C"/>
<path fill-rule="evenodd" clip-rule="evenodd" d="M169.812 9.78711L137.918 15.4448V56.8944L169.812 61.6028V9.78711Z" fill="#ECC478"/>
<path fill-rule="evenodd" clip-rule="evenodd" d="M153.866 36.1931C153.866 47.7242 147.441 57.0717 139.516 57.0717C131.591 57.0717 125.166 47.7242 125.166 36.1931C125.166 24.662 131.591 15.3145 139.516 15.3145C147.441 15.3145 153.866 24.662 153.866 36.1931Z" fill="#ECC478"/>
<path fill-rule="evenodd" clip-rule="evenodd" d="M194.252 36.01C194.252 51.4795 185.38 64.02 174.436 64.02C163.492 64.02 154.621 51.4795 154.621 36.01C154.621 20.5405 163.492 8 174.436 8C185.38 8 194.252 20.5405 194.252 36.01Z" fill="#3A4E6C"/>
<path fill-rule="evenodd" clip-rule="evenodd" d="M183.622 8L173.678 8.02068L173.12 64.0205H183.622V8Z" fill="#3A4E6C"/>
<path fill-rule="evenodd" clip-rule="evenodd" d="M203.436 36.01C203.436 51.4795 194.564 64.02 183.621 64.02C172.677 64.02 163.805 51.4795 163.805 36.01C163.805 20.5405 172.677 8 183.621 8C194.564 8 203.436 20.5405 203.436 36.01Z" fill="#112346"/>
<path fill-rule="evenodd" clip-rule="evenodd" d="M198.582 36.0101C198.582 40.8076 197.578 45.2512 195.865 48.8971H195.864C193.159 54.6617 188.686 58.4298 183.624 58.4298C175.363 58.4298 168.665 48.392 168.665 36.0101C168.665 26.8216 172.354 18.9226 177.634 15.4608C177.634 15.4608 177.633 15.4593 177.635 15.4593C179.468 14.2575 181.494 13.5903 183.624 13.5903C191.886 13.5903 198.582 23.6281 198.582 36.0101Z" fill="#6CB4C0"/>
<path fill-rule="evenodd" clip-rule="evenodd" d="M198.58 36.0101C198.58 40.8076 197.576 45.2512 195.863 48.8972H195.862C194.027 50.099 192.002 50.7662 189.873 50.7662C181.612 50.7662 174.915 40.7284 174.915 28.3464C174.915 23.5498 175.92 19.1063 177.632 15.4608C177.632 15.4608 177.63 15.4593 177.633 15.4593C179.466 14.2575 181.492 13.5903 183.622 13.5903C191.883 13.5903 198.58 23.6281 198.58 36.0101Z" fill="#A9D3DA"/>
<path fill-rule="evenodd" clip-rule="evenodd" d="M196.017 41.7638C195.943 41.7638 195.869 41.7569 195.794 41.7426C195.152 41.62 194.732 41.0007 194.854 40.3586C195.017 39.5063 195.119 34.2996 193.608 29.0003C192.762 26.0328 191.567 23.5582 190.057 21.6459C188.262 19.3712 186.005 17.897 183.349 17.2644C182.714 17.1127 182.322 16.4751 182.473 15.8395C182.624 15.2038 183.261 14.8114 183.897 14.9626C189.629 16.3284 193.773 20.9581 195.881 28.3509C197.447 33.8437 197.442 39.4074 197.176 40.8022C197.068 41.3689 196.572 41.7638 196.017 41.7638Z" fill="white"/>
<path fill-rule="evenodd" clip-rule="evenodd" d="M116.904 60.2623C116.904 60.2623 122.12 50.0758 121.951 47.6745C121.781 45.2738 120.33 38.2827 120.365 37.1212C120.4 35.9597 121.944 30.0322 121.556 28.9638C121.168 27.8958 117.983 34.8687 117.983 34.8687C117.983 34.8687 119.866 28.5374 118.843 27.8707C117.821 27.2041 115.213 33.818 115.213 33.818C115.213 33.818 117.325 27.4635 116.24 27.1666C115.155 26.8702 113.019 33.0169 113.019 33.0169C113.019 33.0169 114.59 28.0583 113.724 27.8417C112.858 27.6255 108.978 35.4275 109.993 38.7317C112.39 46.5386 110.863 56.0043 110.863 56.0043L116.904 60.2623Z" fill="#F38574"/>
<path fill-rule="evenodd" clip-rule="evenodd" d="M62.1537 92.344C62.1537 92.344 89.0235 115.603 109.932 113.038C124.018 111.31 120.872 51.6123 120.872 51.6123L111.217 52.6261C111.217 52.6261 105.437 93.921 101.356 93.921C99.3571 93.921 76.6606 76.6524 76.6606 76.6524L62.1537 92.344Z" fill="#F38574"/>
<path fill-rule="evenodd" clip-rule="evenodd" d="M78.5409 73.2939L90.7066 83.8074L72.5192 105.997L60.6378 93.9185L64.0478 83.5351L78.5409 73.2939Z" fill="#ECC478"/>
</svg>
