<?xml version="1.0" encoding="UTF-8"?>
<svg width="273" height="200" viewBox="0 0 273 200" fill="none" xmlns="http://www.w3.org/2000/svg">
<path fill-rule="evenodd" clip-rule="evenodd" d="M3.28231 102.851C2.86328 100.135 5.38621 99.1756 7.96627 99.688C8.28713 99.7516 8.59261 99.8283 9.00504 99.9767C9.72441 97.7291 11.1741 97.5698 13.385 98.6464C17.3833 100.594 23.1214 100.35 23.1214 100.35C22.9112 99.7925 22.8782 99.1669 22.9588 98.4418C23.3778 94.6804 26.4529 95.1913 31.3627 95.6233C38.3026 96.2339 44.3575 95.002 51.0699 96.7285C57.9633 98.501 58.3618 103.367 60.3162 107.128C61.0107 108.464 86.7959 148.563 92.077 156.63L54.9854 143.333C49.9044 133.25 43.7414 121.95 41.2104 119.53C37.8597 116.326 23.0218 120.054 15.0633 118.661C7.88496 117.404 3.79509 114.396 3.17828 111.989C3.09697 111.672 3.04056 111.375 3.0076 111.099C-1.68223 107.985 -0.336524 103.106 3.28231 102.851Z" fill="#F7A588"/>
<path fill-rule="evenodd" clip-rule="evenodd" d="M36.8555 103.383C36.825 103.392 36.7923 103.397 36.7587 103.399C28.6427 103.636 25.6712 103.395 24.0655 101.501C23.8109 101.201 23.7416 100.723 23.9103 100.433C24.0795 100.143 24.4225 100.151 24.6772 100.452C25.9385 101.94 29.3432 102.097 36.4982 101.888C36.7947 101.88 37.0936 102.21 37.1658 102.628C37.2295 102.997 37.0934 103.31 36.8555 103.383Z" fill="#CD5649"/>
<path fill-rule="evenodd" clip-rule="evenodd" d="M23.5611 105.095C19.6713 105.095 15.8993 103.5 13.1237 102.327C12.4548 102.044 11.8226 101.777 11.2776 101.57C10.8776 101.419 10.6762 100.973 10.8278 100.573C10.9802 100.174 11.4271 99.9734 11.8278 100.125C12.3999 100.342 13.0453 100.614 13.728 100.903C16.4531 102.055 20.1826 103.632 23.8586 103.545C23.8651 103.545 23.8717 103.545 23.8776 103.545C24.2974 103.545 24.6424 103.879 24.6519 104.3C24.6622 104.727 24.3237 105.081 23.8959 105.091C23.7846 105.094 23.6725 105.095 23.5611 105.095Z" fill="#CD5649"/>
<path fill-rule="evenodd" clip-rule="evenodd" d="M20.0192 108.354C19.354 108.354 18.7152 108.338 18.1467 108.299C16.5183 108.187 14.6656 107.381 12.7046 106.528C10.7054 105.659 8.63815 104.76 6.49982 104.404C6.25002 104.363 6.00168 104.344 5.76287 104.345H5.75554C5.33066 104.345 4.98489 104.004 4.9805 103.58C4.97683 103.152 5.3204 102.803 5.74822 102.799C6.07787 102.796 6.41558 102.823 6.75475 102.879C9.08208 103.265 11.3354 104.246 13.3243 105.111C15.1594 105.909 16.8919 106.663 18.2537 106.756C21.1942 106.958 26.3499 106.494 26.4019 106.49C26.8275 106.449 27.2055 106.764 27.2444 107.189C27.2832 107.615 26.9689 107.991 26.5426 108.03C26.3668 108.046 22.9399 108.354 20.0192 108.354Z" fill="#CD5649"/>
<path fill-rule="evenodd" clip-rule="evenodd" d="M5.18264 112.377C4.7812 112.377 4.44203 112.069 4.41053 111.663C4.2794 109.958 4.97972 109.027 5.59067 108.547C7.57883 106.983 11.2013 107.979 12.265 108.321C16.7592 109.769 19.036 110.352 23.531 110.292C27.9534 110.233 35.2592 107.378 35.3325 107.349C35.731 107.192 36.1808 107.388 36.3375 107.785C36.495 108.182 36.2994 108.631 35.9009 108.787C35.5911 108.909 28.2552 111.775 23.5515 111.839C18.8448 111.902 16.3549 111.264 11.7881 109.793C9.51351 109.06 7.45723 109.048 6.55032 109.761C6.08661 110.126 5.89175 110.71 5.95622 111.544C5.98918 111.97 5.66979 112.342 5.24271 112.375C5.22293 112.376 5.20242 112.377 5.18264 112.377Z" fill="#CD5649"/>
<path fill-rule="evenodd" clip-rule="evenodd" d="M180.402 68.0338C180.402 68.0338 183.019 75.433 187.6 84.5732C192.18 93.7134 190.871 92.9089 190.871 92.9089L156.76 95.8896L143.76 84.5481L148.281 80.9455C148.281 80.9455 152.817 74.5283 152.12 67.9764C151.424 61.4244 175.808 71.6805 175.808 71.6805L180.402 68.0338Z" fill="#F7A588"/>
<ellipse cx="167.222" cy="40.9905" rx="28.7782" ry="27.8558" fill="#3B4E6C"/>
<ellipse cx="167.6" cy="10.5226" rx="15.574" ry="10.4459" fill="#3B4E6C"/>
<ellipse cx="167.328" cy="48.0116" rx="25.3923" ry="26.9853" fill="#F7A588"/>
<ellipse cx="167.755" cy="26.6274" rx="24.8643" ry="13.4926" fill="#3B4E6C"/>
<path d="M157.282 70.3481C162.52 73.4717 170.543 74.6539 177.352 70.647" stroke="#CC523E" stroke-linecap="round" stroke-linejoin="round"/>
<path fill-rule="evenodd" clip-rule="evenodd" d="M189.578 170.975C199.306 179.217 198.556 199.757 198.556 199.757L207.613 199.267L206.768 173.093L189.578 170.975Z" fill="#EBC378"/>
<path fill-rule="evenodd" clip-rule="evenodd" d="M249.86 72.741C249.476 69.5506 247.327 66.8524 244.426 66.5237C241.525 66.1951 239.555 67.4773 239.183 68.4061C239.033 65.6957 236.719 63.2153 234.338 63.0857C231.957 62.9555 229.431 63.9299 228.035 66.2862C226.638 68.6421 229.742 80.2476 232.197 85.4713C234.651 90.6955 241.403 101.228 244.666 101.345C247.929 101.462 251.004 106.186 251.21 100.214C251.416 94.2419 249.86 72.741 249.86 72.741Z" fill="#F7A588"/>
<path fill-rule="evenodd" clip-rule="evenodd" d="M205.465 148.598C205.119 148.598 204.83 148.327 204.813 147.979C204.645 144.649 204.48 141.641 204.323 139.037C204.302 138.678 204.576 138.369 204.936 138.347C205.297 138.326 205.606 138.599 205.627 138.959C205.784 141.567 205.949 144.579 206.118 147.914C206.136 148.273 205.858 148.579 205.498 148.597C205.487 148.598 205.476 148.598 205.465 148.598Z" fill="#BD2025"/>
<path fill-rule="evenodd" clip-rule="evenodd" d="M228.655 65.8928C228.027 64.5102 226.535 62.9302 223.275 63.0735C220.637 63.1895 218.128 64.4768 216.626 71.1357C215.241 77.28 215.612 77.3621 214.391 78.9669C211.799 76.8567 212.285 67.2773 205.941 64.8916C201.112 63.0756 198.496 67.3214 198.666 72.6696C199.007 83.4462 200.285 87.3481 204.095 93.3927C207.907 99.4373 211.82 102.234 219.465 107.418C220.441 107.625 223.689 116.313 223.271 123.06C223.02 127.116 221.244 130.79 221.803 136.31L211.911 150.94C224.572 162.803 235.455 168.404 243.268 166.98C252.476 165.302 258.502 159.023 257.236 146.35C256.325 137.238 253.798 128.915 251.787 113.272L228.655 65.8928Z" fill="#F7A588"/>
<path fill-rule="evenodd" clip-rule="evenodd" d="M224.047 148.141C223.766 148.141 223.506 147.958 223.421 147.676C222.458 144.466 221.777 141.035 221.336 137.187C221.295 136.829 221.553 136.506 221.911 136.465C222.27 136.425 222.593 136.681 222.634 137.039C223.071 140.862 223.719 144.123 224.673 147.302C224.777 147.647 224.58 148.01 224.235 148.113C224.172 148.132 224.109 148.141 224.047 148.141Z" fill="#D35F4C"/>
<path fill-rule="evenodd" clip-rule="evenodd" d="M244.656 114.197C251.38 114.504 254.521 110.092 256.747 102.622C258.667 96.1804 260.576 81.275 259.568 76.262C259.172 74.2935 258.422 72.7601 257.231 71.7285C255.39 70.1343 252.807 69.6958 251.271 70.3632C248.742 71.4627 246.018 77.3047 244.652 84.1373L244.656 114.197Z" fill="#F7A588"/>
<path fill-rule="evenodd" clip-rule="evenodd" d="M245.965 115.019C245.744 115.019 245.52 115.014 245.292 115.003C244.931 114.987 244.652 114.682 244.669 114.323C244.685 113.963 244.99 113.685 245.351 113.701C247.394 113.794 249.093 113.428 250.546 112.583C250.857 112.402 251.258 112.507 251.439 112.818C251.621 113.129 251.515 113.528 251.204 113.709C249.693 114.589 247.973 115.019 245.965 115.019Z" fill="#D35F4C"/>
<path fill-rule="evenodd" clip-rule="evenodd" d="M162.901 90.0256C152.783 89.1199 148.719 83.24 146.579 81.0386C135.437 81.382 118.748 87.5679 111.64 102.215C105.923 113.994 87.9339 137.478 87.9339 137.478C87.9339 137.478 74.7408 119.211 65.4662 109.694C62.6665 111.789 48.5185 123.896 44.5645 127.459C51.4928 140.217 72.937 172.113 83.655 177.121C88.7405 179.496 95.302 177.999 100.318 174.118C104.331 171.013 114.925 156.682 120.799 147.335C123.535 142.982 124.689 139.025 124.689 139.025C124.689 139.025 123.936 158.515 122.398 168.187C120.859 177.859 118.657 199.757 118.657 199.757H207.632L205.746 147.715L211.265 151.679L223.018 135.754C223.018 135.754 220.371 106.282 214.802 97.1601C203.751 79.0587 186.032 80.0026 186.032 80.0026C186.032 80.0026 176.762 91.2663 162.901 90.0256Z" fill="#EBC378"/>
<path fill-rule="evenodd" clip-rule="evenodd" d="M124.562 139.166L122.855 123.831C119.591 141.42 105.463 159.43 98.3568 164.31C96.5913 165.522 95.847 174.667 90.0828 175.49C86.5088 176 80.3587 174.112 76.8051 171.762C79.6026 173.474 81.1829 177.485 87.5314 178.221C98.1277 179.45 101.617 172.288 105.987 167.443C113.826 158.752 122.097 145.277 124.407 141.42L124.562 139.166Z" fill="#E4B157"/>
<path d="M123.868 124.676C125.273 140.783 122.738 173.221 122.738 173.221" stroke="#E4B157" stroke-width="3" stroke-linecap="round" stroke-linejoin="round"/>
<path fill-rule="evenodd" clip-rule="evenodd" d="M177.558 188.99L258.055 198.873L272.001 85.292L191.504 75.4082L177.558 188.99Z" fill="white" stroke="#CCC6BF"/>
<rect x="192.4" y="108.459" width="71.2711" height="19.6173" rx="4" transform="rotate(7 192.4 108.459)" fill="#EFC778"/>
<rect x="192.4" y="108.459" width="71.2711" height="19.6173" rx="4" transform="rotate(7 192.4 108.459)" stroke="#EFC778"/>
<path fill-rule="evenodd" clip-rule="evenodd" d="M193.244 121.741L258.292 129.728L258.392 128.917L193.344 120.93L193.244 121.741Z" fill="#CC523E"/>
<path fill-rule="evenodd" clip-rule="evenodd" d="M193.543 119.305L258.591 127.292L258.691 126.481L193.643 118.494L193.543 119.305Z" fill="#CC523E"/>
<path fill-rule="evenodd" clip-rule="evenodd" d="M194.039 115.251L259.087 123.238L259.187 122.426L194.139 114.439L194.039 115.251Z" fill="#CC523E"/>
<path fill-rule="evenodd" clip-rule="evenodd" d="M193.742 117.682L258.79 125.669L258.89 124.858L193.842 116.871L193.742 117.682Z" fill="#CC523E"/>
<path fill-rule="evenodd" clip-rule="evenodd" d="M193.045 123.362L258.093 131.349L258.193 130.538L193.145 122.551L193.045 123.362Z" fill="#CC523E"/>
<path fill-rule="evenodd" clip-rule="evenodd" d="M192.744 125.796L209.006 127.792L209.106 126.981L192.844 124.984L192.744 125.796Z" fill="#CC523E"/>
<path fill-rule="evenodd" clip-rule="evenodd" d="M191.652 134.721L256.701 142.708L256.8 141.897L191.752 133.91L191.652 134.721Z" fill="#CBC5BE"/>
<path fill-rule="evenodd" clip-rule="evenodd" d="M190.256 146.079L255.304 154.066L255.404 153.254L190.355 145.268L190.256 146.079Z" fill="#CBC5BE"/>
<path fill-rule="evenodd" clip-rule="evenodd" d="M188.662 159.059L253.71 167.046L253.81 166.235L188.762 158.248L188.662 159.059Z" fill="#CBC5BE"/>
<path fill-rule="evenodd" clip-rule="evenodd" d="M191.25 137.966L256.298 145.953L256.398 145.141L191.35 137.154L191.25 137.966Z" fill="#CBC5BE"/>
<path fill-rule="evenodd" clip-rule="evenodd" d="M189.957 148.514L255.005 156.501L255.105 155.69L190.057 147.703L189.957 148.514Z" fill="#CBC5BE"/>
<path fill-rule="evenodd" clip-rule="evenodd" d="M188.264 162.303L253.312 170.29L253.411 169.479L188.363 161.492L188.264 162.303Z" fill="#CBC5BE"/>
<path fill-rule="evenodd" clip-rule="evenodd" d="M187.268 170.417L203.53 172.413L203.629 171.602L187.367 169.605L187.268 170.417Z" fill="#CBC5BE"/>
<path fill-rule="evenodd" clip-rule="evenodd" d="M190.854 141.21L210.368 143.606L210.468 142.795L190.953 140.398L190.854 141.21Z" fill="#CBC5BE"/>
<path fill-rule="evenodd" clip-rule="evenodd" d="M189.557 151.757L254.605 159.744L254.704 158.932L189.656 150.945L189.557 151.757Z" fill="#CBC5BE"/>
<path fill-rule="evenodd" clip-rule="evenodd" d="M187.863 165.55L228.518 170.541L228.618 169.73L187.963 164.738L187.863 165.55Z" fill="#CBC5BE"/>
<path fill-rule="evenodd" clip-rule="evenodd" d="M186.969 172.852L212.175 175.947L212.275 175.136L187.068 172.041L186.969 172.852Z" fill="#CBC5BE"/>
<path fill-rule="evenodd" clip-rule="evenodd" d="M229.664 181.387L252.431 184.183L252.531 183.372L229.764 180.576L229.664 181.387Z" fill="#CBC5BE"/>
<path fill-rule="evenodd" clip-rule="evenodd" d="M189.26 154.19L198.204 155.288L198.303 154.477L189.359 153.379L189.26 154.19Z" fill="#CBC5BE"/>
<path fill-rule="evenodd" clip-rule="evenodd" d="M195.633 102.268L208.642 103.866L208.742 103.054L195.732 101.457L195.633 102.268Z" fill="#CBC5BE"/>
<path fill-rule="evenodd" clip-rule="evenodd" d="M195.137 106.327L214.651 108.723L214.751 107.912L195.236 105.516L195.137 106.327Z" fill="#CBC5BE"/>
<path fill-rule="evenodd" clip-rule="evenodd" d="M195.336 104.702L214.85 107.098L214.95 106.287L195.436 103.891L195.336 104.702Z" fill="#CBC5BE"/>
<path fill-rule="evenodd" clip-rule="evenodd" d="M194.338 112.815L207.348 114.413L207.447 113.601L194.438 112.004L194.338 112.815Z" fill="#CC523E"/>
<path fill-rule="evenodd" clip-rule="evenodd" d="M207.816 97.1765L250.911 102.468L251.01 101.657L207.916 96.3652L207.816 97.1765Z" fill="#CBC5BE"/>
<path fill-rule="evenodd" clip-rule="evenodd" d="M189.711 90.0115L270.208 99.8953L272.001 85.292L191.504 75.4082L189.711 90.0115Z" fill="#394D6B"/>
<path fill-rule="evenodd" clip-rule="evenodd" d="M212.262 87.8397L248.038 92.2325L248.536 88.176L212.76 83.7832L212.262 87.8397Z" fill="#F5F4EF"/>
<path fill-rule="evenodd" clip-rule="evenodd" d="M188.927 123.269C188.9 123.493 188.695 123.652 188.471 123.625C188.246 123.597 188.087 123.393 188.114 123.169C188.142 122.945 188.346 122.786 188.57 122.814C188.795 122.841 188.955 123.045 188.927 123.269Z" fill="white"/>
<path fill-rule="evenodd" clip-rule="evenodd" d="M212.839 115.97L211.819 121.749L211.409 115.895L205.617 114.877L211.484 114.468L212.505 108.689L212.914 114.543L218.707 115.561L212.839 115.97Z" fill="white"/>
<path fill-rule="evenodd" clip-rule="evenodd" d="M222.61 107.945L221.908 111.918L221.627 107.893L217.645 107.193L221.678 106.912L222.38 102.939L222.661 106.964L226.643 107.664L222.61 107.945Z" fill="#EFC778"/>
<path fill-rule="evenodd" clip-rule="evenodd" d="M225.656 115.451L225.209 117.979L225.03 115.418L222.496 114.973L225.063 114.794L225.509 112.265L225.689 114.827L228.223 115.272L225.656 115.451Z" fill="white"/>
<path fill-rule="evenodd" clip-rule="evenodd" d="M230.572 109.732L230.125 112.261L229.946 109.699L227.412 109.254L229.979 109.075L230.425 106.547L230.605 109.108L233.139 109.553L230.572 109.732Z" fill="#EFC778"/>
<mask id="mask0_636_2166" style="mask-type:luminance" maskUnits="userSpaceOnUse" x="216" y="82" width="34" height="8">
<path fill-rule="evenodd" clip-rule="evenodd" d="M216.08 86.1255L249.004 89.8082L249.389 86.46L216.465 82.7773L216.08 86.1255Z" fill="white"/>
</mask>
<g mask="url(#mask0_636_2166)">
<path fill-rule="evenodd" clip-rule="evenodd" d="M216.167 82.4062L249.77 86.1647L249.308 90.182L215.705 86.4235L216.167 82.4062Z" fill="#F4F3EF"/>
</g>
<path fill-rule="evenodd" clip-rule="evenodd" d="M248.436 75.0586C246.706 77.7206 245.079 81.9277 244.179 86.4357C243.013 92.2778 244.957 93.897 248.436 93.8889C252.249 93.8798 253.995 84.4735 256.049 82.1931L248.436 75.0586Z" fill="#F7A588"/>
<path fill-rule="evenodd" clip-rule="evenodd" d="M238.897 70.7773C236.759 73.5322 235.534 78.3914 234.903 81.8206C233.603 88.8825 234.466 92.6786 237.064 94.0436C238.172 94.6257 239.9 94.8266 240.847 94.5155C243.006 93.8062 244.179 91.5841 245.245 86.6818L246.379 79.5808L238.897 70.7773Z" fill="#F7A588"/>
<path fill-rule="evenodd" clip-rule="evenodd" d="M228.221 68.0664C226.116 71.0811 225.072 75.8626 224.509 80.2712C223.961 84.56 224.031 89.9489 227.262 91.5509C231.148 93.4761 233.683 90.8999 234.376 89.0208C234.376 89.0208 235.011 79.7079 235.491 78.4033L228.221 68.0664Z" fill="#F7A588"/>
<path fill-rule="evenodd" clip-rule="evenodd" d="M215.403 76.7266C214.443 81.9902 214.426 87.1228 218.016 88.532C220.853 89.6453 223.843 86.9117 223.843 86.9117C223.843 86.9117 223.937 80.1467 224.601 77.6856L215.403 76.7266Z" fill="#F7A588"/>
<path fill-rule="evenodd" clip-rule="evenodd" d="M244.076 90.9312C243.77 90.9312 243.496 90.7146 243.435 90.402C243.28 89.6058 243.423 87.4401 243.775 85.2531C244.657 79.7586 246.413 76.7191 248.448 73.5867C248.645 73.2843 249.05 73.198 249.353 73.3944C249.656 73.5907 249.743 73.9952 249.546 74.2976C247.524 77.4102 245.91 80.2087 245.066 85.4596C244.695 87.774 244.626 89.6728 244.719 90.1538C244.788 90.5075 244.556 90.8506 244.201 90.9191C244.16 90.9272 244.118 90.9312 244.076 90.9312Z" fill="#D35F4C"/>
<path fill-rule="evenodd" clip-rule="evenodd" d="M234.394 89.8746C234.065 89.8746 233.782 89.628 233.745 89.2941C233.52 87.2857 233.688 84.8023 234.259 81.7019C234.921 78.1037 236.174 73.2181 238.379 70.376C238.601 70.0908 239.012 70.039 239.297 70.2603C239.582 70.481 239.635 70.8915 239.414 71.1767C237.369 73.8108 236.181 78.4827 235.545 81.9378C235.006 84.8698 234.837 87.2958 235.045 89.1484C235.085 89.5072 234.827 89.8304 234.468 89.8705C234.443 89.8731 234.419 89.8746 234.394 89.8746Z" fill="#D35F4C"/>
<path fill-rule="evenodd" clip-rule="evenodd" d="M224.466 87.5667C224.152 87.5667 223.875 87.3409 223.821 87.0222C223.506 85.1539 223.518 82.8547 223.859 80.1876C224.597 74.408 225.848 70.3206 227.683 67.6916C227.889 67.3958 228.297 67.3232 228.594 67.5297C228.89 67.7357 228.963 68.1432 228.756 68.439C227.069 70.8565 225.857 74.8647 225.157 80.3525C224.832 82.8922 224.817 85.063 225.111 86.8046C225.171 87.1603 224.932 87.4977 224.575 87.5576C224.538 87.5637 224.502 87.5667 224.466 87.5667Z" fill="#D35F4C"/>
<path fill-rule="evenodd" clip-rule="evenodd" d="M40.8713 91.8719L9.84112 81.4276C9.54076 81.3266 9.38 81.0028 9.48168 80.7043L22.3503 42.9578C22.4523 42.6593 22.7779 42.4996 23.0783 42.6006L54.1084 53.0449C54.4085 53.1459 54.5696 53.4698 54.4679 53.7679L41.5989 91.5147C41.4973 91.8129 41.1716 91.9729 40.8713 91.8719Z" fill="#3B4E6C"/>
<path fill-rule="evenodd" clip-rule="evenodd" d="M93.0454 26.9463C95.2606 24.9475 97.5413 22.8898 100.243 21.5224C95.9633 20.3846 91.5997 17.8913 88.5672 15.8999C85.746 14.0475 83.569 12.3052 82.7303 11.6133C79.2998 15.7328 74.4149 18.5289 70.8707 20.1647C67.0695 21.9191 63.5751 22.9422 61.2832 23.3849C62.5009 24.3004 63.4888 25.4317 64.4504 26.5332C65.4562 27.6849 66.4064 28.773 67.5788 29.6004C69.0023 30.6049 71.4486 30.6819 74.0469 27.8856L74.7578 27.1205L74.8664 28.1562C75.006 29.4922 76.203 31.7367 77.8934 33.0329C78.6007 33.5755 79.7085 34.1819 80.9693 33.9897C86.1087 33.2052 89.6351 30.0233 93.0454 26.9463ZM77.3166 33.7804C75.7392 32.5708 74.5702 30.6643 74.1159 29.1563C72.9505 30.2362 71.7342 30.891 70.4912 31.1064C69.2406 31.3227 68.0119 31.0616 67.0322 30.3703C65.7673 29.4777 64.7351 28.2956 63.737 27.1523C62.5704 25.8163 61.364 24.4346 59.7855 23.5213L58.5723 22.8193L59.9655 22.6472C62.197 22.372 66.3117 21.2342 70.4739 19.3133C74.0318 17.6711 78.9709 14.8358 82.2964 10.6542L82.6039 10.2676L82.9784 10.5906C83.0785 10.6766 93.071 19.2196 101.798 20.9175L103.367 21.223L101.884 21.8161C98.7614 23.0647 96.2956 25.2899 93.6847 27.6457C90.1704 30.8162 86.5366 34.095 81.1152 34.9223C80.9078 34.9543 80.6986 34.9698 80.4887 34.9698C79.4246 34.9698 78.3397 34.5652 77.3166 33.7804Z" fill="#3B4E6C"/>
<mask id="mask1_636_2166" style="mask-type:luminance" maskUnits="userSpaceOnUse" x="15" y="147" width="35" height="31">
<path fill-rule="evenodd" clip-rule="evenodd" d="M15.4141 147.852H49.7391V177.175H15.4141V147.852Z" fill="white"/>
</mask>
<g mask="url(#mask1_636_2166)">
<path fill-rule="evenodd" clip-rule="evenodd" d="M41.6283 155.303C39.2221 155.369 36.7724 155.097 34.3492 154.493C30.4447 153.521 26.8777 151.723 24.7925 149.707C21.519 159.925 18.2557 165.567 17.0957 167.395C30.0603 168.809 37.2108 173.446 40.2982 175.449C40.7407 175.736 41.1949 176.03 41.4541 176.165C45.5775 169.607 47.9648 157.315 48.5391 154.083C46.3651 154.826 44.0444 155.236 41.6283 155.303ZM40.9777 176.977C40.6845 176.822 40.2855 176.563 39.7801 176.235C36.6896 174.231 29.4523 169.536 16.225 168.25L15.4141 168.171L15.8845 167.509C15.9263 167.45 20.1116 161.485 24.1301 148.66L24.3835 147.852L24.9408 148.493C26.779 150.607 30.4721 152.555 34.5797 153.579C38.0942 154.454 43.4438 155.05 48.9719 152.922L49.7391 152.626L49.6111 153.434C49.6047 153.473 48.9732 157.425 47.7416 162.258C46.0828 168.768 44.1842 173.698 42.0945 176.917C41.9637 177.111 41.7876 177.175 41.6114 177.175C41.3531 177.175 41.0945 177.038 40.9777 176.977Z" fill="#3B4E6C"/>
</g>
<path fill-rule="evenodd" clip-rule="evenodd" d="M32.18 64.2514C32.1306 64.2514 32.0807 64.2437 32.0315 64.2271L21.1697 60.6181C20.9279 60.5378 20.798 60.28 20.8801 60.0428C20.962 59.8053 21.2253 59.6781 21.4669 59.7584L32.3284 63.3675C32.5705 63.4478 32.7002 63.7055 32.6183 63.943C32.5528 64.1321 32.3727 64.2514 32.18 64.2514Z" fill="#FEFEFE"/>
<path fill-rule="evenodd" clip-rule="evenodd" d="M44.841 67.8636C44.7883 67.8636 44.7349 67.8561 44.6825 67.8399L35.6973 65.1125C35.4389 65.0341 35.3002 64.7825 35.3879 64.551C35.4754 64.3192 35.7567 64.1951 36.0147 64.2735L44.9996 67.0009C45.2583 67.0793 45.3968 67.3309 45.3093 67.5627C45.2393 67.7472 45.0469 67.8636 44.841 67.8636Z" fill="#FEFEFE"/>
<path fill-rule="evenodd" clip-rule="evenodd" d="M43.0567 73.284C43.007 73.284 42.9568 73.2757 42.9074 73.2579L20.2633 65.2013C20.0198 65.1149 19.8895 64.8374 19.9721 64.5817C20.0544 64.3264 20.3188 64.1895 20.562 64.2759L43.2059 72.3324C43.4493 72.4189 43.5797 72.6964 43.4974 72.952C43.4315 73.1556 43.2504 73.284 43.0567 73.284Z" fill="#FEFEFE"/>
<path fill-rule="evenodd" clip-rule="evenodd" d="M40.3379 78.7039C40.2883 78.7039 40.2381 78.6957 40.1887 78.6781L17.5445 70.6213C17.3011 70.5348 17.1707 70.2573 17.2533 70.0017C17.3356 69.7463 17.6001 69.6094 17.8432 69.6958L40.4872 77.7524C40.7306 77.8388 40.8609 78.1163 40.7786 78.372C40.7128 78.5755 40.5317 78.7039 40.3379 78.7039Z" fill="#FEFEFE"/>
<path fill-rule="evenodd" clip-rule="evenodd" d="M42.1487 62.4429C42.0988 62.4429 42.0485 62.4344 41.999 62.4159L27.5183 57.1032C27.2741 57.0138 27.1434 56.7268 27.2259 56.4623C27.3087 56.1979 27.574 56.0566 27.8177 56.146L42.2983 61.4587C42.5425 61.5481 42.6733 61.8351 42.5907 62.0996C42.5246 62.3101 42.343 62.4429 42.1487 62.4429Z" fill="#FEFEFE"/>
</svg>
