<svg version="1.2" xmlns="http://www.w3.org/2000/svg" viewBox="0 0 114 111" width="114" height="111">
	<title>customer-support-svg</title>
	<defs>
		<clipPath clipPathUnits="userSpaceOnUse" id="cp1">
			<path d="m55.5 111c-27.65 0-50-22.35-50-50 0-27.65 22.35-50 50-50 27.65 0 50 22.35 50 50 0 27.65-22.35 50-50 50z"/>
		</clipPath>
		<clipPath clipPathUnits="userSpaceOnUse" id="cp2">
			<path d="m75.92 99.7h3.6v12.55h-3.6z"/>
		</clipPath>
		<clipPath clipPathUnits="userSpaceOnUse" id="cp3">
			<path d="m63.73 86.78h5.68v25.47h-5.68z"/>
		</clipPath>
		<clipPath clipPathUnits="userSpaceOnUse" id="cp4">
			<path d="m33.28 105.98h10.87v6.27h-10.87z"/>
		</clipPath>
		<clipPath clipPathUnits="userSpaceOnUse" id="cp5">
			<path d="m20.03 92.21h26.89v20.04h-26.89z"/>
		</clipPath>
		<clipPath clipPathUnits="userSpaceOnUse" id="cp6">
			<path d="m0.5 14h113v66h-113z"/>
		</clipPath>
	</defs>
	<style>
		.s0 { fill: #6ee7b7 } 
		.s1 { fill: #f38574 } 
		.s2 { fill: #ea7861 } 
		.s3 { fill: #3a4e6c } 
		.s4 { fill: #ecc478 } 
		.s5 { fill: #112346 } 
		.s6 { fill: #6cb4c0 } 
		.s7 { fill: #37447f } 
		.s8 { fill: #e9e0d1 } 
		.s9 { fill: #f2aa80 } 
		.s10 { fill: #ca523d } 
		.s11 { fill: #ffffff } 
		.s12 { fill: #f0ebda } 
		.s13 { fill: #ccc6bf } 
	</style>
	<path class="s0" d="m55.5 111c-27.7 0-50-22.3-50-50 0-27.7 22.3-50 50-50 27.7 0 50 22.3 50 50 0 27.7-22.3 50-50 50z"/>
	<g id="Clip-Path" clip-path="url(#cp1)">
		<g>
			<path fill-rule="evenodd" class="s1" d="m98 44.3c1.4 1.3 6.4 2.3 6.4 2.3 3.6-15.3 2.2-19.8 3-20.5 0.9-0.8 1.4-2.9 1.9-3.3 0.9-0.8 4.2-1.9 4-2.3-0.3-0.6-2.4 0-3.3 0.3-0.2 0-0.4-0.1-0.5-0.3 0 0 3.6-3.5 3.1-4.1-0.5-0.5-4 2.9-4 2.9h-0.1c0 0 2.6-4.1 2-4.6-0.7-0.5-3.3 4.1-3.3 4.1l-0.2-0.1c0 0 0-0.8 0.4-2 0.5-1.6 0.8-3.1 0-2.6-0.8 0.4-2.2 5.2-3.3 6.2q-0.1 0.1-0.2 0.1-0.5 0.3-0.8 0.1 0 0 0 0c-0.6-0.3-0.8-0.9-1.1-1.9-0.4-1.2-1.1-1.1-1.3-1q-0.1 0-0.1 0.1c0.1 0.2 0.3 1 0.6 3.4 0.5 3.2 1.8 2.9 1.9 4.5 0.3 5.7-5.1 18.7-5.1 18.7z"/>
			<path fill-rule="evenodd" class="s1" d="m98 44.3c0 0-1 1.8-1.3 2.3-0.3 0.4-6.8-1.8-6.8-1.8l-0.5 9.8c0 0 4.9 0.3 8 0 3.1-0.4 5.3-2.1 5.3-2.1 0.1 0 2.6-7.6 2.9-11.6z"/>
			<path fill-rule="evenodd" class="s2" d="m104.2 22.5c0 0 0.6-0.8-0.1-2.2q-0.1 0.1-0.2 0.1-0.5 0.3-0.8 0.1c0.1 0 1 0.8 1.1 2z"/>
			<path fill-rule="evenodd" class="s3" d="m75 19.6c0.3 0.2 1 0.9 1.4 2.1 0.5 1.5 0.2 2.8 0.1 3.5-0.2 0.9-0.4 1.4-0.6 1.7-0.5 1.1-0.9 3.1-0.5 6.5-1.6 1-6.7 3.9-9.3 2.1-0.2-0.2-0.9-1.1-2.4-2.9-2-2.6-2.3-3.1-2.5-3.7-0.5-1.5-0.5-2.8-0.5-3.7 0-1.2 0.1-1.9 0.5-2.8 0.1-0.3 1.1-2.4 3.2-2.7 0.6-0.1 1 0 1.3 0.1 0.1-0.3 0.2-0.7 0.5-1.1 1.3-1.6 4.6-1.4 6.7-0.5 1.3 0.5 2 1.2 2.1 1.4z"/>
			<path fill-rule="evenodd" class="s4" d="m88.6 112.3h-10.1c-0.2-0.7-0.8-2.4-0.8-2.4-2.5-6.8-5.8-13.5-7.3-18.7q-0.3-1-0.5-2-0.1-0.1-0.1-0.3c-0.3-1.5-0.3-2.8-0.1-3.9q0.1-0.6 0.1-1.1c1.3-7.4 2.2-10.3 2.2-10.3l13.2 13.2q0 0 0.1 0.9c0.6 3.4 2.3 14.8 3.3 24.6z"/>
			<g id="Clip-Path" clip-path="url(#cp2)">
				<g>
					<path fill-rule="evenodd" class="s5" d="m77.7 105.6c-0.4-1.4-0.7-2.7-1-3.8-0.3-1.1-0.5-1.8-0.5-1.9q0-0.1-0.1-0.2c-0.1 0-0.2 0-0.2 0.1 0 0.1 0.1 0.5 0.7 2.9q0.3 1.1 0.8 3c0.6 2 1.2 4.3 1.8 6.6h0.3c-0.6-2.4-1.2-4.7-1.8-6.7z"/>
				</g>
			</g>
			<path fill-rule="evenodd" class="s4" d="m80.8 85.8c0 0-0.1 1.5-0.3 3.7-0.2 2.2-0.7 5.2-1.5 8.1-0.5 1.5-2.2 3.4-2.3 4q0 0.1 0 0.2 0 0.5-0.1 0.9-0.3 3.9-0.6 7.7-0.1 1-0.2 1.9h-12.6c-0.2-3.3-0.4-6.5-0.7-9.6q0-0.8-0.1-1.6c-0.3-3.8-0.5-7.3-0.5-10.3 0-2.9 0.2-5.3 0.6-7l5.6 0.6z"/>
			<path fill-rule="evenodd" class="s1" d="m50.5 78c-2.2 0.6-6.4 2.2-6.4 2.2 5.4 14.8 9.7 17.8 9.3 18.9-0.3 1 0.4 3.1 0.2 3.8-0.3 1.1-0.8 5.5-0.4 5.7 0.6 0.3 0.7-1.9 1.2-3.2 0-0.2 0.1-0.7 0.3-0.6 0 0 1.2 4.9 1.9 5.1 0.7 0.2-0.5-4.6-0.5-4.6h0.1c0 0 1.5 4.9 2.3 4.9 0.8 0.1-0.9-5.2-0.9-5.2h0.2c0 0 0.4 0.6 0.8 1.9 0.4 1.6 0.9 3 1.4 2.2 0.4-0.8-1-5.6-0.6-7.1q0-0.1 0-0.1 0.3-0.5 0.7-0.5 0 0 0 0c0.6-0.1 1.1 0.2 2 1 0.9 0.7 1.4 0.3 1.6 0.1q0.1-0.1 0-0.2c-0.2-0.1-0.8-0.6-2.4-2.4-2.2-2.5-3-1.6-4-2.9-2.7-3.7-4.3-10.3-5.6-14.5-0.4-1.4-1.2-4.5-1.2-4.5z"/>
			<path fill-rule="evenodd" class="s1" d="m56.4 58.9c-0.2 0.1-5.9 19.1-5.9 19.1 0 0-6.1 3-6.4 2.2-0.6-1.5-1.1-2.6-0.9-3.7 0.8-5.7 5.5-21.2 5.9-21.5 0.5-0.3 7.3 3.9 7.3 3.9z"/>
			<path fill-rule="evenodd" class="s6" d="m77.8 41.1l1.3 15.2-4.7 14.3-9.7-13.6-0.6-15z"/>
			<g id="Clip-Path" clip-path="url(#cp3)">
				<g>
					<path fill-rule="evenodd" class="s5" d="m69.4 87.5c0 0.1-0.4 1.1-1.2 2.3q-0.1 0.1-0.2 0.2c-0.4 0.5-1 1.1-1.7 1.7-0.5 0.4-1.2 0.7-1.9 1-0.3 4.8-0.6 12.2-0.2 19.6h-0.3c-0.3-7.4-0.1-14.7 0.2-19.5q0-0.2 0-0.3 0.1-0.6 0.1-1.1c0.2-2.8 0.3-4.4 0.3-4.5 0.1-0.1 0.1-0.1 0.2-0.1 0.1 0 0.1 0.1 0.1 0.1 0 0.1-0.1 1.8-0.3 4.5q0 0.5-0.1 1 0.8-0.3 1.5-0.8c0.8-0.5 1.4-1.2 1.9-1.8q0.1-0.2 0.3-0.4c0.7-1 1-1.9 1-2 0.1 0 0.1-0.1 0.2 0 0.1 0 0.1 0.1 0.1 0.1z"/>
				</g>
			</g>
			<path fill-rule="evenodd" class="s1" d="m65.7 43.5c1.6 1.3 3.1 0.4 5.1 0.1 1.9-0.3 3.8 0 2.9-1.6 0 0-0.3-3.1-0.1-4.8 0.2-1.4 0.3-2.3 0.3-2.3-4 0.9-7.3-1.4-7.3-1.4 0.3 0.7 0.2 2.5-0.1 4.5-0.3 1.8-0.7 3-0.7 3-0.4 0.2-1.7 1.2-0.1 2.5z"/>
			<path fill-rule="evenodd" class="s2" d="m66.5 38c0.8 0.5 1.8 0.7 3 0.7 1.8 0 3.3-0.6 4.1-1.5 0.2-1.4 0.3-2.3 0.3-2.3-4 0.9-7.3-1.4-7.3-1.4 0.3 0.7 0.2 2.5-0.1 4.5z"/>
			<path fill-rule="evenodd" class="s1" d="m74 28.4c-0.3 1 0.1 2 0.9 2.3 0.8 0.2 1.7-0.5 1.9-1.5 0.3-1.1-0.1-2.1-0.9-2.3-0.7-0.2-1.6 0.4-1.9 1.5z"/>
			<path fill-rule="evenodd" class="s2" d="m74.5 28.7c-0.1 0.5 0.1 1 0.6 1.1 0.4 0.2 0.9-0.2 1-0.7 0.2-0.5-0.1-1-0.5-1.2-0.5-0.1-0.9 0.3-1.1 0.8z"/>
			<path fill-rule="evenodd" class="s1" d="m65.1 30.1c0.6 1 0.4 2.1-0.3 2.5-0.7 0.4-1.7-0.1-2.2-1-0.6-1-0.4-2.1 0.3-2.5 0.7-0.4 1.7 0.1 2.2 1z"/>
			<path fill-rule="evenodd" class="s2" d="m64.7 30.5c0.3 0.5 0.2 1.1-0.2 1.3-0.4 0.2-1 0-1.2-0.4-0.3-0.5-0.2-1.1 0.2-1.3 0.4-0.2 0.9 0 1.2 0.4z"/>
			<path fill-rule="evenodd" class="s1" d="m70.9 37.8c2-0.3 5.3-3.5 4.8-6.6l-1.1-6.3c-0.5-3.1-3.4-5.2-6.5-4.7l-0.3 0.1c-3.1 0.5-5.1 3.4-4.6 6.5l1 6.3c0.6 3.1 4.7 5.1 6.7 4.7z"/>
			<path fill-rule="evenodd" class="s3" d="m75.8 24.5c0.4 1.5 0.1 4.1 0.1 4.1 0 0-0.6-2.7-1.6-4-1-1.4-2.2-1.4-2.2-1.4 0 0 2.8 4 0.5 3.9-2.3-0.1-5.2-2.5-5.2-2.5 0 0 2 2 1.1 2.6-0.8 0.7-4.7-2.5-4.7-1.4 0 1.1 0.3 4.5 0.3 4.5 0 0-0.7-0.9-1.2-1.7-0.4-0.9-1.9-3.2-0.7-5.5 1.2-2.2 5.2-3.9 10-3.3 2.1 0.3 3.3 3.5 3.6 4.7z"/>
			<path fill-rule="evenodd" class="s7" d="m75.8 83.5c0 0.3 0.3 0.6 0.6 0.6 0.3-0.1 0.6-0.3 0.6-0.6 0-0.4-0.3-0.6-0.6-0.6-0.4 0-0.6 0.3-0.6 0.6z"/>
			<path fill-rule="evenodd" class="s6" d="m61.8 91.9l24 0.7c0-1.8 0-1.7 0.1-2.9l2.4-42.2c-0.1-2.4-10.6-5.8-10.6-5.8-0.6 3.7 1.2 7.3-1.4 10.1-1.3 1.4-0.1 6-1.7 7.1-0.8 0.6 0.7 9.4-0.3 9.3l-10.9-19.9c0-2.4 0.3-3.7 1.3-6-9.4 2.6-11.5 5.9-12.7 10.2l6.9 18.9c0.3 1.2 3.2 10.6 2.9 20.5z"/>
			<path fill-rule="evenodd" class="s5" d="m73.5 60.5c0 0.3 0.3 0.6 0.6 0.5 0.4 0 0.6-0.2 0.6-0.5 0-0.4-0.3-0.6-0.6-0.6-0.3 0-0.6 0.3-0.6 0.6z"/>
			<path fill-rule="evenodd" class="s5" d="m71.6 51.7c0 0.3 0.3 0.6 0.6 0.6 0.3 0 0.6-0.3 0.6-0.6 0-0.3-0.3-0.6-0.6-0.6-0.4 0-0.6 0.3-0.6 0.6z"/>
			<path fill-rule="evenodd" class="s5" d="m75.4 68.2c0 0.3 0.3 0.6 0.6 0.5 0.4 0 0.6-0.2 0.6-0.5 0-0.4-0.3-0.6-0.6-0.6-0.4 0-0.6 0.3-0.6 0.6z"/>
			<path fill-rule="evenodd" class="s5" d="m75.8 75.6c0 0.3 0.3 0.5 0.6 0.5 0.3 0 0.6-0.3 0.6-0.6 0-0.3-0.3-0.5-0.7-0.5-0.3 0-0.6 0.3-0.5 0.6z"/>
			<path fill-rule="evenodd" class="s6" d="m74.2 43.9c4.8 11.3 6.5 37.9 7 46.8l4.9-0.2c0.2-11.7 2.1-34.5 2.1-34.5 1.6 0.2 4.4 0.1 6.6-0.1l-1.4-13.3c-1.4-0.3-3.1-0.8-5.4-1.4-5.9-2-8.4-2-12.8-0.8-2.7 0.2-1.2 0.1-1.1 1.5z"/>
			<path fill-rule="evenodd" class="s3" d="m76.1 40.8l-3.9 6.4-1.4-3.6 5.1-5.1z"/>
			<path fill-rule="evenodd" class="s6" d="m76.1 40.8l-4 5.4-1.3-2.8 5-5.5z"/>
			<path fill-rule="evenodd" class="s6" d="m58.9 71.4c0.3 1.1 4.8 4.9 4.6 19.4l8.6-0.9c0.3-6.3 1-23.7-0.5-32.4-1.9-10.9-3.1-13.2-7.3-15.4 1.2-0.2-7.4-1.1-14.4 8.2l-6.7 14.2c2.4 2 8.4 3.7 10.7 5.8l2.2-5.2z"/>
			<path fill-rule="evenodd" class="s3" d="m63.5 42.7l6.3 4.9 1-3.8-7.9-3.7z"/>
			<path fill-rule="evenodd" class="s6" d="m63.5 42.8l6.2 4.2 1.1-3.4-8-4.1z"/>
			<path fill-rule="evenodd" class="s3" d="m86.4 91.7c0 0.7 0.1 1.2-0.6 1.2l-23.8-0.7c-0.7-0.1-0.5-0.6-0.5-1.3 0-0.7-0.1-1.3 0.6-1.3l23.8 0.8c0.7 0 0.5 0.6 0.5 1.3z"/>
			<path fill-rule="evenodd" class="s8" d="m79.7 91.4c0 0.8-0.9 1.4-2 1.4l-2-0.1c-1.1 0-1.9-0.7-1.9-1.4 0.1-0.8 0.9-1.4 2-1.4l2 0.1c1.1 0 1.9 0.7 1.9 1.4z"/>
			<path fill-rule="evenodd" class="s3" d="m35.4 41.2c0 0-1.7-2.1-5-0.3-3.2 1.8-3.6 9.4-5.7 12.5-2.1 3-8.3 12-5.4 16.2 3 4.3 13.2 4.8 13.2 4.8l6.1-31.9z"/>
			<path fill-rule="evenodd" class="s1" d="m29.7 67.3c3.3 2.4 7.7-0.1 7.7-0.1-1.2-3.1-0.6-6.6-0.3-8 0.1-0.4 0.2-0.6 0.2-0.6-4.3 0.9-7-0.9-7-0.9l-0.3 4.7z"/>
			<path fill-rule="evenodd" class="s2" d="m30 62.4c1.3 0.4 3 0.2 4.5-0.6 1.2-0.7 2.1-1.6 2.6-2.6 0.1-0.4 0.2-0.6 0.2-0.6-4.3 0.9-7-0.9-7-0.9z"/>
			<path fill-rule="evenodd" class="s1" d="m8.6 44.6c-0.7 0.6-2.9 0.3-2.9 0.3 0 0 0.1-7.6-0.6-8.2-0.7-0.5-2.4-3.2-2.6-3.7-0.4-0.8-2.1-2.3-2-2.6 0.4-0.6 2.6 1.7 2.6 1.7l0.2-0.2c0 0-2.7-2.7-2.3-3.2 0.4-0.4 2.9 2.7 2.9 2.7l0.2-0.2c0 0-2-3.4-1.5-3.7 0.5-0.4 2.4 3.5 2.4 3.5l0.2-0.1c0 0 0-0.7-0.4-1.7-0.4-1.2-0.8-2.4-0.1-2 0.7 0.3 2 4.1 2.9 4.9q0.1 0 0.1 0 0.4 0.2 0.7 0.1 0 0 0 0c0.4-0.3 0.6-1.2 0.8-2.1 0.3-1.2 0.9-1 0.9-1 0 0 0.1 0.9-0.2 3.5-0.3 2.6-0.9 2.5-1.3 3.7-0.5 1.2 0 8.3 0 8.3z"/>
			<path fill-rule="evenodd" class="s2" d="m7.6 33.8c0 0-0.6-0.6 0-1.7q0.1 0 0.1 0 0.4 0.2 0.7 0.1c-0.1 0-0.8 0.7-0.8 1.6z"/>
			<g id="Clip-Path" clip-path="url(#cp4)">
				<g>
					<path fill-rule="evenodd" class="s9" d="m44.2 107.4c0 0-0.6 1.9-1.3 4.9h-9.6c0.1-3.7 0.3-6.3 0.3-6.3z"/>
				</g>
			</g>
			<path fill-rule="evenodd" class="s9" d="m31.6 108.6c0 0-0.5 1.5-1.3 3.7h-9.9c0.6-3.7 0.8-6.3 0.8-6.3z"/>
			<g id="Clip-Path" clip-path="url(#cp5)">
				<g>
					<path fill-rule="evenodd" class="s10" d="m46.9 106c-0.1 2.7-0.2 4.8-0.2 6.3h-26.7l1.4-11.4 0.1-3.4v-0.3l0.1-3.8c0 0 20 0.1 22.5-1.2 0 0 0.4 0.6 0.9 1.7q0.2 0.4 0.4 1 0.1 0.5 0.3 1.1 0.1 0.2 0.1 0.3 0.3 0.9 0.5 1.9c0.3 1.4 0.5 3.1 0.6 4.9q0 0.4 0 0.9 0 1 0 2z"/>
				</g>
			</g>
			<path fill-rule="evenodd" class="s4" d="m55.2 100.3c-4.2 3.1-6.9 5.9-8.9 3-2.1-2.9-3-6.2-0.8-8.6 2.2-2.3 5.3-1.4 6-2.2 0.7-0.8-1.6-4.4-3.1-5.8-1.6-1.3-2.6-2.1-2.9 0.7-0.3 2.9 1.6 3 0.9 4.6-0.5 1-1.2 1.9-2.1 2.2q0 0 0 0-0.6 0.3-1.3 0.2 0 0-0.1 0.1c-0.7 0.9-4.7 5.3-10.2 6.4-6.2 1.2-11.3 0-11.3 0l-0.4-3.4v-0.1q0 0-0.3-0.2c-0.6-0.5-2.2-2.1-2.2-5.3 0.1-3.8 2.6-17.5 0-20.3-2.5-2.7-11.9-14.6-14.4-18.2-2.5-3.6-2-5.4-1-9.3 1-3.8 2.3-3.4 1.5-4.8-0.9-1.5-1-2.8-1-2.8 0 0 5.3-3.2 6.6-0.5l0.5 2.6c0 0 0.6 1.4 3.4 2.6 2.8 1.2 0.9 5.3 1.9 9.4 0.5 1.6 1 4.5 4.5 8.5 4.9 5.7 5.8 1.1 11 5.6 2.9 2.5 11.7-2.6 15.5 2.2 3.9 4.9 10.4 18 12.6 20.6 2.3 2.6-0.2 9.7-4.4 12.8z"/>
			<path fill-rule="evenodd" class="s4" d="m29.7 62.6c0 0 4.4 1.8 7.2 0.2l1 2.8c0 0-0.6 2.1-4.7 2-3.4-0.1-4.5-1.9-4.3-2.7 0.1-0.2 0.8-2.3 0.8-2.3z"/>
			<path fill-rule="evenodd" class="s3" d="m35.4 41.2c0 0 3.7-1.3 5.6 1.3 1.8 2.7 1 10.3 3.8 17.7 2.8 7.3-3.6 15.5-4.7 14.2-1.1-1.2-1.1-2.7-1.1-2.7 0 0-1.3 7.6-4.5 5.3-3.2-2.4 1.5-10.2 1.8-17.1 0.3-6.8-0.9-18.7-0.9-18.7z"/>
			<path fill-rule="evenodd" class="s1" d="m38.3 54c-0.5 0.9-0.4 1.9 0.3 2.3 0.6 0.4 1.6 0 2.2-0.9 0.5-0.9 0.4-1.9-0.3-2.3-0.6-0.4-1.6 0-2.2 0.9z"/>
			<path fill-rule="evenodd" class="s2" d="m38.8 54.4c-0.3 0.4-0.2 1 0.1 1.2 0.4 0.2 0.9 0 1.2-0.4 0.3-0.5 0.2-1-0.2-1.2-0.4-0.2-0.9-0.1-1.1 0.4z"/>
			<path fill-rule="evenodd" class="s1" d="m29.8 52.4c0.2 1-0.2 2-0.9 2.2-0.8 0.2-1.6-0.5-1.9-1.5-0.2-1 0.2-2 0.9-2.2 0.8-0.2 1.6 0.5 1.9 1.5z"/>
			<path fill-rule="evenodd" class="s2" d="m29.3 52.7c0.1 0.5-0.1 1-0.6 1.1-0.4 0.1-0.8-0.2-1-0.7-0.1-0.5 0.2-1 0.6-1.1 0.4-0.1 0.8 0.2 1 0.7z"/>
			<path fill-rule="evenodd" class="s1" d="m33.1 61c2 0.2 5.8-1.9 6.1-4.9l0.6-6.1c0.4-3-1.8-5.6-4.8-5.9l-0.2-0.1c-3-0.3-5.7 1.9-6 4.8l-0.6 6.1c-0.3 3.1 3 5.9 4.9 6.1z"/>
			<path fill-rule="evenodd" class="s3" d="m40.2 51.6c-0.7 1.4-1 2.5-1 2.5 0 0 0.3-2.5-0.2-3.2-0.6-0.7-1.3-1.2-1.3-1.2 0 0 0-1.3-0.5-1.9 0 0-0.5 1.2-0.5 1.6 0 0-1.9-0.5-2.2-0.5 0 0 0-1.4-0.1-1.2-0.2 0.3-0.4 0.7-0.4 1.1 0 0-1.8-0.7-3.1 0.1 0 0-0.2-0.4-0.5-1.3 0 0-0.6 0.9-0.5 1.5l-1.4 3.1c0 0-0.9-2.7-0.1-5.2 0.8-2.5 5-6 9.3-3.7 2.7 1.4 3.1 6.9 2.5 8.3z"/>
			<path fill-rule="evenodd" class="s1" d="m45.7 98.1c0 0-3.5 0.1-4.5 0.7-0.9 0.7-2 2.5-2.5 2.9 0 0 0.8 0.6 1.8 0 1.1-0.7 1.3-1.1 1.3-1.1 0 0 0.9 3.3 3.6 3.5 0 0 2.3-1.4 3.1-2.6 0 0-0.6-3.2-2.8-3.4z"/>
			<path fill-rule="evenodd" class="s5" d="m44.3 94.2q0 0 0 0-0.6 0.2-1.3 0.1c-2.3-0.3-4.1 0.5-7.3 1.9q-0.6 0.2-1.4 0.6c-2.4 1-4.8 0.8-7.5 0.6-1.7-0.2-3.5-0.3-5.5-0.2q-0.3 0-0.6 0 0.3 0.2 0.3 0.2v0.1q0.1 0 0.3 0c2-0.2 3.8 0 5.5 0.2 1.1 0.1 2.2 0.1 3.3 0.1 1.4 0 2.9-0.1 4.3-0.8q0.8-0.3 1.4-0.6c3.1-1.3 4.9-2.1 7.1-1.9z"/>
			<path fill-rule="evenodd" class="s3" d="m69.8 47.7l0.4 1.2 1.6-0.1 0.3-1.5-1.4-3.7z"/>
			<path fill-rule="evenodd" class="s3" d="m70.3 49.3l-1.1 21.3 3.4 3 3.6-3-4.3-21.4z"/>
			<path fill-rule="evenodd" class="s5" d="m46.3 105.9q-0.1 0-0.1 0c-3.5 0.4-5.7-3.3-5.8-3.3q0-0.1 0.1-0.2 0.1-0.1 0.2 0c0 0.1 2.2 3.7 5.5 3.3q0.1 0 0.1 0.1 0 0.1 0 0.1z"/>
			<path fill-rule="evenodd" class="s5" d="m21.8 108.3c-0.2 0.9-0.3 1.7-0.4 2.4-0.1 0.7-0.2 1.1-0.2 1.2q-0.1 0 0 0.1c0.1 0.1 0.2 0.2 0.2 0.2 0.1 0 0.2-0.3 0.4-1.8q0.1-0.7 0.3-1.9c0.2-1.2 0.4-2.7 0.6-4.1l-0.3-0.3c-0.2 1.5-0.4 2.9-0.6 4.2z"/>
			<path fill-rule="evenodd" class="s11" d="m29.5 62.2q-0.1 0-0.2 0c-1.9-1.5-2.9-4.2-2.5-6.6 0-0.1 0.2-0.2 0.4-0.2 0.1 0 0.2 0.2 0.2 0.3-0.4 2.2 0.5 4.6 2.3 6 0.1 0.1 0.1 0.3 0 0.4q-0.1 0.1-0.2 0.1z"/>
			<path fill-rule="evenodd" class="s12" d="m28.7 62c0 0.4 0.2 0.8 0.5 1 0.4 0.3 0.7 0.4 1.1 0.4 0.4 0.1 0.8 0.1 1.1-0.2 1.1-1.1-2.5-3.2-2.7-1.2z"/>
			<path fill-rule="evenodd" class="s12" d="m29.9 42.8c1.8-1.3 3.9-1.9 6.1-1.6 1.2 0.2 2.5 0.6 3.5 1.6 1.1 1 1.9 2 2.4 3.5 0.5 1.4 0.6 3 0.4 4.5-0.1 0.3-0.2 0.7-0.5 0.8-0.3 0-0.6-0.2-0.7-0.5-0.1-0.3 0-0.6 0-0.9 0.1-1.6-0.4-3.1-1.3-4.3-1.9-2.5-5.5-3.1-8.1-1.8-1.6 0.8-2.8 2.2-3.5 3.8-0.2 0.6-0.4 1.3-0.8 1.7-0.1 0.2-0.3 0.2-0.4 0.2-0.9-0.1-0.2-2.2-0.1-2.6 0.3-1.1 0.8-2.1 1.5-2.9q0.7-0.9 1.5-1.5z"/>
			<path fill-rule="evenodd" class="s11" d="m28.7 50.2q0-0.4 0-0.9c0-0.2 0.1-0.7-0.2-0.9-0.1 0-0.3 0-0.4 0.1 0 0-0.1 0.1-0.1 0.1q-0.1-0.1-0.1-0.1c-0.1-0.3-0.2-0.5-0.5-0.6-0.5-0.2-1.2 0.1-1.7 0.3-0.7 0.4-1.3 1.2-1.6 2-0.3 0.9-0.3 1.8-0.3 2.7 0.1 0.7 0.2 1.4 0.5 2.1 0.3 0.7 0.8 1.2 1.4 1.5q0.4 0.1 0.8 0.1c0.3-0.1 0.4-0.3 0.6-0.4 0.1-0.1 0.1-0.1 0.2 0q0.2 0.1 0.3 0.1c0.2 0 0.3-0.1 0.4-0.2q0.1-0.2 0.2-0.4c0.3-0.8 0.3-1.7 0.4-2.6q0.1-0.9 0.1-1.9 0.1-0.5 0-1z"/>
			<path fill-rule="evenodd" class="s11" d="m38.9 56.3q-0.2 0.9-0.2 1.9 0 0.1 0.1 0.3c0 0.1 0.1 0.1 0.2 0.1 0.2 0 0.2-0.2 0.4-0.2 0.1 0 0.2 0.2 0.2 0.3 0.6 0.9 2.3 0 2.9-0.5 1.5-1.2 2-3.4 1.8-5.3-0.1-1-0.5-2-1.3-2.6q-0.1-0.1-0.2-0.1-0.2-0.1-0.5-0.2c-0.2 0-0.5 0-0.7 0.1-0.1 0-0.1 0.2-0.3 0.2 0-0.1-0.1-0.2-0.1-0.2-0.7-0.5-1.4 2.3-1.5 2.7q-0.5 1.7-0.8 3.5z"/>
			<path fill-rule="evenodd" class="s11" d="m67.3 39.6q-0.1 0-0.2 0c-2.1-1.1-3.7-3.4-3.8-5.8 0-0.2 0.2-0.4 0.3-0.4 0.2 0 0.3 0.2 0.3 0.3 0.1 2.2 1.5 4.4 3.5 5.3 0.1 0.1 0.2 0.3 0.1 0.5q0 0.1-0.2 0.1z"/>
			<path fill-rule="evenodd" class="s12" d="m66.5 39.6c0.1 0.4 0.4 0.7 0.8 0.8 0.3 0.2 0.7 0.2 1.1 0.2 0.4 0 0.8-0.1 1-0.4 0.8-1.4-3.1-2.6-2.9-0.6z"/>
			<path fill-rule="evenodd" class="s12" d="m63.7 20.6c1.4-1.7 3.4-2.7 5.5-2.9 1.3-0.1 2.6 0.1 3.8 0.8 1.3 0.8 2.3 1.6 3.1 3 0.8 1.3 1.2 2.8 1.3 4.3 0 0.3-0.1 0.7-0.3 0.8-0.3 0.2-0.6 0-0.8-0.3-0.1-0.3-0.1-0.6-0.2-0.9-0.2-1.5-1-2.9-2.1-3.9-2.4-2.1-6.1-1.9-8.4 0-1.4 1.1-2.2 2.7-2.5 4.4-0.2 0.6-0.2 1.3-0.5 1.9 0 0.1-0.2 0.2-0.3 0.2-0.9 0.1-0.7-2.1-0.7-2.5 0.1-1.1 0.4-2.2 0.9-3.2q0.5-0.9 1.2-1.7z"/>
			<path fill-rule="evenodd" class="s11" d="m64.1 28.1q-0.1-0.5-0.2-0.9c-0.1-0.3-0.1-0.7-0.4-0.8-0.2-0.1-0.3 0-0.4 0.1-0.1 0.1-0.1 0.1-0.1 0.1q-0.1 0-0.1 0c-0.2-0.3-0.3-0.5-0.7-0.5-0.5-0.1-1.1 0.3-1.5 0.6-0.7 0.6-1 1.5-1.1 2.3-0.1 0.9 0 1.8 0.2 2.7 0.2 0.7 0.5 1.4 0.9 2 0.4 0.6 1.1 1 1.8 1.1q0.4 0 0.8-0.1c0.2-0.1 0.2-0.3 0.4-0.5 0.1-0.1 0.1-0.1 0.3 0q0.1 0.1 0.2 0 0.3 0 0.4-0.3 0.1-0.2 0.1-0.4c0.1-0.9 0-1.7-0.1-2.6q-0.2-0.9-0.3-1.9-0.1-0.5-0.2-0.9z"/>
			<path fill-rule="evenodd" class="s11" d="m75.2 31.9q0 0.9 0.3 1.8 0 0.2 0.1 0.3c0.1 0.1 0.2 0.1 0.3 0.1 0.1-0.1 0.1-0.3 0.3-0.3 0.1 0 0.2 0.1 0.3 0.2 0.7 0.8 2.2-0.5 2.7-1 1.2-1.5 1.3-3.8 0.6-5.6-0.3-0.9-0.9-1.9-1.8-2.3q-0.1 0-0.3 0-0.2-0.1-0.4-0.1c-0.2 0-0.6 0.1-0.7 0.2-0.1 0.1-0.1 0.3-0.2 0.2-0.1 0-0.2 0-0.2-0.1-0.8-0.3-0.9 2.5-0.9 3q-0.1 1.8-0.1 3.6z"/>
		</g>
	</g>
	<g id="Clip-Path" clip-path="url(#cp6)">
		<g>
			<path fill-rule="evenodd" class="s1" d="m98 44.3c1.4 1.3 6.4 2.3 6.4 2.3 3.6-15.3 2.2-19.8 3-20.5 0.9-0.8 1.4-2.9 1.9-3.3 0.9-0.8 4.2-1.9 4-2.3-0.3-0.6-2.4 0-3.3 0.3-0.2 0-0.4-0.1-0.5-0.3 0 0 3.6-3.5 3.1-4.1-0.5-0.5-4 2.9-4 2.9h-0.1c0 0 2.6-4.1 2-4.6-0.7-0.5-3.3 4.1-3.3 4.1l-0.2-0.1c0 0 0-0.8 0.4-2 0.5-1.6 0.8-3.1 0-2.6-0.8 0.4-2.2 5.2-3.3 6.2q-0.1 0.1-0.2 0.1-0.5 0.3-0.8 0.1 0 0 0 0c-0.6-0.3-0.8-0.9-1.1-1.9-0.4-1.2-1.1-1.1-1.3-1q-0.1 0-0.1 0.1c0.1 0.2 0.3 1 0.6 3.4 0.5 3.2 1.8 2.9 1.9 4.5 0.3 5.7-5.1 18.7-5.1 18.7z"/>
			<path fill-rule="evenodd" class="s1" d="m98 44.3c0 0-1 1.8-1.3 2.3-0.3 0.4-6.8-1.8-6.8-1.8l-0.5 9.8c0 0 4.9 0.3 8 0 3.1-0.4 5.3-2.2 5.3-2.2 0.1 0 2.6-7.5 2.9-11.5z"/>
			<path fill-rule="evenodd" class="s2" d="m104.2 22.5c0 0 0.6-0.8-0.1-2.2q-0.1 0.1-0.2 0.1-0.5 0.3-0.8 0.1c0.1 0 1 0.8 1.1 2z"/>
			<path fill-rule="evenodd" class="s3" d="m75 19.6c0.3 0.2 1 0.9 1.4 2.1 0.5 1.5 0.2 2.8 0.1 3.5-0.2 0.9-0.4 1.4-0.6 1.7-0.5 1.1-0.9 3.1-0.5 6.5-1.6 1-6.7 3.9-9.3 2.1-0.2-0.2-0.9-1.1-2.4-2.9-2-2.6-2.3-3.1-2.5-3.7-0.5-1.5-0.5-2.8-0.5-3.7 0-1.2 0.1-1.9 0.5-2.8 0.1-0.3 1.1-2.4 3.2-2.7 0.6-0.1 1 0 1.3 0.1 0.1-0.3 0.2-0.7 0.5-1.1 1.3-1.6 4.6-1.4 6.7-0.5 1.3 0.5 2 1.2 2.1 1.4z"/>
			<path fill-rule="evenodd" class="s4" d="m88.6 112.3h-10.1c-0.2-0.7-0.8-2.4-0.8-2.4-2.5-6.8-5.8-13.5-7.3-18.7q-0.3-1-0.5-2-0.1-0.2-0.1-0.3c-0.3-1.5-0.3-2.8-0.1-3.9q0.1-0.6 0.1-1.1c1.3-7.4 2.2-10.3 2.2-10.3l13.2 13.2q0 0 0.1 0.9c0.6 3.4 2.3 14.8 3.3 24.6z"/>
			<path fill-rule="evenodd" class="s1" d="m50.5 78c-2.2 0.6-6.4 2.2-6.4 2.2 5.4 14.8 9.7 17.8 9.3 18.9-0.3 1 0.4 3.1 0.2 3.8-0.3 1.1-0.8 5.5-0.4 5.7 0.6 0.3 0.7-1.9 1.2-3.2 0-0.2 0.1-0.7 0.3-0.6 0 0 1.2 4.9 1.9 5.1 0.7 0.2-0.5-4.6-0.5-4.6h0.1c0 0 1.5 4.9 2.3 4.9 0.8 0.1-0.9-5.2-0.9-5.2h0.2c0 0 0.4 0.6 0.8 1.9 0.4 1.6 0.9 3 1.4 2.2 0.4-0.8-1-5.6-0.6-7.1q0-0.1 0-0.1 0.3-0.5 0.7-0.5 0 0 0 0c0.6-0.1 1.1 0.2 2 1 0.9 0.7 1.4 0.3 1.6 0.1q0.1-0.1 0-0.2c-0.2-0.1-0.8-0.6-2.4-2.4-2.2-2.5-3-1.6-4-2.9-2.7-3.7-4.3-10.3-5.6-14.5-0.4-1.4-1.2-4.5-1.2-4.5z"/>
			<path fill-rule="evenodd" class="s1" d="m56.4 58.9c-0.2 0.1-5.9 19.1-5.9 19.1 0 0-6.1 3-6.4 2.2-0.6-1.5-1.1-2.6-0.9-3.7 0.8-5.7 5.5-21.2 5.9-21.5 0.5-0.3 7.3 3.9 7.3 3.9z"/>
			<path fill-rule="evenodd" class="s6" d="m77.8 41.1l1.3 15.2-4.7 14.3-9.7-13.6-0.6-15z"/>
			<path fill-rule="evenodd" class="s1" d="m65.7 43.5c1.6 1.3 3.1 0.4 5.1 0.1 1.9-0.4 3.8 0 2.9-1.6 0 0-0.3-3.1-0.1-4.8 0.2-1.4 0.3-2.3 0.3-2.3-4 0.9-7.3-1.4-7.3-1.4 0.3 0.7 0.2 2.5-0.1 4.5-0.3 1.8-0.7 3-0.7 3-0.4 0.2-1.7 1.2-0.1 2.5z"/>
			<path fill-rule="evenodd" class="s2" d="m66.5 38c0.8 0.5 1.8 0.7 3 0.7 1.8 0 3.3-0.6 4.1-1.5 0.2-1.4 0.3-2.3 0.3-2.3-4 0.9-7.3-1.4-7.3-1.4 0.3 0.7 0.2 2.5-0.1 4.5z"/>
			<path fill-rule="evenodd" class="s1" d="m74 28.4c-0.3 1 0.1 2 0.9 2.3 0.8 0.2 1.7-0.5 1.9-1.5 0.3-1.1-0.1-2.1-0.9-2.3-0.7-0.2-1.6 0.4-1.9 1.5z"/>
			<path fill-rule="evenodd" class="s2" d="m74.5 28.7c-0.1 0.5 0.1 1 0.6 1.1 0.4 0.2 0.9-0.2 1-0.7 0.2-0.5-0.1-1-0.5-1.2-0.5-0.1-0.9 0.3-1.1 0.8z"/>
			<path fill-rule="evenodd" class="s1" d="m65.1 30.1c0.6 1 0.4 2.1-0.3 2.5-0.7 0.4-1.7-0.1-2.2-1-0.6-1-0.4-2.1 0.3-2.5 0.7-0.4 1.7 0.1 2.2 1z"/>
			<path fill-rule="evenodd" class="s2" d="m64.7 30.5c0.3 0.5 0.2 1.1-0.2 1.3-0.4 0.2-1 0-1.2-0.4-0.3-0.5-0.2-1.1 0.2-1.3 0.4-0.2 0.9 0 1.2 0.4z"/>
			<path fill-rule="evenodd" class="s1" d="m70.9 37.8c2-0.3 5.3-3.5 4.8-6.6l-1.1-6.3c-0.5-3.1-3.4-5.2-6.5-4.7l-0.3 0.1c-3.1 0.5-5.1 3.4-4.6 6.5l1 6.3c0.6 3.1 4.7 5.1 6.7 4.7z"/>
			<path fill-rule="evenodd" class="s3" d="m75.8 24.5c0.4 1.5 0.1 4.1 0.1 4.1 0 0-0.6-2.7-1.6-4-1-1.4-2.2-1.4-2.2-1.4 0 0 2.8 4 0.5 3.9-2.3-0.1-5.2-2.5-5.2-2.5 0 0 2 2 1.1 2.6-0.8 0.7-4.7-2.5-4.7-1.4 0 1.1 0.3 4.5 0.3 4.5 0 0-0.7-0.9-1.2-1.7-0.4-0.9-1.9-3.2-0.7-5.5 1.2-2.2 5.2-3.9 10-3.3 2.1 0.3 3.3 3.5 3.6 4.7z"/>
			<path fill-rule="evenodd" class="s6" d="m61.8 91.9l24 0.7c0-1.8 0-1.7 0.1-2.9l2.4-42.2c-0.1-2.4-10.6-5.8-10.6-5.8-0.6 3.7 1.2 7.3-1.4 10.1-1.3 1.4-0.1 6-1.7 7.1-0.8 0.6 0.7 9.4-0.3 9.3l-10.9-19.9c0-2.4 0.3-3.7 1.3-6-9.4 2.6-11.5 5.9-12.7 10.2l6.9 18.9c0.3 1.2 3.2 10.6 2.9 20.5z"/>
			<path fill-rule="evenodd" class="s5" d="m73.5 60.5c0 0.3 0.3 0.6 0.6 0.5 0.4 0 0.6-0.2 0.6-0.5 0-0.4-0.3-0.6-0.6-0.6-0.3 0-0.6 0.3-0.6 0.6z"/>
			<path fill-rule="evenodd" class="s5" d="m71.6 51.7c0 0.3 0.3 0.6 0.6 0.6 0.3 0 0.6-0.3 0.6-0.6 0-0.3-0.3-0.6-0.6-0.6-0.4 0-0.6 0.3-0.6 0.6z"/>
			<path fill-rule="evenodd" class="s5" d="m75.4 68.2c0 0.3 0.3 0.6 0.6 0.5 0.4 0 0.6-0.2 0.6-0.5 0-0.4-0.3-0.6-0.6-0.6-0.4 0-0.6 0.3-0.6 0.6z"/>
			<path fill-rule="evenodd" class="s5" d="m75.8 75.6c0 0.3 0.3 0.5 0.6 0.5 0.3 0 0.6-0.3 0.6-0.6 0-0.3-0.3-0.5-0.7-0.5-0.3 0-0.6 0.3-0.5 0.6z"/>
			<path fill-rule="evenodd" class="s6" d="m74.2 43.9c4.8 11.3 6.5 37.9 7 46.8l4.9-0.2c0.2-11.7 2.1-34.5 2.1-34.5 1.6 0.2 4.4 0.1 6.6-0.1l-1.4-13.3c-1.4-0.3-3.1-0.8-5.4-1.4-5.9-2-8.4-2-12.8-0.8-2.7 0.2-1.2 0.1-1.1 1.5z"/>
			<path fill-rule="evenodd" class="s3" d="m76.1 40.8l-3.9 6.4-1.4-3.6 5.1-5.1z"/>
			<path fill-rule="evenodd" class="s6" d="m76.1 40.8l-4 5.4-1.3-2.8 5-5.5z"/>
			<path fill-rule="evenodd" class="s6" d="m58.9 71.4c0.3 1.1 4.8 4.9 4.6 19.4l8.6-0.9c0.3-6.3 1-23.7-0.5-32.4-1.9-10.9-3.1-13.2-7.3-15.4 1.2-0.2-7.4-1.1-14.4 8.2l-6.7 14.2c2.4 2 8.4 3.7 10.7 5.8l2.2-5.2z"/>
			<path fill-rule="evenodd" class="s3" d="m63.5 42.7l6.3 4.9 1-3.8-7.9-3.7z"/>
			<path fill-rule="evenodd" class="s6" d="m63.5 42.7l6.2 4.3 1.1-3.4-8-4.1z"/>
			<path fill-rule="evenodd" class="s3" d="m35.4 41.2c0 0-1.7-2.1-5-0.3-3.2 1.8-3.6 9.4-5.7 12.5-2.1 3-8.3 12-5.4 16.2 3 4.3 13.2 4.8 13.2 4.8l6.1-31.9z"/>
			<path fill-rule="evenodd" class="s1" d="m29.7 67.3c3.3 2.4 7.7-0.1 7.7-0.1-1.2-3.1-0.6-6.6-0.3-8 0.1-0.4 0.2-0.6 0.2-0.6-4.3 0.9-7-0.9-7-0.9l-0.3 4.7z"/>
			<path fill-rule="evenodd" class="s2" d="m30 62.4c1.3 0.4 3 0.2 4.5-0.6 1.2-0.7 2.1-1.6 2.6-2.6 0.1-0.4 0.2-0.6 0.2-0.6-4.3 0.9-7-0.9-7-0.9z"/>
			<path fill-rule="evenodd" class="s1" d="m8.6 44.6c-0.7 0.6-2.9 0.3-2.9 0.3 0 0 0.1-7.6-0.6-8.2-0.7-0.5-2.4-3.2-2.6-3.7-0.4-0.8-2.1-2.3-2-2.6 0.4-0.6 2.6 1.7 2.6 1.7l0.2-0.2c0 0-2.7-2.7-2.3-3.2 0.4-0.4 2.9 2.7 2.9 2.7l0.2-0.2c0 0-2-3.4-1.5-3.7 0.5-0.4 2.4 3.5 2.4 3.5l0.2-0.1c0 0 0-0.7-0.4-1.7-0.4-1.2-0.8-2.4-0.1-2 0.7 0.3 2 4.1 2.9 4.9q0.1 0 0.1 0 0.4 0.2 0.7 0.1 0 0 0 0c0.4-0.3 0.6-1.2 0.8-2.1 0.3-1.2 0.9-1 0.9-1 0 0 0.1 0.9-0.2 3.5-0.3 2.6-0.9 2.5-1.3 3.7-0.5 1.2 0 8.3 0 8.3z"/>
			<path fill-rule="evenodd" class="s2" d="m7.6 33.8c0 0-0.6-0.6 0-1.7q0.1 0 0.1 0 0.4 0.2 0.7 0.1c-0.1 0-0.8 0.7-0.8 1.6z"/>
			<path fill-rule="evenodd" class="s4" d="m55.2 100.3c-4.2 3.1-6.9 5.9-8.9 3-2.1-2.9-3-6.2-0.8-8.6 2.2-2.3 5.3-1.4 6-2.2 0.7-0.8-1.6-4.4-3.1-5.8-1.6-1.3-2.6-2.1-2.9 0.7-0.3 2.9 1.6 3 0.9 4.6-0.5 1-1.2 1.9-2.1 2.2q0 0 0 0-0.6 0.3-1.3 0.2 0 0-0.1 0.1c-0.7 0.9-4.7 5.3-10.2 6.4-6.2 1.2-11.3 0-11.3 0l-0.4-3.4v-0.1q0 0-0.3-0.2c-0.6-0.5-2.2-2.1-2.2-5.3 0.1-3.8 2.6-17.5 0-20.3-2.5-2.7-11.9-14.6-14.4-18.2-2.5-3.6-2-5.4-1-9.3 1-3.8 2.3-3.4 1.5-4.9-0.9-1.4-1-2.7-1-2.7 0 0 5.3-3.2 6.6-0.5l0.5 2.6c0 0 0.6 1.4 3.4 2.6 2.8 1.2 0.9 5.3 1.9 9.4 0.5 1.6 1 4.5 4.5 8.5 4.9 5.7 5.8 1.1 11 5.6 2.9 2.5 11.7-2.6 15.5 2.2 3.9 4.9 10.4 18 12.6 20.6 2.3 2.6-0.2 9.7-4.4 12.8z"/>
			<path fill-rule="evenodd" class="s4" d="m29.7 62.6c0 0 4.4 1.8 7.2 0.2l1 2.8c0 0-0.6 2.1-4.7 2-3.4-0.1-4.5-1.9-4.3-2.7 0.1-0.2 0.8-2.3 0.8-2.3z"/>
			<path fill-rule="evenodd" class="s3" d="m35.4 41.2c0 0 3.7-1.3 5.6 1.3 1.8 2.7 1 10.3 3.8 17.7 2.8 7.3-3.6 15.5-4.7 14.2-1.1-1.2-1.1-2.7-1.1-2.7 0 0-1.3 7.6-4.5 5.3-3.2-2.4 1.5-10.2 1.8-17.1 0.3-6.8-0.9-18.7-0.9-18.7z"/>
			<path fill-rule="evenodd" class="s1" d="m38.3 54c-0.5 0.9-0.4 1.9 0.3 2.3 0.6 0.4 1.6 0 2.2-0.9 0.5-0.9 0.4-1.9-0.3-2.3-0.6-0.4-1.6 0-2.2 0.9z"/>
			<path fill-rule="evenodd" class="s2" d="m38.8 54.4c-0.3 0.4-0.2 1 0.1 1.2 0.4 0.2 0.9 0 1.2-0.4 0.3-0.5 0.2-1-0.2-1.2-0.4-0.2-0.9-0.1-1.1 0.4z"/>
			<path fill-rule="evenodd" class="s1" d="m29.8 52.4c0.2 1-0.2 2-0.9 2.2-0.8 0.2-1.6-0.5-1.9-1.5-0.2-1 0.2-2 0.9-2.2 0.8-0.2 1.6 0.5 1.9 1.5z"/>
			<path fill-rule="evenodd" class="s2" d="m29.3 52.7c0.1 0.5-0.1 1-0.6 1.1-0.4 0.1-0.8-0.2-1-0.7-0.1-0.5 0.2-1 0.6-1.1 0.4-0.1 0.8 0.2 1 0.7z"/>
			<path fill-rule="evenodd" class="s1" d="m33.1 61c2 0.2 5.8-1.9 6.1-4.9l0.6-6.1c0.4-3-1.8-5.6-4.8-5.9l-0.2-0.1c-3-0.3-5.7 1.9-6 4.8l-0.6 6.1c-0.3 3.1 3 5.9 4.9 6.1z"/>
			<path fill-rule="evenodd" class="s3" d="m40.2 51.6c-0.7 1.4-1 2.5-1 2.5 0 0 0.3-2.5-0.2-3.2-0.6-0.7-1.3-1.2-1.3-1.2 0 0 0-1.3-0.5-1.9 0 0-0.5 1.2-0.5 1.6 0 0-1.9-0.5-2.2-0.5 0 0 0-1.4-0.1-1.2-0.2 0.3-0.4 0.7-0.4 1.1 0 0-1.8-0.7-3.1 0.1 0 0-0.2-0.4-0.5-1.3 0 0-0.6 0.9-0.5 1.5l-1.4 3.1c0 0-0.9-2.7-0.1-5.2 0.8-2.5 5-6 9.3-3.7 2.7 1.4 3.1 6.9 2.5 8.3z"/>
			<path fill-rule="evenodd" class="s3" d="m69.8 47.7l0.4 1.2 1.6-0.1 0.3-1.5-1.4-3.7z"/>
			<path fill-rule="evenodd" class="s3" d="m70.3 49.3l-1.1 21.3 3.4 3 3.6-3-4.3-21.4z"/>
			<path fill-rule="evenodd" class="s11" d="m29.5 62.2q-0.1 0-0.2 0c-1.9-1.5-2.9-4.2-2.5-6.6 0-0.1 0.2-0.2 0.4-0.2 0.1 0 0.2 0.2 0.2 0.3-0.4 2.2 0.5 4.6 2.3 6 0.1 0.1 0.1 0.3 0 0.4q-0.1 0.1-0.2 0.1z"/>
			<path fill-rule="evenodd" class="s12" d="m28.7 62c0 0.4 0.2 0.8 0.5 1 0.4 0.3 0.7 0.4 1.1 0.4 0.4 0.1 0.8 0.1 1.1-0.2 1.1-1.2-2.5-3.2-2.7-1.2z"/>
			<path fill-rule="evenodd" class="s13" d="m29.9 42.8c1.8-1.3 3.9-1.9 6.1-1.6 1.2 0.2 2.5 0.6 3.5 1.6 1.1 1 1.9 2 2.4 3.5 0.5 1.4 0.6 3 0.4 4.5-0.1 0.3-0.2 0.7-0.5 0.8-0.3 0-0.6-0.2-0.7-0.5-0.1-0.3 0-0.6 0-0.9 0.1-1.6-0.4-3.1-1.3-4.3-1.9-2.5-5.5-3.1-8.1-1.8-1.6 0.8-2.8 2.2-3.5 3.8-0.2 0.6-0.4 1.3-0.8 1.7-0.1 0.2-0.3 0.2-0.4 0.2-0.9-0.1-0.2-2.2-0.1-2.6 0.3-1.1 0.8-2.1 1.5-2.9q0.7-0.9 1.5-1.5z"/>
			<path fill-rule="evenodd" class="s11" d="m28.7 50.2q0-0.4 0-0.9c0-0.2 0.1-0.7-0.2-0.9-0.1 0-0.3 0-0.4 0.1 0 0-0.1 0.1-0.1 0.1q-0.1-0.1-0.1-0.1c-0.1-0.3-0.2-0.5-0.5-0.6-0.5-0.2-1.2 0.1-1.7 0.3-0.7 0.4-1.3 1.2-1.6 2-0.3 0.9-0.3 1.8-0.3 2.7 0.1 0.7 0.2 1.4 0.5 2.1 0.3 0.7 0.8 1.2 1.4 1.5q0.4 0.1 0.8 0.1c0.3-0.1 0.4-0.3 0.6-0.4 0.1-0.1 0.1-0.1 0.2 0q0.2 0.1 0.3 0.1 0.2 0 0.4-0.2 0.1-0.2 0.2-0.4c0.3-0.8 0.3-1.7 0.4-2.6q0.1-0.9 0.1-1.9 0.1-0.5 0-1z"/>
			<path fill-rule="evenodd" class="s11" d="m38.9 56.3q-0.2 0.9-0.2 1.9 0 0.1 0.1 0.3c0 0.1 0.1 0.1 0.2 0.1 0.2 0 0.2-0.2 0.4-0.2 0.1 0 0.2 0.2 0.2 0.3 0.6 0.9 2.3 0 2.9-0.5 1.5-1.2 2-3.4 1.8-5.3-0.1-1-0.5-2-1.3-2.6q-0.1-0.1-0.2-0.1-0.2-0.1-0.5-0.2c-0.2 0-0.5 0-0.7 0.1-0.1 0-0.1 0.2-0.3 0.2 0-0.1-0.1-0.2-0.1-0.2-0.7-0.5-1.4 2.3-1.5 2.7q-0.5 1.7-0.8 3.5z"/>
			<path fill-rule="evenodd" class="s11" d="m67.3 39.6q-0.1 0-0.2 0c-2.1-1.1-3.7-3.4-3.8-5.8 0-0.2 0.2-0.4 0.3-0.4 0.2 0 0.3 0.2 0.3 0.3 0.1 2.2 1.5 4.4 3.5 5.3 0.1 0.1 0.2 0.3 0.1 0.5q0 0.1-0.2 0.1z"/>
			<path fill-rule="evenodd" class="s12" d="m66.5 39.6c0.1 0.4 0.4 0.7 0.8 0.8 0.3 0.2 0.7 0.2 1.1 0.2 0.4 0 0.8-0.1 1-0.4 0.8-1.4-3.1-2.6-2.9-0.6z"/>
			<path fill-rule="evenodd" class="s13" d="m63.7 20.6c1.4-1.7 3.4-2.7 5.5-2.9 1.3-0.1 2.6 0.1 3.8 0.8 1.3 0.8 2.3 1.6 3.1 3 0.8 1.3 1.2 2.8 1.3 4.3 0 0.3-0.1 0.7-0.3 0.8-0.3 0.1-0.6-0.1-0.8-0.3-0.1-0.3-0.1-0.6-0.2-0.9-0.2-1.5-1-2.9-2.1-3.9-2.4-2.1-6.1-1.9-8.4 0-1.4 1.1-2.2 2.7-2.5 4.4-0.2 0.6-0.2 1.3-0.5 1.9 0 0.1-0.2 0.2-0.3 0.2-0.9 0.1-0.7-2.1-0.7-2.5 0.1-1.1 0.4-2.2 0.9-3.2q0.5-0.9 1.2-1.7z"/>
			<path fill-rule="evenodd" class="s11" d="m64.1 28.1q-0.1-0.5-0.2-0.9c-0.1-0.3-0.1-0.7-0.4-0.8-0.2-0.1-0.3 0-0.4 0.1-0.1 0.1-0.1 0.1-0.1 0.1q-0.1 0-0.1 0c-0.2-0.3-0.3-0.5-0.7-0.5-0.5-0.1-1.1 0.3-1.5 0.6-0.7 0.6-1 1.5-1.1 2.3-0.1 0.9 0 1.8 0.2 2.7 0.2 0.7 0.5 1.4 0.9 2 0.4 0.6 1.1 1 1.8 1.1q0.4 0 0.8-0.1c0.2-0.1 0.2-0.3 0.4-0.5 0.1-0.1 0.1-0.1 0.3 0q0.1 0.1 0.2 0 0.3 0 0.4-0.3 0.1-0.2 0.1-0.4c0.1-0.9 0-1.7-0.1-2.6q-0.2-0.9-0.3-1.9-0.1-0.5-0.2-0.9z"/>
			<path fill-rule="evenodd" class="s11" d="m75.2 31.9q0 0.9 0.3 1.8 0 0.2 0.1 0.3c0.1 0.1 0.2 0.1 0.3 0.1 0.1-0.1 0.1-0.3 0.3-0.3 0.1 0 0.2 0.1 0.3 0.2 0.7 0.8 2.2-0.5 2.7-1 1.2-1.5 1.3-3.8 0.6-5.6-0.3-0.9-0.9-1.9-1.8-2.3q-0.1 0-0.3 0-0.2-0.1-0.4-0.1c-0.2 0-0.6 0.1-0.7 0.2-0.1 0.1-0.1 0.3-0.2 0.2-0.1 0-0.2 0-0.2-0.1-0.8-0.3-0.9 2.5-0.9 3q-0.1 1.8-0.1 3.6z"/>
		</g>
	</g>
</svg>