<svg version="1.2" xmlns="http://www.w3.org/2000/svg" viewBox="0 0 146 112" width="146" height="112">
	<title>part-of-team-svg</title>
	<defs>
		<clipPath clipPathUnits="userSpaceOnUse" id="cp1">
			<path d="m14.46 66.16h126.42v39.75h-126.42z"/>
		</clipPath>
	</defs>
	<style>
		.s0 { fill: #a7f3d0 } 
		.s1 { fill: #cb533e } 
		.s2 { fill: #ffffff } 
		.s3 { fill: #f59577 } 
		.s4 { fill: #05ad94 } 
		.s5 { fill: #15d2b6 } 
		.s6 { fill: #fac6a7 } 
		.s7 { fill: #ed7970 } 
		.s8 { fill: #c38fa3 } 
		.s9 { fill: #384480 } 
		.s10 { fill: #d9947f } 
		.s11 { fill: #3b4e6d } 
		.s12 { fill: #f38575 } 
		.s13 { fill: #9f3722 } 
		.s14 { fill: #d1c4ac } 
		.s15 { fill: #efe8db } 
		.s16 { fill: #eac277 } 
		.s17 { fill: #a7d1d9 } 
		.s18 { fill: #6cb4c0 } 
	</style>
	<path class="s0" d="m75 111.5c-27.7 0-50-22.4-50-50 0-27.7 22.3-50 50-50 27.7 0 50 22.3 50 50 0 27.6-22.3 50-50 50z"/>
	<path fill-rule="evenodd" class="s1" d="m73.3 0.4c0.4-0.4-0.1 1.9 0.9 1.1 0.4-0.3 1.5 0 2.1 1l-4.5 1.3q-0.4 0-0.8 0c-0.7 0.1-1.3 0.7-1.3 1.4q-0.6-0.2-1.2-0.6c0.1-4 3.7-2.7 4.8-4.2z"/>
	<path fill-rule="evenodd" class="s1" d="m76.1 0.5c0.2 0.5-0.3 1.3-1.1 1.7-0.7 0.3-2.1-0.4-2.4-0.9-0.2-0.6 0.8-0.1 1.5-0.9 0.7-0.6 1.8-0.5 2 0.1z"/>
	<path fill-rule="evenodd" class="s2" d="m61 90.6c2.5 0.8 5.3-0.4 6.2-2.6 1-2.3-0.3-4.9-2.8-5.7-2.6-0.9-5.4 0.3-6.3 2.6-0.9 2.3 0.4 4.8 2.9 5.7z"/>
	<path fill-rule="evenodd" class="s3" d="m30.6 75.2l3.5 14 106.8-23z"/>
	<path fill-rule="evenodd" class="s4" d="m30.6 75.2l3.5 14 106.8-23z"/>
	<path fill-rule="evenodd" class="s5" d="m30.6 75.2l-11.8-14.1c-1.3-1.7 122.1 5.1 122.1 5.1z"/>
	<path fill-rule="evenodd" class="s6" d="m60.8 81.6l-1.3-0.2 0.3-1.9 1.2 0.1z"/>
	<path fill-rule="evenodd" class="s6" d="m59.8 79.5l-0.1 0.6q0.1 0 0.2 0.1c0.3 0.1 0.6 0.1 0.7 0.5 0 0.2-0.1 0.4-0.2 0.6q-0.1 0.1-0.1 0.2l0.5 0.1 0.2-2z"/>
	<path fill-rule="evenodd" class="s7" d="m56.5 82.5c-0.1 0-0.1 0-0.1-0.2 0-0.2 1.2-0.6 2-0.9 0.1 0 0.4-0.2 0.5-0.3 0.1-0.1 0-0.1 0.1-0.1 0.2 0.1 0.4 0 0.6 0l0.2 1.6c-1.1 0.1-2.8 0.2-3.1 0.2-0.2 0-0.2-0.1-0.2-0.2q-0.1 0 0-0.1z"/>
	<path fill-rule="evenodd" class="s8" d="m56.5 82.5c-0.1 0-0.1 0-0.1-0.2 0-0.2 1.2-0.6 2-0.9 0.1 0 0.4-0.2 0.5-0.3 0.1-0.1 0-0.1 0.1-0.1 0.2 0.1 0.4 0 0.6 0l0.2 1.6c-1.1 0.1-2.8 0.2-3.1 0.2-0.2 0-0.2-0.1-0.2-0.2q-0.1 0 0-0.1z"/>
	<path fill-rule="evenodd" class="s9" d="m59.7 82.3l0.1 0.3c-1.1 0.1-2.8 0.2-3.1 0.2-0.2 0-0.2-0.1-0.2-0.2q-0.1 0 0-0.1z"/>
	<path fill-rule="evenodd" class="s10" d="m59.7 82.3l0.1 0.3c-1.1 0.1-2.8 0.2-3.1 0.2-0.2 0-0.2-0.1-0.2-0.2q-0.1 0 0 0z"/>
	<path fill-rule="evenodd" class="s9" d="m57.5 82.5c0 0.1 0 0.2 0.2 0.2 0.4 0 3.3-0.2 3.4-0.2 0.1-0.1 0.2-0.1 0.2-0.3-0.1-0.1-0.2-0.2-0.3-0.2l-3.4 0.3c-0.1 0-0.1 0.1-0.1 0.2z"/>
	<path fill-rule="evenodd" class="s7" d="m61.2 82.1c0.1 0.1-1.1 0.2-3.7 0.4 0 0 0 0-0.1-0.3 0-0.2 1-0.6 1.7-0.8 0.1-0.1 0.4-0.2 0.4-0.3 0.1-0.2 0.1-0.1 0.1-0.1 1.3 0.6 1.1-0.3 1.3-0.2 0.2 0.1 0.3 1.2 0.3 1.3z"/>
	<path fill-rule="evenodd" class="s9" d="m59.5 81.6q0 0 0.1 0 0 0 0 0l-0.2-0.4q0-0.1 0 0-0.1 0-0.1 0z"/>
	<path fill-rule="evenodd" class="s9" d="m59.2 81.7q0 0 0 0 0 0 0-0.1l-0.1-0.3q0 0 0 0-0.1 0-0.1 0.1z"/>
	<path fill-rule="evenodd" class="s9" d="m58.8 81.7q0.1 0 0.1 0 0 0 0 0l-0.1-0.2q0 0 0 0 0 0 0 0z"/>
	<path fill-rule="evenodd" class="s9" d="m59.4 81.2q0 0 0 0 0-0.1 0-0.1h-0.6q0 0 0 0 0 0.1 0.1 0.1z"/>
	<path fill-rule="evenodd" class="s9" d="m59.1 81.4q0 0 0-0.1 0 0 0 0h-0.5q0 0 0 0 0 0 0 0z"/>
	<path fill-rule="evenodd" class="s9" d="m58.8 81.5q0 0 0 0 0 0 0 0l-0.4-0.1q0 0 0 0 0 0 0 0z"/>
	<path fill-rule="evenodd" class="s4" d="m60 72.9l-1.1 9.9 4.5-0.9 0.4-9.3c2.2 0 0.7-4.2 0.7-4.2-32.7 3.9-30.7-3.2-41-6.9l11.2 13.5c16.5 1.2 25.2-2.2 25.3-2.1z"/>
	<path fill-rule="evenodd" class="s4" d="m77 84.3c0.8 2.2 6.2 3.8 6-4.4-0.1-3.9-1.4-7.9 6.1-8.3 10.5-0.6 13.9-0.9 13.8-2.4-0.2-2.3-4.2-1-12.4-0.4-1.5 0.1-13.5 2.5-15 3.3 0 0 0.3 9.3 1.5 12.2z"/>
	<path fill-rule="evenodd" class="s6" d="m95.7 69l-1.7 0.5-0.9-2.9 1.7-0.5z"/>
	<path fill-rule="evenodd" class="s6" d="m93.1 66.6l0.3 1q0.1-0.1 0.3-0.1c0.5 0 0.9-0.1 1.2 0.4 0.1 0.2 0.1 0.6 0.1 0.9q0 0.2 0 0.4l0.7-0.2-0.9-2.9z"/>
	<path fill-rule="evenodd" class="s7" d="m101.7 69.5c0-0.1 0-0.1 0-0.3-0.1-0.4-2.2-0.7-3.6-0.9-0.2 0-0.8-0.1-1-0.3-0.1-0.1 0-0.1-0.1-0.1-0.4 0.2-0.7 0-1 0l0.2 2.4c1.8-0.2 4.6-0.3 5.2-0.4 0.3 0 0.3-0.2 0.3-0.3q0-0.1 0-0.1z"/>
	<path fill-rule="evenodd" class="s11" d="m101.7 69.5c0-0.1 0-0.1 0-0.3-0.1-0.4-2.2-0.7-3.6-0.9-0.2 0-0.8-0.1-1-0.3-0.1-0.1 0-0.1-0.1-0.1-0.4 0.2-0.6 0-1 0l0.2 2.4c1.8-0.2 4.6-0.3 5.2-0.4 0.3 0 0.3-0.2 0.3-0.3q0-0.1 0-0.1z"/>
	<path fill-rule="evenodd" class="s9" d="m96.2 69.8v0.5c1.8-0.2 4.6-0.3 5.2-0.4 0.3 0 0.3-0.2 0.3-0.3q0-0.1 0-0.1z"/>
	<path fill-rule="evenodd" class="s2" d="m96.2 69.8v0.5c1.8-0.2 4.6-0.3 5.2-0.4 0.3 0 0.3-0.2 0.3-0.3q0-0.1 0-0.1z"/>
	<path fill-rule="evenodd" class="s2" d="m100.7 69.6c0 0.2 0 0.4-0.4 0.4-0.8 0-6.4 0.4-6.7 0.4-0.2 0-0.4-0.1-0.4-0.3 0-0.2 0.2-0.4 0.4-0.4l6.7-0.4c0.2 0 0.3 0.1 0.4 0.3z"/>
	<path fill-rule="evenodd" class="s11" d="m93.2 69.9c0 0.2 2.3 0 7.4-0.3 0.1 0 0.1 0 0-0.4 0-0.3-2.2-0.6-3.5-0.8-0.3 0-0.8-0.2-1-0.3-0.2-0.2 0-0.2-0.2-0.1-2.2 1.1-2.1-0.1-2.5 0-0.4 0.2-0.2 1.7-0.2 1.9z"/>
	<path fill-rule="evenodd" class="s9" d="m96.3 68.8q0 0 0 0-0.1 0-0.1 0l0.2-0.6q0.1-0.1 0.1 0 0.1 0 0.1 0z"/>
	<path fill-rule="evenodd" class="s9" d="m96.9 68.8q0 0-0.1 0-0.1 0-0.1 0l0.2-0.5q0 0 0.1 0 0 0 0 0z"/>
	<path fill-rule="evenodd" class="s9" d="m97.3 68.7q0 0 0 0-0.1 0-0.1-0.1l0.1-0.3q0 0 0 0 0.1 0.1 0.1 0.1z"/>
	<path fill-rule="evenodd" class="s11" d="m90.2 45.3c1.6 0.6 0.1 1.1-0.1 2.3l1.6 1.6c-0.1 1.2-3.2 0.8-4.8 0.6l-16.3-2.5c-1.6-0.2-3.9-1-3.9-1l-0.1-6c0.2-1.2 3.9-1.5 5.4-1.3z"/>
	<path fill-rule="evenodd" class="s11" d="m89.3 45.3l-0.6 0.1c-1.2 0.2-1.7 1.1-1.4 2.8l5.5 17.7 0.4 1.5 2.3-0.7-3.4-19c-0.3-1.7-1.6-2.5-2.8-2.4z"/>
	<path fill-rule="evenodd" class="s11" d="m93.8 66.7c-1-3.5-2-7-3-10.6-1.7-5.7-1.3-7.1-2.9-7.3-3.3-0.4-5.3-0.7-8.9-1.1-1.4-0.2-5.1-0.5-6-1.3-0.2-0.1-0.8-2.5-1-2.9 0.1 1.3 0.2 2.7 0.2 4l14.7 2.3q0.4 0 1 0.1l4.9 16 0.4 1.5 1.1-0.4c-0.1-0.1-0.4-0.1-0.5-0.3z"/>
	<path fill-rule="evenodd" class="s11" d="m68.3 62.1c-0.4 1.6-1.1 0.2-2.3 0.2l-1.4 1.7c-1.2-0.1-1-3.2-1-4.8l1.2-16.5c0.1-1.5 0.6-4 0.6-4l6-0.5c1.2 0.1 1.8 3.7 1.7 5.3z"/>
	<path fill-rule="evenodd" class="s11" d="m66.5 59.4l-0.6-0.2c-1.2-0.3-2 0.4-2.3 2.1l-1.5 18.5-0.1 1.5 2.4 0.2 3.9-18.9c0.3-1.7-0.6-2.9-1.8-3.2z"/>
	<path fill-rule="evenodd" class="s11" d="m67.6 61.1c-1.6 5.5-2.3 15.8-3.8 20.4h0.6l3.8-18.7q0.1-0.4 0.1-0.7l4.8-18.6c0 0-1 1.4-5.5 17.6z"/>
	<path fill-rule="evenodd" class="s12" d="m70.1 14.6c-0.1 0.9 1 1.5 2.5 1.6l0.1 0.2c1.4 0.1 2.7-0.6 2.8-1.5l0.2-6.8c0-0.9-0.9-1.7-2.4-1.8-1.4-0.1-2.2 0.6-2.3 1.5z"/>
	<path fill-rule="evenodd" class="s6" d="m75.6 11.7l-5-1.3-0.2 1.1c1.1 1 2.8 2.3 3.3 2.5 0.5 0.1 1.9-0.5 1.9-0.8z"/>
	<path fill-rule="evenodd" class="s12" d="m76.4 5.4l0.6-0.3c0.4-0.2 0.8 0 0.9 0.6 0.1 0.9-0.7 1-0.6 1.8l-1.2-0.2z"/>
	<path fill-rule="evenodd" class="s12" d="m69.7 7.2l-0.6-0.1c-0.5-0.1-0.9 0.2-0.8 0.8 0.1 0.9 0.9 0.7 1.1 1.6l1.1-0.5z"/>
	<path fill-rule="evenodd" class="s12" d="m77.2 9.8c-0.4 1.3-1.4 3.2-2.3 3.4-1.1 0.3-4.2-1.1-4.7-2-1.3-2.4-2.4-9 2.5-9.3 1.3-0.1 3.4-1 4.2 1.4 0.5 1.5 0.7 5 0.3 6.5z"/>
	<path fill-rule="evenodd" class="s12" d="m77.2 9.8c0.4-1.5 0.2-5-0.3-6.5-0.8-2.4-2.9-1.5-4.2-1.4-0.9 0-1.6 0.3-2.2 0.7q0.1 0 0.2 0 1.2 0.9 2.1 2.1c0.1 0.1 0.2-0.2 0.3-0.1 0.3 0.2 1.1 0.5 1.4 0.6 0.5 0 2.2-0.5 2.4 0.2 0.4 1.5 0.5 2.9 0.2 4-0.8 2.9-2.2 3.8-2.2 3.8 0.9-0.2 1.9-2.1 2.3-3.4z"/>
	<path fill-rule="evenodd" class="s13" d="m76 4.6c1.1-0.1 1.4 2.1 1.4 2.1 0.3 0 0.3-1.7-0.1-3-0.3-0.8-2.1 1-1.3 0.9z"/>
	<path fill-rule="evenodd" class="s1" d="m76 4.6c1.1-0.1 1.4 2.1 1.4 2.1 0.3 0 0.3-1.7-0.1-3-0.3-0.8-2.1 1-1.3 0.9z"/>
	<path fill-rule="evenodd" class="s1" d="m77.2 2.7c0.2 0.8 0 1.6-1.2 2.1-2.1 0.9-2.6-0.5-5.6 0.3-0.2 0.1 0.3 0.7-0.5 1.4-0.8 0.8-0.5 2.2-0.5 2.2-0.4 0-0.7-3.2-0.8-3.5-0.3-1.6 1.3-3.4 3.7-4.1 2.4-0.7 4.6 0 4.9 1.6z"/>
	<path fill-rule="evenodd" class="s1" d="m69.3 7.8c0 0-0.3-2.5-0.3-3.3 0-1 0.1-1.7 1-2.3 0.4-0.2 1.8-0.4 2.3-0.5 0.6-0.1 1-0.5 1.5-0.9q-0.2 0-0.3 0.1c0-0.4 0-0.7-0.2-0.5-1.1 1.5-4.7 0.2-4.8 4.2q0 0.1 0.1 0.1 0 0.3 0 0.5c0.1 0.3 0.4 3.5 0.8 3.5 0 0-0.1-0.5-0.1-0.9z"/>
	<path fill-rule="evenodd" class="s6" d="m75.8 10.2q0 0 0 0c0 0.7-0.5 1.2-1.1 1.1-0.6 0-1.2-0.5-1.2-1.1q0 0 0 0z"/>
	<path fill-rule="evenodd" class="s14" d="m78.8 23.9l-1.5 1.5-1.6-1.4v-2.7l3.1-0.1z"/>
	<path fill-rule="evenodd" class="s15" d="m78.7 23.9l-1.4 1.3-1.4-1.3-0.1-2.4 2.8-0.1z"/>
	<path fill-rule="evenodd" class="s12" d="m90.4 20.7l-1.7-2.9c-1.9 0.2-2.2 0.5-6.6-1.5q-0.1 0-0.1-0.1l-0.4 6.4c1.6 0.3 4.2 0.5 4.2 0.5 4.7-0.1 5.5-0.3 4.6-2.4z"/>
	<path fill-rule="evenodd" class="s12" d="m62.6 17.7q-0.1 0.1-0.3 0.2l-6.3 7.1c-0.4 0.4-1.6 2.1-1.3 2.7l3.6 1.5c0.6-0.8 1.5-1.6 2.6-2.8l1.3-1.3z"/>
	<path fill-rule="evenodd" class="s16" d="m82.1 16.3c-2.8-1.5-4.3-1.6-6.6-1.4-2 1.5-3.9 1.1-5.4-0.3-1.8 0.1-3.5-0.8-7.8 3.3l-3.6 4c1.1 1.2 2.1 3.6 3.1 4.9l2.2-2.2 1.2 4.6q0 0 0 0c0.1 0.6 0.8 5.5-0.1 10.5l12.1 1.1c-0.1 0.3 0.1-0.6 0 0h0.1c1-5.8 3.7-17.1 3.7-17.1 0.8 0.2 2.2 0.4 3.3 0.5l0.4-6.8c-0.7-0.3-1.5-0.6-2.6-1.1z"/>
	<path fill-rule="evenodd" class="s12" d="m66.8 40.9c0 0 0.7-0.1 0.6-0.6-0.2-0.6-0.3-1.1-1-1.9-0.2-0.3-0.6-0.2-0.7 0.1-0.2 0.3-0.2 0.7 0 0.9 0.5 0.7 0.7 1.4 1.1 1.5z"/>
	<path fill-rule="evenodd" class="s12" d="m65.9 41c0 0 0.8-0.1 0.6-0.6-0.1-0.5-0.2-1-0.9-1.8-0.2-0.2-0.6-0.2-0.7 0.1-0.2 0.3-0.2 0.7 0 1 0.5 0.6 0.8 1.4 1 1.3z"/>
	<path fill-rule="evenodd" class="s12" d="m64.9 41.1c0 0 1 0.1 0.8-0.4-0.1-0.5-0.3-1-0.9-1.8-0.2-0.2-0.6-0.2-0.8 0.1-0.2 0.3-0.1 1 0.1 1.2 0.7 0.6 0.4 0.9 0.8 0.9z"/>
	<path fill-rule="evenodd" class="s12" d="m66.4 37.7c0.3 0.2 0.7 0.8 0.4 1.2-0.4 0.9-1.1 1.4-1.5 1.4-1.2-0.1-0.9 0.2-1.3-0.2-1.7-1.7-3.5-3.9-2.5-3.2 0.5 0.2 1.3-2 1.5-1.7 1 2 3.4 2.5 3.4 2.5z"/>
	<path fill-rule="evenodd" class="s12" d="m63.4 35.8l-3.9-7.9c-1.3-0.2-4.2-1.9-4.8-0.2 0.4 1.2 0.4 1.7 0.9 2.4l6.3 7.7c0.2 0.3 1.5-2 1.5-2z"/>
	<path fill-rule="evenodd" class="s12" d="m83.1 7.9c0.1-0.9 1.6-0.6 1.9-0.3 0.6 0.7 0.8-0.3 0.7 0.9 0 1.8 0 3.8-0.2 2.9-0.2-0.4-1.1 1.1-1.2 0.8-0.4-1.8-1.2-4.3-1.2-4.3z"/>
	<path fill-rule="evenodd" class="s12" d="m84.2 11.7l2 9c1.5-0.3 1.8 1.4 3.3 1.2 0-1.2 1.2-0.4 0.9-1.2l-4.7-9.8c-0.1-0.3-3-0.9-2.2-0.2 0.4 0.3 0.7 1 0.7 1z"/>
	<path fill-rule="evenodd" class="s17" d="m76.5 8.2l2.5 0.4 0.2-1.4-2.5-0.4c0 0-0.4 0-0.5 0.6-0.1 0.6 0.3 0.8 0.3 0.8z"/>
	<path fill-rule="evenodd" class="s18" d="m78.3 7c0 0.4 0 0.7-0.3 0.9-0.3 0.2-0.6 0.2-1 0.2-0.3-0.1-0.6-0.3-0.7-0.7q-0.1-0.1-0.1-0.2 0 0.1 0 0.2c-0.1 0.6 0.3 0.8 0.3 0.8l2.5 0.4 0.2-1.4z"/>
	<path fill-rule="evenodd" class="s17" d="m78.4 9l4.4 0.6 0.4-2.3-4.4-0.7z"/>
	<path fill-rule="evenodd" class="s18" d="m78.3 7.8c-0.1 0.6 0 1.1 0.1 1.2 0.2 0 0.3-0.5 0.4-1.2 0.1-0.6 0.1-1.1 0-1.2-0.2 0-0.4 0.5-0.5 1.2z"/>
	<path fill-rule="evenodd" class="s18" d="m80.7 6.9l-0.1 1q0 0.1-0.1 0.2 0 0.2-0.1 0.3c-0.2 0.2-0.4 0.4-0.8 0.3l-1.3-0.2c0 0.4 0.1 0.5 0.1 0.5l4 0.6 0.4-2.4z"/>
	<path fill-rule="evenodd" class="s17" d="m80.6 9.7l7.1 1.1 0.5-3.1-7.1-1.1z"/>
	<path fill-rule="evenodd" class="s17" d="m80.6 8.1c-0.1 0.9-0.1 1.6 0 1.6 0.2 0 0.4-0.6 0.5-1.5 0.2-0.9 0.2-1.6 0-1.6-0.1 0-0.3 0.7-0.5 1.5z"/>
	<path fill-rule="evenodd" class="s18" d="m85.4 7.2l-0.2 1.4q0 0.1 0 0.2-0.1 0.2-0.2 0.4c-0.2 0.3-0.6 0.6-1.1 0.5l-3.4-0.5c0 0.4 0.1 0.5 0.1 0.5l7.1 1.1 0.5-3.1z"/>
	<path fill-rule="evenodd" class="s12" d="m83.8 7.5c0 0.1 0.1 0.2 0.3 0.3 0.2 0 0.4-0.1 0.4-0.2l0.1-0.9c0-0.1-0.1-0.2-0.3-0.2-0.2-0.1-0.3 0-0.4 0.1z"/>
	<path fill-rule="evenodd" class="s12" d="m84.5 7.4c0 0.2 0.1 0.3 0.3 0.3 0.2 0 0.3 0 0.4-0.2l0.1-0.8c0-0.1-0.1-0.3-0.3-0.3-0.2 0-0.4 0-0.4 0.2z"/>
	<path fill-rule="evenodd" class="s12" d="m85.1 7.7c0 0.1 0.2 0.2 0.3 0.2 0.2 0.1 0.4 0 0.4-0.1l0.2-0.9c0-0.1-0.2-0.2-0.4-0.3-0.1 0-0.3 0.1-0.3 0.2z"/>
	<path fill-rule="evenodd" class="s12" d="m83.2 7.6c0 0.1 0.1 0.2 0.3 0.2 0.2 0.1 0.4 0 0.4-0.1l0.1-0.9c0-0.1-0.1-0.2-0.3-0.3-0.2 0-0.4 0.1-0.4 0.2z"/>
	<path fill-rule="evenodd" class="s12" d="m82.8 10.3c0.1 0.1 1 0.6 1.1 0.7l0.2-0.8c-0.2 0-0.6-0.2-0.7-0.3l-0.5-0.8c-0.1-0.1-0.2-0.1-0.4 0-0.2 0.2-0.2 0.3-0.2 0.4z"/>
	<path fill-rule="evenodd" class="s16" d="m85.3 8.8c-0.1 1.3 0.5 2.4 1.5 2.6 1 0.1 2-0.8 2.2-2 0.2-1.3-0.5-2.4-1.5-2.6-1-0.1-2 0.8-2.2 2z"/>
	<path fill-rule="evenodd" class="s16" d="m87.5 6.8q0 0-0.1 0 0.2 0.2 0.3 0.3c0.7 0.6 0.9 1.3 0.8 2q-0.2 0.7-0.6 1.4-0.4 0.5-1.1 0.9 0 0 0 0c1 0.1 2-0.8 2.2-2 0.2-1.3-0.5-2.4-1.5-2.6z"/>
	<path fill-rule="evenodd" class="s18" d="m86 8.9c-0.1 0.9 0.3 1.7 0.9 1.8 0.6 0.1 1.3-0.5 1.4-1.4 0.1-0.9-0.3-1.7-0.9-1.8-0.6-0.1-1.2 0.6-1.4 1.4z"/>
	<path fill-rule="evenodd" class="s17" d="m88.2 8.4q-0.5-0.4-1-0.9c-0.3 0.1-0.7 0.3-0.9 0.6q0.9 0.9 1.9 1.7 0.1-0.3 0.1-0.5 0.1-0.5 0-0.9-0.1 0-0.1 0z"/>
	<path fill-rule="evenodd" class="s17" d="m86.1 8.7q0 0.1-0.1 0.2c-0.1 0.9 0.3 1.7 0.9 1.8 0.4 0 0.7-0.1 1-0.5q-0.9-0.7-1.8-1.5z"/>
	<path fill-rule="evenodd" class="s3" d="m27.3 82.7l113.6-16.5-102.2 38.6z"/>
	<path fill-rule="evenodd" class="s4" d="m27.3 82.7l113.6-16.5-102.2 38.6z"/>
	<g id="Clip-Path" clip-path="url(#cp1)">
		<g>
			<path fill-rule="evenodd" class="s5" d="m14.5 105.7c-1.6 3.3 126.4-39.5 126.4-39.5l-113.8 16.1c-3.7 10.3-11 20.1-12.6 23.4z"/>
		</g>
	</g>
	<path fill-rule="evenodd" class="s2" d="m105.7 86.8c0.2 0.3 36-16.2 37.9-17.1 1.9-0.9 1.8-1.3 1.7-1.6-0.2-0.3-0.3-0.4-2.2 0.5-1.9 0.9-37.5 17.9-37.4 18.2z"/>
	<path fill-rule="evenodd" class="s2" d="m111.3 59.8c0 0.2 20.7 2.5 21.8 2.6 1.1 0.1 1.2-0.1 1.2-0.3 0-0.1 0-0.2-1.1-0.3-1.1-0.2-21.9-2.1-21.9-2z"/>
	<path fill-rule="evenodd" class="s2" d="m1 77.2l-0.3 1.8 21.8 1z"/>
	<path fill-rule="evenodd" class="s2" d="m0.7 85.7v1.8l21.8-4.8z"/>
</svg>