<svg version="1.2" xmlns="http://www.w3.org/2000/svg" viewBox="0 0 56 56" width="56" height="56">
	<title>1-svg</title>
	<defs>
		<linearGradient id="g1" x2="1" gradientUnits="userSpaceOnUse" gradientTransform="matrix(0,23.007,-37.661,0,28,4.736)">
			<stop offset="0" stop-color="#99fff0"/>
			<stop offset="1" stop-color="#00c8aa"/>
		</linearGradient>
	</defs>
	<style>
		.s0 { fill: url(#g1) } 
		.s1 { opacity: .3;fill: #00c8aa } 
	</style>
	<path class="s0" d="m45.1 13.3l-14.6-7.9c-1.6-0.9-3.4-0.9-5 0l-14.6 7.9c-1.1 0.5-1.7 1.7-1.7 2.9 0 1.3 0.6 2.4 1.7 3l14.6 7.9c0.8 0.4 1.7 0.6 2.5 0.6 0.8 0 1.7-0.2 2.5-0.6l14.6-7.9c1.1-0.6 1.7-1.7 1.7-3 0-1.2-0.6-2.4-1.7-2.9z"/>
	<path class="s1" d="m23.1 29.8l-13.6-6.8c-1.1-0.5-2.3-0.4-3.2 0.2-1.1 0.6-1.6 1.6-1.6 2.8v12.9c0 2.2 1.2 4.2 3.2 5.2l13.6 6.8q0.7 0.4 1.5 0.4c0.6 0 1.2-0.2 1.7-0.5 1-0.6 1.6-1.7 1.6-2.9v-12.8c0-2.3-1.2-4.3-3.2-5.3z"/>
	<path class="s1" d="m49.7 23.2c-1-0.6-2.2-0.7-3.2-0.2l-13.6 6.8c-2 1-3.2 3-3.2 5.3v12.8c0 1.2 0.6 2.3 1.6 2.9 0.5 0.3 1.1 0.5 1.7 0.5q0.8 0 1.5-0.4l13.6-6.8c2-1 3.2-3 3.2-5.2v-12.9c0-1.1-0.6-2.2-1.6-2.8z"/>
</svg>