<svg version="1.2" xmlns="http://www.w3.org/2000/svg" viewBox="0 0 56 56" width="56" height="56">
	<title>5-svg</title>
	<defs>
		<linearGradient id="g1" x2="1" gradientUnits="userSpaceOnUse" gradientTransform="matrix(0,15.878,-15.874,0,42.191,4.702)">
			<stop offset="0" stop-color="#98ffef"/>
			<stop offset="1" stop-color="#00c8aa"/>
		</linearGradient>
	</defs>
	<style>
		.s0 { opacity: .3;fill: #00c8aa } 
		.s1 { fill: url(#g1) } 
		.s2 { fill: #00c8aa } 
	</style>
	<path class="s0" d="m47.8 23.8h-6.7c-5.5 0-10-4.5-10-10.1v-6.7c0-1.3-1.1-2.3-2.4-2.3h-9.9c-7.2 0-13 4.6-13 13v20.6c0 8.4 5.8 13 13 13h18.4c7.2 0 13-4.6 13-13v-12.2c0-1.3-1.1-2.3-2.4-2.3z"/>
	<path class="s1" d="m36.9 5.2c-1-1-2.6-0.3-2.6 1v8.1c0 3.4 2.8 6.3 6.4 6.3 2.2 0 5.3 0 7.9 0 1.3 0 2-1.6 1.1-2.5-3.4-3.4-9.4-9.5-12.8-12.9z"/>
	<path class="s2" d="m31.5 32.1h-14c-1 0-1.8-0.8-1.8-1.8 0.1-0.9 0.8-1.7 1.8-1.7h14c1 0 1.8 0.8 1.8 1.7-0.1 1-0.8 1.8-1.8 1.8z"/>
	<path class="s2" d="m26.8 41.4h-9.3c-1 0-1.8-0.8-1.8-1.7 0.1-1 0.8-1.8 1.8-1.8h9.3c1 0 1.8 0.8 1.8 1.8 0 0.9-0.8 1.7-1.8 1.7z"/>
</svg>